<svg width="1284" height="534" viewBox="0 0 1284 534" fill="none" xmlns="http://www.w3.org/2000/svg">
<rect x="62.4655" y="128.466" width="306.069" height="306.069" rx="16.3966" fill="white" stroke="#CCCCCC" stroke-width="10.931"/>
<path d="M270.233 347.888L178.668 265.184L185.724 269.122L186.217 342.965H162.095V217.433H163.079L252.675 299.808L247.424 297.511L246.932 222.191H270.889V347.888H270.233Z" fill="#333333"/>
<path d="M337.359 162.815L324.242 188L317.334 184.24C317.917 184.006 318.529 183.832 319.17 183.715C319.87 183.598 320.511 183.54 321.094 183.54C323.134 183.482 325.175 183.715 327.215 184.24C329.256 184.764 331.092 185.697 332.724 187.038C334.415 188.379 335.756 190.215 336.747 192.547C337.796 194.879 338.321 197.852 338.321 201.467C338.321 205.664 337.33 209.279 335.348 212.311C333.424 215.284 330.888 217.557 327.74 219.132C324.592 220.706 321.181 221.493 317.508 221.493C314.652 221.493 311.649 220.91 308.501 219.744C305.353 218.519 302.846 216.916 300.981 214.934L307.452 204.44C308.326 205.548 309.667 206.626 311.475 207.676C313.282 208.725 315.176 209.25 317.159 209.25C318.441 209.25 319.695 208.929 320.919 208.288C322.143 207.647 323.163 206.685 323.98 205.402C324.796 204.12 325.204 202.545 325.204 200.68C325.204 198.115 324.475 196.074 323.018 194.559C321.619 193.043 319.636 192.285 317.071 192.285C315.322 192.285 313.981 192.372 313.049 192.547C312.174 192.664 311.3 192.839 310.425 193.072L310.163 192.722L320.394 173.571L324.067 175.058H305.79V162.815H337.359Z" fill="#333333"/>
<path d="M436.274 156V125.872H425.181V122.7H451.011V125.872H439.919V156H436.274ZM454.323 156V119.64H457.923V134.31H458.126C459.116 133.275 460.256 132.502 461.546 131.992C462.836 131.467 464.208 131.205 465.663 131.205C467.148 131.205 468.468 131.49 469.623 132.06C470.793 132.615 471.708 133.522 472.368 134.782C473.028 136.042 473.358 137.73 473.358 139.845V156H469.781V140.002C469.781 137.902 469.308 136.455 468.363 135.66C467.433 134.85 466.196 134.445 464.651 134.445C463.901 134.445 463.121 134.557 462.311 134.782C461.501 134.992 460.713 135.337 459.948 135.817C459.183 136.282 458.508 136.905 457.923 137.685V156H454.323ZM479.899 156V131.587H483.499V156H479.899ZM481.699 126.277C480.889 126.277 480.267 126.082 479.832 125.692C479.412 125.287 479.202 124.732 479.202 124.027C479.202 123.307 479.412 122.745 479.832 122.34C480.267 121.935 480.889 121.732 481.699 121.732C482.509 121.732 483.124 121.935 483.544 122.34C483.979 122.745 484.197 123.307 484.197 124.027C484.197 124.732 483.979 125.287 483.544 125.692C483.124 126.082 482.509 126.277 481.699 126.277ZM496.142 156.428C494.912 156.428 493.734 156.345 492.609 156.18C491.499 156.015 490.419 155.767 489.369 155.437V152.557C490.569 152.917 491.717 153.18 492.812 153.345C493.907 153.495 495.017 153.57 496.142 153.57C498.257 153.57 499.787 153.21 500.732 152.49C501.692 151.77 502.172 150.757 502.172 149.452C502.172 148.342 501.887 147.495 501.317 146.91C500.747 146.31 499.779 145.867 498.414 145.582L495.107 144.907C492.887 144.427 491.297 143.64 490.337 142.545C489.392 141.435 488.919 140.01 488.919 138.27C488.919 136.215 489.707 134.527 491.282 133.207C492.872 131.872 495.309 131.205 498.594 131.205C499.644 131.205 500.642 131.265 501.587 131.385C502.547 131.505 503.469 131.685 504.354 131.925V134.827C503.364 134.557 502.412 134.362 501.497 134.242C500.597 134.122 499.652 134.062 498.662 134.062C497.117 134.062 495.879 134.25 494.949 134.625C494.034 134.985 493.374 135.48 492.969 136.11C492.564 136.725 492.362 137.415 492.362 138.18C492.362 139.14 492.632 139.935 493.172 140.565C493.712 141.195 494.657 141.66 496.007 141.96L499.314 142.635C501.564 143.1 503.177 143.865 504.152 144.93C505.142 145.995 505.637 147.442 505.637 149.272C505.637 151.477 504.827 153.225 503.207 154.515C501.602 155.79 499.247 156.428 496.142 156.428ZM530.875 156.428C528.385 156.428 526.45 155.79 525.07 154.515C523.69 153.225 523 151.17 523 148.35V131.587L523.585 122.7H526.6V147.765C526.6 149.82 527.02 151.26 527.86 152.085C528.715 152.91 529.982 153.322 531.662 153.322C532.112 153.322 532.577 153.292 533.057 153.232C533.537 153.157 534.062 153.06 534.632 152.94V155.977C534.032 156.128 533.417 156.24 532.787 156.315C532.157 156.39 531.52 156.428 530.875 156.428ZM518.41 134.557V131.587H534.272V134.557H518.41ZM538.479 156V131.587H542.079V156H538.479ZM540.279 126.277C539.469 126.277 538.846 126.082 538.411 125.692C537.991 125.287 537.781 124.732 537.781 124.027C537.781 123.307 537.991 122.745 538.411 122.34C538.846 121.935 539.469 121.732 540.279 121.732C541.089 121.732 541.704 121.935 542.124 122.34C542.559 122.745 542.776 123.307 542.776 124.027C542.776 124.732 542.559 125.287 542.124 125.692C541.704 126.082 541.089 126.277 540.279 126.277ZM548.894 156V119.64H552.494V156H548.894ZM569.591 156.428C567.056 156.428 564.926 156 563.201 155.145C561.491 154.275 560.201 152.917 559.331 151.072C558.461 149.212 558.026 146.782 558.026 143.782C558.026 140.917 558.424 138.555 559.219 136.695C560.029 134.835 561.169 133.455 562.639 132.555C564.124 131.655 565.879 131.205 567.904 131.205C569.899 131.205 571.594 131.662 572.989 132.577C574.399 133.477 575.471 134.865 576.206 136.74C576.941 138.6 577.309 140.977 577.309 143.872V144.975H559.984V142.522H574.654L573.866 143.062C573.866 140.782 573.626 138.967 573.146 137.617C572.681 136.267 571.999 135.3 571.099 134.715C570.214 134.115 569.134 133.815 567.859 133.815C566.599 133.815 565.504 134.107 564.574 134.692C563.644 135.277 562.924 136.245 562.414 137.595C561.919 138.945 561.671 140.767 561.671 143.062V144.322C561.671 146.572 561.971 148.372 562.571 149.722C563.186 151.057 564.109 152.025 565.339 152.625C566.569 153.21 568.129 153.502 570.019 153.502C570.949 153.502 571.909 153.42 572.899 153.255C573.904 153.075 574.969 152.827 576.094 152.512V155.46C574.924 155.79 573.806 156.03 572.741 156.18C571.691 156.345 570.641 156.428 569.591 156.428ZM593.454 156V131.587H597.054V156H593.454ZM595.254 126.277C594.444 126.277 593.822 126.082 593.387 125.692C592.967 125.287 592.757 124.732 592.757 124.027C592.757 123.307 592.967 122.745 593.387 122.34C593.822 121.935 594.444 121.732 595.254 121.732C596.064 121.732 596.679 121.935 597.099 122.34C597.534 122.745 597.752 123.307 597.752 124.027C597.752 124.732 597.534 125.287 597.099 125.692C596.679 126.082 596.064 126.277 595.254 126.277ZM609.697 156.428C608.467 156.428 607.289 156.345 606.164 156.18C605.054 156.015 603.974 155.767 602.924 155.437V152.557C604.124 152.917 605.272 153.18 606.367 153.345C607.462 153.495 608.572 153.57 609.697 153.57C611.812 153.57 613.342 153.21 614.287 152.49C615.247 151.77 615.727 150.757 615.727 149.452C615.727 148.342 615.442 147.495 614.872 146.91C614.302 146.31 613.334 145.867 611.969 145.582L608.662 144.907C606.442 144.427 604.852 143.64 603.892 142.545C602.947 141.435 602.474 140.01 602.474 138.27C602.474 136.215 603.262 134.527 604.837 133.207C606.427 131.872 608.864 131.205 612.149 131.205C613.199 131.205 614.197 131.265 615.142 131.385C616.102 131.505 617.024 131.685 617.909 131.925V134.827C616.919 134.557 615.967 134.362 615.052 134.242C614.152 134.122 613.207 134.062 612.217 134.062C610.672 134.062 609.434 134.25 608.504 134.625C607.589 134.985 606.929 135.48 606.524 136.11C606.119 136.725 605.917 137.415 605.917 138.18C605.917 139.14 606.187 139.935 606.727 140.565C607.267 141.195 608.212 141.66 609.562 141.96L612.869 142.635C615.119 143.1 616.732 143.865 617.707 144.93C618.697 145.995 619.192 147.442 619.192 149.272C619.192 151.477 618.382 153.225 616.762 154.515C615.157 155.79 612.802 156.428 609.697 156.428ZM640.942 156.428C639.712 156.428 638.534 156.345 637.409 156.18C636.299 156.015 635.219 155.767 634.169 155.437V152.557C635.369 152.917 636.517 153.18 637.612 153.345C638.707 153.495 639.817 153.57 640.942 153.57C643.057 153.57 644.587 153.21 645.532 152.49C646.492 151.77 646.972 150.757 646.972 149.452C646.972 148.342 646.687 147.495 646.117 146.91C645.547 146.31 644.579 145.867 643.214 145.582L639.907 144.907C637.687 144.427 636.097 143.64 635.137 142.545C634.192 141.435 633.719 140.01 633.719 138.27C633.719 136.215 634.507 134.527 636.082 133.207C637.672 131.872 640.109 131.205 643.394 131.205C644.444 131.205 645.442 131.265 646.387 131.385C647.347 131.505 648.269 131.685 649.154 131.925V134.827C648.164 134.557 647.212 134.362 646.297 134.242C645.397 134.122 644.452 134.062 643.462 134.062C641.917 134.062 640.679 134.25 639.749 134.625C638.834 134.985 638.174 135.48 637.769 136.11C637.364 136.725 637.162 137.415 637.162 138.18C637.162 139.14 637.432 139.935 637.972 140.565C638.512 141.195 639.457 141.66 640.807 141.96L644.114 142.635C646.364 143.1 647.977 143.865 648.952 144.93C649.942 145.995 650.437 147.442 650.437 149.272C650.437 151.477 649.627 153.225 648.007 154.515C646.402 155.79 644.047 156.428 640.942 156.428ZM662.911 156.405C661.396 156.405 660.053 156.128 658.883 155.572C657.713 155.017 656.791 154.11 656.116 152.85C655.441 151.59 655.103 149.902 655.103 147.787V131.587H658.703V147.63C658.703 149.715 659.168 151.17 660.098 151.995C661.028 152.805 662.228 153.21 663.698 153.21C664.433 153.21 665.198 153.097 665.993 152.872C666.803 152.647 667.583 152.295 668.333 151.815C669.083 151.335 669.751 150.712 670.336 149.947V131.587H673.936V156H670.898L670.651 153.322H670.426C669.406 154.342 668.251 155.115 666.961 155.64C665.671 156.15 664.321 156.405 662.911 156.405ZM680.73 156V131.587H683.745L684.037 134.85H684.262C685.102 133.695 686.152 132.825 687.412 132.24C688.687 131.64 690.015 131.34 691.395 131.34C691.77 131.34 692.107 131.355 692.407 131.385C692.722 131.415 693.03 131.46 693.33 131.52V134.85C692.985 134.79 692.64 134.752 692.295 134.737C691.965 134.722 691.605 134.715 691.215 134.715C690.42 134.715 689.587 134.842 688.717 135.097C687.862 135.337 687.052 135.72 686.287 136.245C685.522 136.755 684.87 137.4 684.33 138.18V156H680.73ZM696.989 156V131.587H700.004L700.297 134.85H700.522C701.362 133.695 702.412 132.825 703.672 132.24C704.947 131.64 706.274 131.34 707.654 131.34C708.029 131.34 708.367 131.355 708.667 131.385C708.982 131.415 709.289 131.46 709.589 131.52V134.85C709.244 134.79 708.899 134.752 708.554 134.737C708.224 134.722 707.864 134.715 707.474 134.715C706.679 134.715 705.847 134.842 704.977 135.097C704.122 135.337 703.312 135.72 702.547 136.245C701.782 136.755 701.129 137.4 700.589 138.18V156H696.989ZM721.746 156.428C719.646 156.428 717.816 155.993 716.256 155.122C714.696 154.237 713.489 152.872 712.634 151.027C711.779 149.167 711.351 146.76 711.351 143.805C711.351 140.88 711.771 138.487 712.611 136.627C713.466 134.767 714.674 133.402 716.234 132.532C717.794 131.647 719.631 131.205 721.746 131.205C723.861 131.205 725.699 131.647 727.259 132.532C728.819 133.402 730.019 134.767 730.859 136.627C731.714 138.472 732.141 140.865 732.141 143.805C732.141 146.73 731.706 149.122 730.836 150.982C729.981 152.842 728.774 154.215 727.214 155.1C725.669 155.985 723.846 156.428 721.746 156.428ZM721.746 153.502C723.126 153.502 724.319 153.202 725.324 152.602C726.329 152.002 727.101 151.005 727.641 149.61C728.196 148.2 728.474 146.287 728.474 143.872C728.474 141.412 728.196 139.477 727.641 138.067C727.101 136.642 726.321 135.637 725.301 135.052C724.296 134.452 723.111 134.152 721.746 134.152C720.366 134.152 719.174 134.452 718.169 135.052C717.164 135.637 716.384 136.635 715.829 138.045C715.289 139.44 715.019 141.345 715.019 143.76C715.019 146.205 715.289 148.14 715.829 149.565C716.384 150.975 717.164 151.987 718.169 152.602C719.174 153.202 720.366 153.502 721.746 153.502ZM745.176 156.405C743.661 156.405 742.319 156.128 741.149 155.572C739.979 155.017 739.056 154.11 738.381 152.85C737.706 151.59 737.369 149.902 737.369 147.787V131.587H740.969V147.63C740.969 149.715 741.434 151.17 742.364 151.995C743.294 152.805 744.494 153.21 745.964 153.21C746.699 153.21 747.464 153.097 748.259 152.872C749.069 152.647 749.849 152.295 750.599 151.815C751.349 151.335 752.016 150.712 752.601 149.947V131.587H756.201V156H753.164L752.916 153.322H752.691C751.671 154.342 750.516 155.115 749.226 155.64C747.936 156.15 746.586 156.405 745.176 156.405ZM762.995 156V131.587H766.033L766.28 134.332H766.528C767.518 133.327 768.673 132.555 769.993 132.015C771.313 131.475 772.715 131.205 774.2 131.205C775.73 131.205 777.08 131.49 778.25 132.06C779.435 132.615 780.358 133.53 781.018 134.805C781.693 136.065 782.03 137.752 782.03 139.867V156H778.453V140.025C778.453 137.925 777.988 136.47 777.058 135.66C776.143 134.835 774.898 134.422 773.323 134.422C772.603 134.422 771.838 134.527 771.028 134.737C770.218 134.947 769.423 135.292 768.643 135.772C767.878 136.252 767.195 136.89 766.595 137.685V156H762.995ZM796.896 156.428C795.126 156.428 793.514 156.03 792.059 155.235C790.604 154.425 789.441 153.135 788.571 151.365C787.716 149.595 787.289 147.24 787.289 144.3C787.289 141.36 787.754 138.922 788.684 136.987C789.629 135.052 791.016 133.605 792.846 132.645C794.676 131.685 796.926 131.205 799.596 131.205C800.286 131.205 800.976 131.235 801.666 131.295C802.356 131.355 802.994 131.43 803.579 131.52V119.64H807.179V156H804.119L803.871 153.367H803.624C802.904 154.252 801.966 154.987 800.811 155.572C799.671 156.143 798.366 156.428 796.896 156.428ZM797.706 153.322C798.801 153.322 799.874 153.082 800.924 152.602C801.974 152.122 802.859 151.357 803.579 150.307V134.58C803.039 134.445 802.409 134.34 801.689 134.265C800.969 134.19 800.256 134.152 799.551 134.152C796.716 134.152 794.571 134.917 793.116 136.447C791.676 137.977 790.956 140.49 790.956 143.985C790.956 146.385 791.241 148.267 791.811 149.632C792.396 150.982 793.191 151.935 794.196 152.49C795.216 153.045 796.386 153.322 797.706 153.322ZM824.254 156.428C821.719 156.428 819.589 156 817.864 155.145C816.154 154.275 814.864 152.917 813.994 151.072C813.124 149.212 812.689 146.782 812.689 143.782C812.689 140.917 813.087 138.555 813.882 136.695C814.692 134.835 815.832 133.455 817.302 132.555C818.787 131.655 820.542 131.205 822.567 131.205C824.562 131.205 826.257 131.662 827.652 132.577C829.062 133.477 830.134 134.865 830.869 136.74C831.604 138.6 831.972 140.977 831.972 143.872V144.975H814.647V142.522H829.317L828.529 143.062C828.529 140.782 828.289 138.967 827.809 137.617C827.344 136.267 826.662 135.3 825.762 134.715C824.877 134.115 823.797 133.815 822.522 133.815C821.262 133.815 820.167 134.107 819.237 134.692C818.307 135.277 817.587 136.245 817.077 137.595C816.582 138.945 816.334 140.767 816.334 143.062V144.322C816.334 146.572 816.634 148.372 817.234 149.722C817.849 151.057 818.772 152.025 820.002 152.625C821.232 153.21 822.792 153.502 824.682 153.502C825.612 153.502 826.572 153.42 827.562 153.255C828.567 153.075 829.632 152.827 830.757 152.512V155.46C829.587 155.79 828.469 156.03 827.404 156.18C826.354 156.345 825.304 156.428 824.254 156.428ZM845.456 156.428C843.686 156.428 842.073 156.03 840.618 155.235C839.163 154.425 838.001 153.135 837.131 151.365C836.276 149.595 835.848 147.24 835.848 144.3C835.848 141.36 836.313 138.922 837.243 136.987C838.188 135.052 839.576 133.605 841.406 132.645C843.236 131.685 845.486 131.205 848.156 131.205C848.846 131.205 849.536 131.235 850.226 131.295C850.916 131.355 851.553 131.43 852.138 131.52V119.64H855.738V156H852.678L852.431 153.367H852.183C851.463 154.252 850.526 154.987 849.371 155.572C848.231 156.143 846.926 156.428 845.456 156.428ZM846.266 153.322C847.361 153.322 848.433 153.082 849.483 152.602C850.533 152.122 851.418 151.357 852.138 150.307V134.58C851.598 134.445 850.968 134.34 850.248 134.265C849.528 134.19 848.816 134.152 848.111 134.152C845.276 134.152 843.131 134.917 841.676 136.447C840.236 137.977 839.516 140.49 839.516 143.985C839.516 146.385 839.801 148.267 840.371 149.632C840.956 150.982 841.751 151.935 842.756 152.49C843.776 153.045 844.946 153.322 846.266 153.322ZM552.366 212.428C551.091 212.428 549.801 212.33 548.496 212.135C547.191 211.955 545.969 211.685 544.829 211.325V175.64H548.429V190.107H548.631C549.381 189.252 550.326 188.555 551.466 188.015C552.621 187.475 553.934 187.205 555.404 187.205C557.099 187.205 558.651 187.602 560.061 188.397C561.471 189.177 562.596 190.46 563.436 192.245C564.291 194.015 564.719 196.377 564.719 199.332C564.719 203.742 563.669 207.027 561.569 209.188C559.484 211.348 556.416 212.428 552.366 212.428ZM552.636 209.48C555.396 209.48 557.489 208.715 558.914 207.185C560.339 205.655 561.051 203.142 561.051 199.647C561.051 197.217 560.759 195.327 560.174 193.977C559.589 192.627 558.786 191.682 557.766 191.142C556.761 190.587 555.621 190.31 554.346 190.31C553.236 190.31 552.149 190.542 551.084 191.007C550.034 191.457 549.149 192.17 548.429 193.145V208.94C548.969 209.09 549.606 209.217 550.341 209.322C551.091 209.427 551.856 209.48 552.636 209.48ZM573.167 221.9L576.924 212L578.072 209.412L586.127 187.587H589.749L576.767 221.9H573.167ZM575.889 212L566.642 187.587H570.489L579.332 212H575.889ZM615.351 212.428C612.711 212.428 610.499 212.075 608.714 211.37C606.929 210.665 605.586 209.66 604.686 208.355C603.786 207.05 603.336 205.482 603.336 203.652C603.336 201.507 603.966 199.655 605.226 198.095C606.501 196.535 608.271 195.38 610.536 194.63L613.281 195.777C611.181 196.377 609.584 197.352 608.489 198.702C607.394 200.037 606.846 201.575 606.846 203.315C606.846 205.355 607.559 206.922 608.984 208.017C610.424 209.097 612.554 209.637 615.374 209.637C617.999 209.637 620.001 209.12 621.381 208.085C622.761 207.035 623.451 205.557 623.451 203.652C623.451 202.437 623.189 201.41 622.664 200.57C622.139 199.73 621.261 199.01 620.031 198.41C618.801 197.81 617.129 197.255 615.014 196.745C612.419 196.13 610.341 195.372 608.781 194.472C607.236 193.557 606.119 192.485 605.429 191.255C604.754 190.01 604.416 188.577 604.416 186.957C604.416 185.202 604.836 183.68 605.676 182.39C606.516 181.085 607.746 180.072 609.366 179.352C610.986 178.632 612.944 178.272 615.239 178.272C618.569 178.272 621.171 179.022 623.046 180.522C624.936 182.022 625.881 184.077 625.881 186.688C625.881 188.007 625.634 189.222 625.139 190.332C624.659 191.442 623.931 192.425 622.956 193.28C621.981 194.135 620.751 194.855 619.266 195.44L616.701 194.315C618.786 193.43 620.286 192.417 621.201 191.277C622.131 190.122 622.596 188.682 622.596 186.957C622.596 185.037 621.951 183.575 620.661 182.57C619.371 181.565 617.549 181.062 615.194 181.062C612.794 181.062 610.986 181.587 609.771 182.637C608.571 183.672 607.971 185.075 607.971 186.845C607.971 188.03 608.219 189.05 608.714 189.905C609.209 190.76 610.071 191.51 611.301 192.155C612.531 192.8 614.241 193.385 616.431 193.91C619.026 194.555 621.089 195.312 622.619 196.182C624.164 197.052 625.274 198.08 625.949 199.265C626.624 200.45 626.961 201.837 626.961 203.427C626.961 205.212 626.511 206.78 625.611 208.13C624.726 209.48 623.421 210.537 621.696 211.302C619.971 212.053 617.856 212.428 615.351 212.428ZM652.889 212.428C650.399 212.428 648.464 211.79 647.084 210.515C645.704 209.225 645.014 207.17 645.014 204.35V187.587L645.599 178.7H648.614V203.765C648.614 205.82 649.034 207.26 649.874 208.085C650.729 208.91 651.996 209.322 653.676 209.322C654.126 209.322 654.591 209.292 655.071 209.232C655.551 209.157 656.076 209.06 656.646 208.94V211.977C656.046 212.128 655.431 212.24 654.801 212.315C654.171 212.39 653.534 212.428 652.889 212.428ZM640.424 190.557V187.587H656.286V190.557H640.424ZM660.493 212V187.587H664.093V212H660.493ZM662.293 182.277C661.483 182.277 660.86 182.082 660.425 181.692C660.005 181.287 659.795 180.732 659.795 180.027C659.795 179.307 660.005 178.745 660.425 178.34C660.86 177.935 661.483 177.732 662.293 177.732C663.103 177.732 663.718 177.935 664.138 178.34C664.573 178.745 664.79 179.307 664.79 180.027C664.79 180.732 664.573 181.287 664.138 181.692C663.718 182.082 663.103 182.277 662.293 182.277ZM670.908 212V175.64H674.508V212H670.908ZM691.605 212.428C689.07 212.428 686.94 212 685.215 211.145C683.505 210.275 682.215 208.917 681.345 207.072C680.475 205.212 680.04 202.782 680.04 199.782C680.04 196.917 680.438 194.555 681.233 192.695C682.043 190.835 683.183 189.455 684.653 188.555C686.138 187.655 687.893 187.205 689.918 187.205C691.913 187.205 693.608 187.662 695.003 188.577C696.413 189.477 697.485 190.865 698.22 192.74C698.955 194.6 699.323 196.977 699.323 199.872V200.975H681.998V198.522H696.668L695.88 199.062C695.88 196.782 695.64 194.967 695.16 193.617C694.695 192.267 694.013 191.3 693.113 190.715C692.228 190.115 691.148 189.815 689.873 189.815C688.613 189.815 687.518 190.107 686.588 190.692C685.658 191.277 684.938 192.245 684.428 193.595C683.933 194.945 683.685 196.767 683.685 199.062V200.322C683.685 202.572 683.985 204.372 684.585 205.722C685.2 207.057 686.123 208.025 687.353 208.625C688.583 209.21 690.143 209.502 692.033 209.502C692.963 209.502 693.923 209.42 694.913 209.255C695.918 209.075 696.983 208.827 698.108 208.512V211.46C696.938 211.79 695.82 212.03 694.755 212.18C693.705 212.345 692.655 212.428 691.605 212.428ZM710.309 212.428C709.079 212.428 707.902 212.345 706.777 212.18C705.667 212.015 704.587 211.767 703.537 211.437V208.557C704.737 208.917 705.884 209.18 706.979 209.345C708.074 209.495 709.184 209.57 710.309 209.57C712.424 209.57 713.954 209.21 714.899 208.49C715.859 207.77 716.339 206.757 716.339 205.452C716.339 204.342 716.054 203.495 715.484 202.91C714.914 202.31 713.947 201.867 712.582 201.582L709.274 200.907C707.054 200.427 705.464 199.64 704.504 198.545C703.559 197.435 703.087 196.01 703.087 194.27C703.087 192.215 703.874 190.527 705.449 189.207C707.039 187.872 709.477 187.205 712.762 187.205C713.812 187.205 714.809 187.265 715.754 187.385C716.714 187.505 717.637 187.685 718.522 187.925V190.827C717.532 190.557 716.579 190.362 715.664 190.242C714.764 190.122 713.819 190.062 712.829 190.062C711.284 190.062 710.047 190.25 709.117 190.625C708.202 190.985 707.542 191.48 707.137 192.11C706.732 192.725 706.529 193.415 706.529 194.18C706.529 195.14 706.799 195.935 707.339 196.565C707.879 197.195 708.824 197.66 710.174 197.96L713.482 198.635C715.732 199.1 717.344 199.865 718.319 200.93C719.309 201.995 719.804 203.442 719.804 205.272C719.804 207.477 718.994 209.225 717.374 210.515C715.769 211.79 713.414 212.428 710.309 212.428ZM726.409 212.293C725.629 212.293 724.999 212.067 724.519 211.617C724.054 211.167 723.821 210.56 723.821 209.795C723.821 209.03 724.054 208.422 724.519 207.972C724.984 207.522 725.614 207.297 726.409 207.297C727.189 207.297 727.811 207.53 728.276 207.995C728.756 208.445 728.996 209.045 728.996 209.795C728.996 210.545 728.756 211.152 728.276 211.617C727.796 212.067 727.174 212.293 726.409 212.293Z" fill="#333333"/>
<circle cx="318.983" cy="191.116" r="40.1708" stroke="#B5C6FF" stroke-width="6.98623"/>
<path d="M454.162 317.428C452.617 317.428 451.109 317.33 449.639 317.135C448.184 316.94 446.804 316.655 445.499 316.28V310.812C446.774 311.172 448.154 311.457 449.639 311.667C451.124 311.877 452.534 311.982 453.869 311.982C456.269 311.982 458.017 311.585 459.112 310.79C460.207 309.995 460.754 308.832 460.754 307.302C460.754 305.832 460.229 304.707 459.179 303.927C458.144 303.132 456.389 302.735 453.914 302.735H449.032V297.2H452.812C455.212 297.2 456.929 296.817 457.964 296.052C459.014 295.287 459.539 294.215 459.539 292.835C459.539 291.485 459.059 290.465 458.099 289.775C457.154 289.07 455.654 288.717 453.599 288.717C452.354 288.717 451.072 288.822 449.752 289.032C448.447 289.242 447.224 289.55 446.084 289.955V284.487C446.804 284.247 447.629 284.037 448.559 283.857C449.489 283.662 450.457 283.52 451.462 283.43C452.467 283.325 453.442 283.272 454.387 283.272C458.422 283.272 461.452 284.052 463.477 285.612C465.517 287.157 466.537 289.347 466.537 292.182C466.537 294.192 465.959 295.887 464.804 297.267C463.664 298.647 462.082 299.555 460.057 299.99L460.079 299.63C462.494 299.99 464.354 300.86 465.659 302.24C466.964 303.605 467.617 305.442 467.617 307.752C467.617 309.762 467.122 311.495 466.132 312.95C465.157 314.39 463.672 315.5 461.677 316.28C459.682 317.045 457.177 317.428 454.162 317.428ZM493.892 317.473C491.432 317.473 489.302 317.008 487.502 316.077C485.717 315.132 484.337 313.722 483.362 311.847C482.387 309.957 481.9 307.595 481.9 304.76C481.9 301.895 482.372 299.517 483.317 297.627C484.277 295.737 485.65 294.327 487.435 293.397C489.235 292.467 491.387 292.002 493.892 292.002C496.397 292.002 498.542 292.475 500.327 293.42C502.127 294.35 503.5 295.76 504.445 297.65C505.405 299.525 505.885 301.88 505.885 304.715C505.885 307.565 505.397 309.935 504.422 311.825C503.447 313.715 502.06 315.132 500.26 316.077C498.475 317.008 496.352 317.473 493.892 317.473ZM493.892 312.027C494.897 312.027 495.752 311.81 496.457 311.375C497.177 310.94 497.725 310.197 498.1 309.147C498.475 308.082 498.662 306.627 498.662 304.782C498.662 302.892 498.475 301.415 498.1 300.35C497.725 299.285 497.177 298.535 496.457 298.1C495.752 297.65 494.897 297.425 493.892 297.425C492.887 297.425 492.025 297.642 491.305 298.077C490.6 298.512 490.06 299.262 489.685 300.327C489.31 301.377 489.122 302.832 489.122 304.692C489.122 306.582 489.31 308.06 489.685 309.125C490.06 310.19 490.6 310.94 491.305 311.375C492.025 311.81 492.887 312.027 493.892 312.027ZM511.238 317V290.63C511.238 288.44 511.658 286.565 512.498 285.005C513.338 283.445 514.575 282.252 516.21 281.427C517.86 280.602 519.885 280.19 522.285 280.19C522.93 280.19 523.545 280.212 524.13 280.257C524.715 280.302 525.293 280.37 525.863 280.46V286.062C525.428 286.002 525.008 285.957 524.603 285.927C524.213 285.897 523.8 285.882 523.365 285.882C521.625 285.882 520.35 286.235 519.54 286.94C518.745 287.645 518.348 288.762 518.348 290.292V317H511.238ZM507.233 298.032V292.385H524.828V298.032H507.233ZM549.705 317.45C546.735 317.45 544.447 316.715 542.842 315.245C541.252 313.76 540.457 311.412 540.457 308.202V292.385L541.762 283.7H547.612V307.077C547.612 308.772 547.927 309.942 548.557 310.587C549.202 311.232 550.237 311.555 551.662 311.555C552.052 311.555 552.45 311.532 552.855 311.487C553.275 311.427 553.74 311.352 554.25 311.262V316.932C553.605 317.068 552.877 317.188 552.067 317.293C551.272 317.398 550.485 317.45 549.705 317.45ZM536.452 298.032V292.385H554.092V298.032H536.452ZM557.907 317V280.64H565.062V294.86H565.422C566.262 293.93 567.252 293.225 568.392 292.745C569.532 292.25 570.807 292.002 572.217 292.002C573.717 292.002 575.075 292.317 576.29 292.947C577.505 293.577 578.465 294.605 579.17 296.03C579.89 297.44 580.25 299.315 580.25 301.655V317H573.072V302.127C573.072 300.627 572.757 299.6 572.127 299.045C571.512 298.475 570.672 298.19 569.607 298.19C569.067 298.19 568.52 298.265 567.965 298.415C567.41 298.55 566.877 298.767 566.367 299.067C565.872 299.367 565.437 299.742 565.062 300.192V317H557.907ZM597.815 317.473C594.725 317.473 592.182 317.03 590.187 316.145C588.192 315.26 586.707 313.872 585.732 311.982C584.772 310.092 584.292 307.655 584.292 304.67C584.292 301.955 584.735 299.652 585.62 297.762C586.52 295.872 587.817 294.44 589.512 293.465C591.222 292.49 593.292 292.002 595.722 292.002C598.047 292.002 600.005 292.497 601.595 293.487C603.185 294.462 604.385 295.91 605.195 297.83C606.005 299.75 606.41 302.105 606.41 304.895V306.762H588.387V302.645H600.875L599.727 303.072C599.727 301.452 599.577 300.162 599.277 299.202C598.977 298.242 598.52 297.56 597.905 297.155C597.305 296.75 596.555 296.547 595.655 296.547C594.74 296.547 593.967 296.75 593.337 297.155C592.722 297.56 592.25 298.242 591.92 299.202C591.605 300.147 591.447 301.43 591.447 303.05V305.93C591.447 307.445 591.665 308.652 592.1 309.552C592.55 310.437 593.307 311.075 594.372 311.465C595.452 311.855 596.937 312.05 598.827 312.05C599.787 312.05 600.792 311.982 601.842 311.847C602.907 311.697 603.972 311.502 605.037 311.262V316.64C603.732 316.94 602.487 317.15 601.302 317.27C600.132 317.405 598.97 317.473 597.815 317.473ZM610.378 317V292.385H616.296L616.768 294.905H617.106C617.976 293.945 618.988 293.225 620.143 292.745C621.313 292.25 622.603 292.002 624.013 292.002C625.468 292.002 626.773 292.317 627.928 292.947C629.098 293.562 630.013 294.567 630.673 295.962C631.348 297.342 631.686 299.172 631.686 301.452V317H624.666V302.06C624.666 300.59 624.388 299.577 623.833 299.022C623.293 298.452 622.543 298.167 621.583 298.167C621.103 298.167 620.608 298.242 620.098 298.392C619.603 298.542 619.131 298.767 618.681 299.067C618.246 299.367 617.863 299.75 617.533 300.215V317H610.378ZM638.661 317V302.06C638.661 300.59 638.361 299.577 637.761 299.022C637.161 298.452 636.388 298.167 635.443 298.167C634.918 298.167 634.393 298.25 633.868 298.415C633.358 298.565 632.871 298.805 632.406 299.135C631.941 299.465 631.536 299.892 631.191 300.417L629.773 295.76C630.868 294.425 632.106 293.465 633.486 292.88C634.866 292.295 636.253 292.002 637.648 292.002C639.223 292.002 640.626 292.317 641.856 292.947C643.086 293.577 644.053 294.605 644.758 296.03C645.463 297.455 645.816 299.337 645.816 301.677V317H638.661ZM672.207 317.428C669.897 317.428 667.94 316.993 666.335 316.122C664.73 315.237 663.507 313.872 662.667 312.027C661.827 310.167 661.407 307.76 661.407 304.805C661.407 301.85 661.857 299.45 662.757 297.605C663.672 295.745 665 294.38 666.74 293.51C668.48 292.64 670.61 292.205 673.13 292.205C673.985 292.205 674.84 292.257 675.695 292.362C676.55 292.467 677.367 292.625 678.147 292.835V295.895C677.352 295.685 676.565 295.527 675.785 295.422C675.02 295.317 674.262 295.265 673.512 295.265C671.637 295.265 670.077 295.572 668.832 296.187C667.587 296.802 666.657 297.8 666.042 299.18C665.442 300.56 665.142 302.405 665.142 304.715C665.142 307.085 665.427 308.975 665.997 310.385C666.567 311.795 667.415 312.815 668.54 313.445C669.68 314.06 671.075 314.367 672.725 314.367C673.52 314.367 674.352 314.292 675.222 314.142C676.092 313.977 677.067 313.722 678.147 313.377V316.415C677.187 316.76 676.205 317.015 675.2 317.18C674.21 317.345 673.212 317.428 672.207 317.428ZM691.27 317.428C689.17 317.428 687.34 316.993 685.78 316.122C684.22 315.237 683.013 313.872 682.158 312.027C681.303 310.167 680.875 307.76 680.875 304.805C680.875 301.88 681.295 299.487 682.135 297.627C682.99 295.767 684.198 294.402 685.758 293.532C687.318 292.647 689.155 292.205 691.27 292.205C693.385 292.205 695.223 292.647 696.783 293.532C698.343 294.402 699.543 295.767 700.383 297.627C701.238 299.472 701.665 301.865 701.665 304.805C701.665 307.73 701.23 310.122 700.36 311.982C699.505 313.842 698.298 315.215 696.738 316.1C695.193 316.985 693.37 317.428 691.27 317.428ZM691.27 314.502C692.65 314.502 693.843 314.202 694.848 313.602C695.853 313.002 696.625 312.005 697.165 310.61C697.72 309.2 697.998 307.287 697.998 304.872C697.998 302.412 697.72 300.477 697.165 299.067C696.625 297.642 695.845 296.637 694.825 296.052C693.82 295.452 692.635 295.152 691.27 295.152C689.89 295.152 688.698 295.452 687.693 296.052C686.688 296.637 685.908 297.635 685.353 299.045C684.813 300.44 684.543 302.345 684.543 304.76C684.543 307.205 684.813 309.14 685.353 310.565C685.908 311.975 686.688 312.987 687.693 313.602C688.698 314.202 689.89 314.502 691.27 314.502ZM707.163 317V292.587H710.2L710.448 295.332H710.695C711.685 294.327 712.84 293.555 714.16 293.015C715.48 292.475 716.883 292.205 718.368 292.205C719.898 292.205 721.248 292.49 722.418 293.06C723.603 293.615 724.525 294.53 725.185 295.805C725.86 297.065 726.198 298.752 726.198 300.867V317H722.62V301.025C722.62 298.925 722.155 297.47 721.225 296.66C720.31 295.835 719.065 295.422 717.49 295.422C716.77 295.422 716.005 295.527 715.195 295.737C714.385 295.947 713.59 296.292 712.81 296.772C712.045 297.252 711.363 297.89 710.763 298.685V317H707.163ZM742.054 317.428C739.564 317.428 737.629 316.79 736.249 315.515C734.869 314.225 734.179 312.17 734.179 309.35V292.587L734.764 283.7H737.779V308.765C737.779 310.82 738.199 312.26 739.039 313.085C739.894 313.91 741.161 314.322 742.841 314.322C743.291 314.322 743.756 314.292 744.236 314.232C744.716 314.157 745.241 314.06 745.811 313.94V316.977C745.211 317.128 744.596 317.24 743.966 317.315C743.336 317.39 742.699 317.428 742.054 317.428ZM729.589 295.557V292.587H745.451V295.557H729.589ZM755.622 317.405C753.327 317.405 751.52 316.812 750.2 315.627C748.895 314.442 748.242 312.815 748.242 310.745C748.242 308.615 748.94 306.957 750.335 305.772C751.745 304.572 754.002 303.822 757.107 303.522L763.655 302.825L763.992 305.21L757.332 305.93C755.397 306.125 754.002 306.597 753.147 307.347C752.307 308.082 751.887 309.102 751.887 310.407C751.887 311.772 752.277 312.815 753.057 313.535C753.837 314.255 755 314.615 756.545 314.615C757.61 314.615 758.682 314.39 759.762 313.94C760.842 313.475 761.81 312.702 762.665 311.622V300.845C762.665 299.345 762.432 298.19 761.967 297.38C761.502 296.555 760.805 295.977 759.875 295.647C758.945 295.317 757.775 295.152 756.365 295.152C755.45 295.152 754.407 295.235 753.237 295.4C752.082 295.565 750.927 295.842 749.772 296.232V293.285C750.822 292.94 751.977 292.677 753.237 292.497C754.512 292.302 755.712 292.205 756.837 292.205C758.907 292.205 760.632 292.475 762.012 293.015C763.407 293.555 764.45 294.47 765.14 295.76C765.845 297.035 766.197 298.782 766.197 301.002V317H763.182L762.912 314.277H762.687C761.892 315.282 760.872 316.055 759.627 316.595C758.397 317.135 757.062 317.405 755.622 317.405ZM772.729 317V292.587H776.329V317H772.729ZM774.529 287.277C773.719 287.277 773.097 287.082 772.662 286.692C772.242 286.287 772.032 285.732 772.032 285.027C772.032 284.307 772.242 283.745 772.662 283.34C773.097 282.935 773.719 282.732 774.529 282.732C775.339 282.732 775.954 282.935 776.374 283.34C776.809 283.745 777.027 284.307 777.027 285.027C777.027 285.732 776.809 286.287 776.374 286.692C775.954 287.082 775.339 287.277 774.529 287.277ZM783.144 317V292.587H786.182L786.429 295.332H786.677C787.667 294.327 788.822 293.555 790.142 293.015C791.462 292.475 792.864 292.205 794.349 292.205C795.879 292.205 797.229 292.49 798.399 293.06C799.584 293.615 800.507 294.53 801.167 295.805C801.842 297.065 802.179 298.752 802.179 300.867V317H798.602V301.025C798.602 298.925 798.137 297.47 797.207 296.66C796.292 295.835 795.047 295.422 793.472 295.422C792.752 295.422 791.987 295.527 791.177 295.737C790.367 295.947 789.572 296.292 788.792 296.772C788.027 297.252 787.344 297.89 786.744 298.685V317H783.144ZM825.759 317.405C823.464 317.405 821.657 316.812 820.337 315.627C819.032 314.442 818.379 312.815 818.379 310.745C818.379 308.615 819.077 306.957 820.472 305.772C821.882 304.572 824.139 303.822 827.244 303.522L833.792 302.825L834.129 305.21L827.469 305.93C825.534 306.125 824.139 306.597 823.284 307.347C822.444 308.082 822.024 309.102 822.024 310.407C822.024 311.772 822.414 312.815 823.194 313.535C823.974 314.255 825.137 314.615 826.682 314.615C827.747 314.615 828.819 314.39 829.899 313.94C830.979 313.475 831.947 312.702 832.802 311.622V300.845C832.802 299.345 832.569 298.19 832.104 297.38C831.639 296.555 830.942 295.977 830.012 295.647C829.082 295.317 827.912 295.152 826.502 295.152C825.587 295.152 824.544 295.235 823.374 295.4C822.219 295.565 821.064 295.842 819.909 296.232V293.285C820.959 292.94 822.114 292.677 823.374 292.497C824.649 292.302 825.849 292.205 826.974 292.205C829.044 292.205 830.769 292.475 832.149 293.015C833.544 293.555 834.587 294.47 835.277 295.76C835.982 297.035 836.334 298.782 836.334 301.002V317H833.319L833.049 314.277H832.824C832.029 315.282 831.009 316.055 829.764 316.595C828.534 317.135 827.199 317.405 825.759 317.405ZM436.943 373V336.64H440.543V373H436.943ZM457.64 373.428C455.105 373.428 452.975 373 451.25 372.145C449.54 371.275 448.25 369.917 447.38 368.072C446.51 366.212 446.075 363.782 446.075 360.782C446.075 357.917 446.473 355.555 447.268 353.695C448.078 351.835 449.218 350.455 450.688 349.555C452.173 348.655 453.928 348.205 455.953 348.205C457.948 348.205 459.643 348.662 461.038 349.577C462.448 350.477 463.52 351.865 464.255 353.74C464.99 355.6 465.358 357.977 465.358 360.872V361.975H448.033V359.522H462.703L461.915 360.062C461.915 357.782 461.675 355.967 461.195 354.617C460.73 353.267 460.048 352.3 459.148 351.715C458.263 351.115 457.183 350.815 455.908 350.815C454.648 350.815 453.553 351.107 452.623 351.692C451.693 352.277 450.973 353.245 450.463 354.595C449.968 355.945 449.72 357.767 449.72 360.062V361.322C449.72 363.572 450.02 365.372 450.62 366.722C451.235 368.057 452.158 369.025 453.388 369.625C454.618 370.21 456.178 370.502 458.068 370.502C458.998 370.502 459.958 370.42 460.948 370.255C461.953 370.075 463.018 369.827 464.143 369.512V372.46C462.973 372.79 461.855 373.03 460.79 373.18C459.74 373.345 458.69 373.428 457.64 373.428ZM479.7 373.428C477.21 373.428 475.275 372.79 473.895 371.515C472.515 370.225 471.825 368.17 471.825 365.35V348.587L472.41 339.7H475.425V364.765C475.425 366.82 475.845 368.26 476.685 369.085C477.54 369.91 478.808 370.322 480.488 370.322C480.938 370.322 481.403 370.292 481.883 370.232C482.363 370.157 482.888 370.06 483.458 369.94V372.977C482.858 373.128 482.243 373.24 481.613 373.315C480.983 373.39 480.345 373.428 479.7 373.428ZM467.235 351.557V348.587H483.098V351.557H467.235ZM495.257 373.428C492.767 373.428 490.832 372.79 489.452 371.515C488.072 370.225 487.382 368.17 487.382 365.35V348.587L487.967 339.7H490.982V364.765C490.982 366.82 491.402 368.26 492.242 369.085C493.097 369.91 494.364 370.322 496.044 370.322C496.494 370.322 496.959 370.292 497.439 370.232C497.919 370.157 498.444 370.06 499.014 369.94V372.977C498.414 373.128 497.799 373.24 497.169 373.315C496.539 373.39 495.902 373.428 495.257 373.428ZM482.792 351.557V348.587H498.654V351.557H482.792ZM512.792 373.428C510.257 373.428 508.127 373 506.402 372.145C504.692 371.275 503.402 369.917 502.532 368.072C501.662 366.212 501.227 363.782 501.227 360.782C501.227 357.917 501.624 355.555 502.419 353.695C503.229 351.835 504.369 350.455 505.839 349.555C507.324 348.655 509.079 348.205 511.104 348.205C513.099 348.205 514.794 348.662 516.189 349.577C517.599 350.477 518.672 351.865 519.407 353.74C520.142 355.6 520.509 357.977 520.509 360.872V361.975H503.184V359.522H517.854L517.067 360.062C517.067 357.782 516.827 355.967 516.347 354.617C515.882 353.267 515.199 352.3 514.299 351.715C513.414 351.115 512.334 350.815 511.059 350.815C509.799 350.815 508.704 351.107 507.774 351.692C506.844 352.277 506.124 353.245 505.614 354.595C505.119 355.945 504.872 357.767 504.872 360.062V361.322C504.872 363.572 505.172 365.372 505.772 366.722C506.387 368.057 507.309 369.025 508.539 369.625C509.769 370.21 511.329 370.502 513.219 370.502C514.149 370.502 515.109 370.42 516.099 370.255C517.104 370.075 518.169 369.827 519.294 369.512V372.46C518.124 372.79 517.007 373.03 515.942 373.18C514.892 373.345 513.842 373.428 512.792 373.428ZM525.668 373V348.587H528.683L528.976 351.85H529.201C530.041 350.695 531.091 349.825 532.351 349.24C533.626 348.64 534.953 348.34 536.333 348.34C536.708 348.34 537.046 348.355 537.346 348.385C537.661 348.415 537.968 348.46 538.268 348.52V351.85C537.923 351.79 537.578 351.752 537.233 351.737C536.903 351.722 536.543 351.715 536.153 351.715C535.358 351.715 534.526 351.842 533.656 352.097C532.801 352.337 531.991 352.72 531.226 353.245C530.461 353.755 529.808 354.4 529.268 355.18V373H525.668ZM554.535 373V344.897C554.535 343.007 554.865 341.417 555.525 340.127C556.2 338.822 557.197 337.84 558.517 337.18C559.837 336.52 561.465 336.19 563.4 336.19C563.955 336.19 564.51 336.212 565.065 336.257C565.635 336.302 566.19 336.37 566.73 336.46V339.475C566.22 339.385 565.717 339.325 565.222 339.295C564.742 339.25 564.255 339.227 563.76 339.227C561.855 339.227 560.437 339.647 559.507 340.487C558.577 341.327 558.112 342.745 558.112 344.74V373H554.535ZM549.945 351.557V348.587H565.785V351.557H549.945ZM568.779 373V348.587H571.794L572.086 351.85H572.311C573.151 350.695 574.201 349.825 575.461 349.24C576.736 348.64 578.064 348.34 579.444 348.34C579.819 348.34 580.156 348.355 580.456 348.385C580.771 348.415 581.079 348.46 581.379 348.52V351.85C581.034 351.79 580.689 351.752 580.344 351.737C580.014 351.722 579.654 351.715 579.264 351.715C578.469 351.715 577.636 351.842 576.766 352.097C575.911 352.337 575.101 352.72 574.336 353.245C573.571 353.755 572.919 354.4 572.379 355.18V373H568.779ZM593.536 373.428C591.436 373.428 589.606 372.993 588.046 372.122C586.486 371.237 585.278 369.872 584.423 368.027C583.568 366.167 583.141 363.76 583.141 360.805C583.141 357.88 583.561 355.487 584.401 353.627C585.256 351.767 586.463 350.402 588.023 349.532C589.583 348.647 591.421 348.205 593.536 348.205C595.651 348.205 597.488 348.647 599.048 349.532C600.608 350.402 601.808 351.767 602.648 353.627C603.503 355.472 603.931 357.865 603.931 360.805C603.931 363.73 603.496 366.122 602.626 367.982C601.771 369.842 600.563 371.215 599.003 372.1C597.458 372.985 595.636 373.428 593.536 373.428ZM593.536 370.502C594.916 370.502 596.108 370.202 597.113 369.602C598.118 369.002 598.891 368.005 599.431 366.61C599.986 365.2 600.263 363.287 600.263 360.872C600.263 358.412 599.986 356.477 599.431 355.067C598.891 353.642 598.111 352.637 597.091 352.052C596.086 351.452 594.901 351.152 593.536 351.152C592.156 351.152 590.963 351.452 589.958 352.052C588.953 352.637 588.173 353.635 587.618 355.045C587.078 356.44 586.808 358.345 586.808 360.76C586.808 363.205 587.078 365.14 587.618 366.565C588.173 367.975 588.953 368.987 589.958 369.602C590.963 370.202 592.156 370.502 593.536 370.502ZM609.428 373V348.587H612.466L612.713 351.355H612.961C613.891 350.305 614.956 349.517 616.156 348.992C617.371 348.467 618.661 348.205 620.026 348.205C621.376 348.205 622.583 348.482 623.648 349.037C624.713 349.592 625.553 350.5 626.168 351.76C626.783 353.005 627.091 354.677 627.091 356.777V373H623.536V357.002C623.536 354.902 623.123 353.447 622.298 352.637C621.473 351.827 620.386 351.422 619.036 351.422C618.361 351.422 617.656 351.535 616.921 351.76C616.201 351.985 615.503 352.345 614.828 352.84C614.153 353.32 613.553 353.965 613.028 354.775V373H609.428ZM637.441 373V357.002C637.441 354.902 637.006 353.447 636.136 352.637C635.281 351.827 634.178 351.422 632.828 351.422C632.138 351.422 631.403 351.542 630.623 351.782C629.858 352.007 629.108 352.405 628.373 352.975C627.653 353.53 627.023 354.295 626.483 355.27L625.583 352.367C626.768 350.822 628.081 349.742 629.521 349.127C630.961 348.512 632.348 348.205 633.683 348.205C635.093 348.205 636.353 348.49 637.463 349.06C638.573 349.615 639.443 350.522 640.073 351.782C640.718 353.042 641.041 354.73 641.041 356.845V373H637.441ZM667.874 373.428C665.384 373.428 663.449 372.79 662.069 371.515C660.689 370.225 659.999 368.17 659.999 365.35V348.587L660.584 339.7H663.599V364.765C663.599 366.82 664.019 368.26 664.859 369.085C665.714 369.91 666.982 370.322 668.662 370.322C669.112 370.322 669.577 370.292 670.057 370.232C670.537 370.157 671.062 370.06 671.632 369.94V372.977C671.032 373.128 670.417 373.24 669.787 373.315C669.157 373.39 668.519 373.428 667.874 373.428ZM655.409 351.557V348.587H671.272V351.557H655.409ZM675.478 373V336.64H679.078V351.31H679.281C680.271 350.275 681.411 349.502 682.701 348.992C683.991 348.467 685.363 348.205 686.818 348.205C688.303 348.205 689.623 348.49 690.778 349.06C691.948 349.615 692.863 350.522 693.523 351.782C694.183 353.042 694.513 354.73 694.513 356.845V373H690.936V357.002C690.936 354.902 690.463 353.455 689.518 352.66C688.588 351.85 687.351 351.445 685.806 351.445C685.056 351.445 684.276 351.557 683.466 351.782C682.656 351.992 681.868 352.337 681.103 352.817C680.338 353.282 679.663 353.905 679.078 354.685V373H675.478ZM711.337 373.428C708.802 373.428 706.672 373 704.947 372.145C703.237 371.275 701.947 369.917 701.077 368.072C700.207 366.212 699.772 363.782 699.772 360.782C699.772 357.917 700.169 355.555 700.964 353.695C701.774 351.835 702.914 350.455 704.384 349.555C705.869 348.655 707.624 348.205 709.649 348.205C711.644 348.205 713.339 348.662 714.734 349.577C716.144 350.477 717.217 351.865 717.952 353.74C718.687 355.6 719.054 357.977 719.054 360.872V361.975H701.729V359.522H716.399L715.612 360.062C715.612 357.782 715.372 355.967 714.892 354.617C714.427 353.267 713.744 352.3 712.844 351.715C711.959 351.115 710.879 350.815 709.604 350.815C708.344 350.815 707.249 351.107 706.319 351.692C705.389 352.277 704.669 353.245 704.159 354.595C703.664 355.945 703.417 357.767 703.417 360.062V361.322C703.417 363.572 703.717 365.372 704.317 366.722C704.932 368.057 705.854 369.025 707.084 369.625C708.314 370.21 709.874 370.502 711.764 370.502C712.694 370.502 713.654 370.42 714.644 370.255C715.649 370.075 716.714 369.827 717.839 369.512V372.46C716.669 372.79 715.552 373.03 714.487 373.18C713.437 373.345 712.387 373.428 711.337 373.428ZM741.027 373.428C739.797 373.428 738.62 373.345 737.495 373.18C736.385 373.015 735.305 372.767 734.255 372.437V369.557C735.455 369.917 736.602 370.18 737.697 370.345C738.792 370.495 739.902 370.57 741.027 370.57C743.142 370.57 744.672 370.21 745.617 369.49C746.577 368.77 747.057 367.757 747.057 366.452C747.057 365.342 746.772 364.495 746.202 363.91C745.632 363.31 744.665 362.867 743.3 362.582L739.992 361.907C737.772 361.427 736.182 360.64 735.222 359.545C734.277 358.435 733.805 357.01 733.805 355.27C733.805 353.215 734.592 351.527 736.167 350.207C737.757 348.872 740.195 348.205 743.48 348.205C744.53 348.205 745.527 348.265 746.472 348.385C747.432 348.505 748.355 348.685 749.24 348.925V351.827C748.25 351.557 747.297 351.362 746.382 351.242C745.482 351.122 744.537 351.062 743.547 351.062C742.002 351.062 740.765 351.25 739.835 351.625C738.92 351.985 738.26 352.48 737.855 353.11C737.45 353.725 737.247 354.415 737.247 355.18C737.247 356.14 737.517 356.935 738.057 357.565C738.597 358.195 739.542 358.66 740.892 358.96L744.2 359.635C746.45 360.1 748.062 360.865 749.037 361.93C750.027 362.995 750.522 364.442 750.522 366.272C750.522 368.477 749.712 370.225 748.092 371.515C746.487 372.79 744.132 373.428 741.027 373.428ZM765.741 373.428C763.206 373.428 761.076 373 759.351 372.145C757.641 371.275 756.351 369.917 755.481 368.072C754.611 366.212 754.176 363.782 754.176 360.782C754.176 357.917 754.574 355.555 755.369 353.695C756.179 351.835 757.319 350.455 758.789 349.555C760.274 348.655 762.029 348.205 764.054 348.205C766.049 348.205 767.744 348.662 769.139 349.577C770.549 350.477 771.621 351.865 772.356 353.74C773.091 355.6 773.459 357.977 773.459 360.872V361.975H756.134V359.522H770.804L770.016 360.062C770.016 357.782 769.776 355.967 769.296 354.617C768.831 353.267 768.149 352.3 767.249 351.715C766.364 351.115 765.284 350.815 764.009 350.815C762.749 350.815 761.654 351.107 760.724 351.692C759.794 352.277 759.074 353.245 758.564 354.595C758.069 355.945 757.821 357.767 757.821 360.062V361.322C757.821 363.572 758.121 365.372 758.721 366.722C759.336 368.057 760.259 369.025 761.489 369.625C762.719 370.21 764.279 370.502 766.169 370.502C767.099 370.502 768.059 370.42 769.049 370.255C770.054 370.075 771.119 369.827 772.244 369.512V372.46C771.074 372.79 769.956 373.03 768.891 373.18C767.841 373.345 766.791 373.428 765.741 373.428ZM788.135 373.428C785.825 373.428 783.868 372.993 782.263 372.122C780.658 371.237 779.435 369.872 778.595 368.027C777.755 366.167 777.335 363.76 777.335 360.805C777.335 357.85 777.785 355.45 778.685 353.605C779.6 351.745 780.928 350.38 782.668 349.51C784.408 348.64 786.538 348.205 789.058 348.205C789.913 348.205 790.768 348.257 791.623 348.362C792.478 348.467 793.295 348.625 794.075 348.835V351.895C793.28 351.685 792.493 351.527 791.713 351.422C790.948 351.317 790.19 351.265 789.44 351.265C787.565 351.265 786.005 351.572 784.76 352.187C783.515 352.802 782.585 353.8 781.97 355.18C781.37 356.56 781.07 358.405 781.07 360.715C781.07 363.085 781.355 364.975 781.925 366.385C782.495 367.795 783.343 368.815 784.468 369.445C785.608 370.06 787.003 370.367 788.653 370.367C789.448 370.367 790.28 370.292 791.15 370.142C792.02 369.977 792.995 369.722 794.075 369.377V372.415C793.115 372.76 792.133 373.015 791.128 373.18C790.138 373.345 789.14 373.428 788.135 373.428ZM798.349 373V348.587H801.364L801.657 351.85H801.882C802.722 350.695 803.772 349.825 805.032 349.24C806.307 348.64 807.634 348.34 809.014 348.34C809.389 348.34 809.727 348.355 810.027 348.385C810.342 348.415 810.649 348.46 810.949 348.52V351.85C810.604 351.79 810.259 351.752 809.914 351.737C809.584 351.722 809.224 351.715 808.834 351.715C808.039 351.715 807.207 351.842 806.337 352.097C805.482 352.337 804.672 352.72 803.907 353.245C803.142 353.755 802.489 354.4 801.949 355.18V373H798.349ZM824.276 373.428C821.741 373.428 819.611 373 817.886 372.145C816.176 371.275 814.886 369.917 814.016 368.072C813.146 366.212 812.711 363.782 812.711 360.782C812.711 357.917 813.109 355.555 813.904 353.695C814.714 351.835 815.854 350.455 817.324 349.555C818.809 348.655 820.564 348.205 822.589 348.205C824.584 348.205 826.279 348.662 827.674 349.577C829.084 350.477 830.156 351.865 830.891 353.74C831.626 355.6 831.994 357.977 831.994 360.872V361.975H814.669V359.522H829.339L828.551 360.062C828.551 357.782 828.311 355.967 827.831 354.617C827.366 353.267 826.684 352.3 825.784 351.715C824.899 351.115 823.819 350.815 822.544 350.815C821.284 350.815 820.189 351.107 819.259 351.692C818.329 352.277 817.609 353.245 817.099 354.595C816.604 355.945 816.356 357.767 816.356 360.062V361.322C816.356 363.572 816.656 365.372 817.256 366.722C817.871 368.057 818.794 369.025 820.024 369.625C821.254 370.21 822.814 370.502 824.704 370.502C825.634 370.502 826.594 370.42 827.584 370.255C828.589 370.075 829.654 369.827 830.779 369.512V372.46C829.609 372.79 828.491 373.03 827.426 373.18C826.376 373.345 825.326 373.428 824.276 373.428ZM846.336 373.428C843.846 373.428 841.911 372.79 840.531 371.515C839.151 370.225 838.461 368.17 838.461 365.35V348.587L839.046 339.7H842.061V364.765C842.061 366.82 842.481 368.26 843.321 369.085C844.176 369.91 845.444 370.322 847.124 370.322C847.574 370.322 848.039 370.292 848.519 370.232C848.999 370.157 849.524 370.06 850.094 369.94V372.977C849.494 373.128 848.879 373.24 848.249 373.315C847.619 373.39 846.981 373.428 846.336 373.428ZM833.871 351.557V348.587H849.734V351.557H833.871ZM593.31 429L586.155 404.587H589.688L595.785 425.872H595.425L601.793 404.587H606.045L612.413 425.872H612.008L618.128 404.587H621.525L614.415 429H610.163L603.683 407.467H604.088L597.563 429H593.31ZM635.284 429.428C633.184 429.428 631.354 428.993 629.794 428.122C628.234 427.237 627.026 425.872 626.171 424.027C625.316 422.167 624.889 419.76 624.889 416.805C624.889 413.88 625.309 411.487 626.149 409.627C627.004 407.767 628.211 406.402 629.771 405.532C631.331 404.647 633.169 404.205 635.284 404.205C637.399 404.205 639.236 404.647 640.796 405.532C642.356 406.402 643.556 407.767 644.396 409.627C645.251 411.472 645.679 413.865 645.679 416.805C645.679 419.73 645.244 422.122 644.374 423.982C643.519 425.842 642.311 427.215 640.751 428.1C639.206 428.985 637.384 429.428 635.284 429.428ZM635.284 426.502C636.664 426.502 637.856 426.202 638.861 425.602C639.866 425.002 640.639 424.005 641.179 422.61C641.734 421.2 642.011 419.287 642.011 416.872C642.011 414.412 641.734 412.477 641.179 411.067C640.639 409.642 639.859 408.637 638.839 408.052C637.834 407.452 636.649 407.152 635.284 407.152C633.904 407.152 632.711 407.452 631.706 408.052C630.701 408.637 629.921 409.635 629.366 411.045C628.826 412.44 628.556 414.345 628.556 416.76C628.556 419.205 628.826 421.14 629.366 422.565C629.921 423.975 630.701 424.987 631.706 425.602C632.711 426.202 633.904 426.502 635.284 426.502ZM651.176 429V404.587H654.191L654.484 407.85H654.709C655.549 406.695 656.599 405.825 657.859 405.24C659.134 404.64 660.461 404.34 661.841 404.34C662.216 404.34 662.554 404.355 662.854 404.385C663.169 404.415 663.476 404.46 663.776 404.52V407.85C663.431 407.79 663.086 407.752 662.741 407.737C662.411 407.722 662.051 407.715 661.661 407.715C660.866 407.715 660.034 407.842 659.164 408.097C658.309 408.337 657.499 408.72 656.734 409.245C655.969 409.755 655.316 410.4 654.776 411.18V429H651.176ZM675.146 429.428C673.376 429.428 671.763 429.03 670.308 428.235C668.853 427.425 667.691 426.135 666.821 424.365C665.966 422.595 665.538 420.24 665.538 417.3C665.538 414.36 666.003 411.922 666.933 409.987C667.878 408.052 669.266 406.605 671.096 405.645C672.926 404.685 675.176 404.205 677.846 404.205C678.536 404.205 679.226 404.235 679.916 404.295C680.606 404.355 681.243 404.43 681.828 404.52V392.64H685.428V429H682.368L682.121 426.367H681.873C681.153 427.252 680.216 427.987 679.061 428.572C677.921 429.143 676.616 429.428 675.146 429.428ZM675.956 426.322C677.051 426.322 678.123 426.082 679.173 425.602C680.223 425.122 681.108 424.357 681.828 423.307V407.58C681.288 407.445 680.658 407.34 679.938 407.265C679.218 407.19 678.506 407.152 677.801 407.152C674.966 407.152 672.821 407.917 671.366 409.447C669.926 410.977 669.206 413.49 669.206 416.985C669.206 419.385 669.491 421.267 670.061 422.632C670.646 423.982 671.441 424.935 672.446 425.49C673.466 426.045 674.636 426.322 675.956 426.322ZM694.021 429.293C693.241 429.293 692.611 429.067 692.131 428.617C691.666 428.167 691.434 427.56 691.434 426.795C691.434 426.03 691.666 425.422 692.131 424.972C692.596 424.522 693.226 424.297 694.021 424.297C694.801 424.297 695.424 424.53 695.889 424.995C696.369 425.445 696.609 426.045 696.609 426.795C696.609 427.545 696.369 428.152 695.889 428.617C695.409 429.067 694.786 429.293 694.021 429.293Z" fill="#333333"/>
<rect x="910" y="108.518" width="330.971" height="330.971" rx="24.8228" fill="#EAEAEA"/>
<rect x="931.007" y="130.214" width="56.5884" height="56.5884" rx="3.03152" fill="white" stroke="#CCCCCC" stroke-width="2.02101"/>
<path d="M964.108 153.202C963.259 152.737 962.389 152.352 961.499 152.049C960.629 151.745 959.81 151.594 959.042 151.594C958.091 151.594 957.343 151.786 956.796 152.17C956.25 152.554 955.977 153.131 955.977 153.9C955.977 154.425 956.18 154.901 956.584 155.325C957.009 155.73 957.545 156.094 958.192 156.418C958.86 156.741 959.547 157.035 960.255 157.297C960.902 157.54 961.539 157.833 962.166 158.177C962.814 158.501 963.39 158.916 963.896 159.421C964.401 159.907 964.806 160.524 965.109 161.272C965.413 162 965.564 162.9 965.564 163.972C965.564 165.105 965.271 166.156 964.685 167.127C964.098 168.098 963.238 168.887 962.106 169.494C960.973 170.08 959.578 170.374 957.919 170.374C957.07 170.374 956.2 170.293 955.31 170.131C954.44 169.949 953.581 169.686 952.731 169.342C951.882 168.978 951.062 168.523 950.274 167.977L952.215 164.549C952.741 164.933 953.307 165.277 953.914 165.58C954.541 165.863 955.168 166.086 955.795 166.247C956.422 166.409 956.999 166.49 957.525 166.49C958.05 166.49 958.576 166.419 959.102 166.278C959.648 166.116 960.093 165.853 960.437 165.489C960.801 165.125 960.983 164.619 960.983 163.972C960.983 163.527 960.832 163.123 960.528 162.758C960.245 162.394 959.851 162.061 959.345 161.757C958.86 161.454 958.324 161.191 957.737 160.968C957.049 160.706 956.341 160.402 955.613 160.058C954.885 159.714 954.197 159.3 953.55 158.814C952.923 158.309 952.407 157.692 952.003 156.964C951.619 156.215 951.426 155.305 951.426 154.233C951.426 152.939 951.71 151.816 952.276 150.866C952.863 149.915 953.682 149.167 954.733 148.621C955.785 148.054 956.999 147.741 958.374 147.68C960.174 147.68 961.63 147.892 962.743 148.317C963.876 148.742 964.887 149.248 965.777 149.834L964.108 153.202Z" fill="#333333"/>
<path d="M981.831 136.547L979.406 141.203L978.129 140.508C978.236 140.465 978.35 140.433 978.468 140.411C978.598 140.389 978.716 140.379 978.824 140.379C979.201 140.368 979.578 140.411 979.956 140.508C980.333 140.605 980.672 140.778 980.974 141.025C981.287 141.273 981.535 141.613 981.718 142.044C981.912 142.475 982.009 143.025 982.009 143.693C982.009 144.469 981.826 145.138 981.459 145.698C981.104 146.248 980.635 146.668 980.053 146.959C979.471 147.25 978.84 147.396 978.161 147.396C977.633 147.396 977.078 147.288 976.496 147.072C975.914 146.846 975.45 146.55 975.105 146.183L976.302 144.243C976.463 144.448 976.711 144.647 977.045 144.841C977.38 145.035 977.73 145.132 978.096 145.132C978.333 145.132 978.565 145.073 978.792 144.954C979.018 144.836 979.207 144.658 979.357 144.421C979.508 144.184 979.584 143.893 979.584 143.548C979.584 143.073 979.449 142.696 979.18 142.416C978.921 142.136 978.554 141.996 978.08 141.996C977.757 141.996 977.509 142.012 977.336 142.044C977.175 142.066 977.013 142.098 976.851 142.141L976.803 142.076L978.695 138.536L979.374 138.81H975.994V136.547H981.831Z" fill="#333333"/>
<rect x="931.007" y="207.44" width="56.5884" height="56.5884" rx="3.03152" fill="#FFF8B5" stroke="#CCCCCC" stroke-width="2.02101"/>
<path d="M943.378 225.18H948.536L953.299 239.196L952.601 238.893L956.758 228.547L958.791 234.585L952.359 248.389L943.378 225.18ZM954.573 225.18H958.942L964.434 238.741L963.645 238.62L967.741 225.18H972.473L963.857 248.328L954.573 225.18Z" fill="#333333"/>
<path d="M975.332 224.493C976 223.814 976.641 223.162 977.256 222.536C977.87 221.901 978.42 221.292 978.905 220.709C979.401 220.117 979.789 219.545 980.069 218.996C980.36 218.446 980.505 217.912 980.505 217.395C980.505 217.169 980.462 216.964 980.376 216.781C980.301 216.597 980.187 216.441 980.036 216.312C979.896 216.182 979.724 216.085 979.519 216.021C979.325 215.945 979.104 215.908 978.856 215.908C978.608 215.908 978.387 215.945 978.193 216.021C977.999 216.085 977.838 216.177 977.708 216.296C977.579 216.414 977.477 216.544 977.401 216.684C977.336 216.824 977.304 216.969 977.304 217.12C977.304 217.465 977.358 217.772 977.466 218.042C977.584 218.3 977.741 218.532 977.935 218.737L976.496 220.047C976.183 219.896 975.914 219.642 975.687 219.287C975.472 218.931 975.305 218.559 975.186 218.171C975.078 217.772 975.024 217.444 975.024 217.185C975.024 216.592 975.186 216.026 975.509 215.487C975.844 214.948 976.323 214.506 976.948 214.161C977.584 213.816 978.355 213.644 979.26 213.644C980.004 213.644 980.651 213.811 981.201 214.145C981.75 214.479 982.176 214.921 982.478 215.471C982.79 216.01 982.947 216.587 982.947 217.201C982.947 217.686 982.871 218.155 982.72 218.608C982.57 219.06 982.359 219.508 982.09 219.95C981.831 220.381 981.535 220.812 981.201 221.243C980.866 221.663 980.522 222.095 980.166 222.536L979.099 222.229H983.076V224.493H975.332Z" fill="#333333"/>
<rect x="931.007" y="284.667" width="56.5884" height="56.5884" rx="3.03152" fill="#FFF8B5" stroke="#CCCCCC" stroke-width="2.02101"/>
<path d="M967.517 302.254V324.584H963.118V315.513H953.137V324.584H948.737V302.254H953.137V311.265H963.118V302.254H967.517Z" fill="#333333"/>
<path d="M975.332 301.719C976 301.04 976.641 300.388 977.256 299.763C977.87 299.127 978.42 298.518 978.905 297.936C979.401 297.343 979.789 296.772 980.069 296.222C980.36 295.672 980.505 295.139 980.505 294.622C980.505 294.395 980.462 294.19 980.376 294.007C980.301 293.824 980.187 293.668 980.036 293.538C979.896 293.409 979.724 293.312 979.519 293.247C979.325 293.172 979.104 293.134 978.856 293.134C978.608 293.134 978.387 293.172 978.193 293.247C977.999 293.312 977.838 293.404 977.708 293.522C977.579 293.641 977.477 293.77 977.401 293.91C977.336 294.05 977.304 294.196 977.304 294.347C977.304 294.692 977.358 294.999 977.466 295.268C977.584 295.527 977.741 295.759 977.935 295.964L976.496 297.273C976.183 297.122 975.914 296.869 975.687 296.513C975.472 296.158 975.305 295.786 975.186 295.398C975.078 294.999 975.024 294.67 975.024 294.411C975.024 293.819 975.186 293.253 975.509 292.714C975.844 292.175 976.323 291.733 976.948 291.388C977.584 291.043 978.355 290.871 979.26 290.871C980.004 290.871 980.651 291.038 981.201 291.372C981.75 291.706 982.176 292.148 982.478 292.698C982.79 293.236 982.947 293.813 982.947 294.428C982.947 294.913 982.871 295.381 982.72 295.834C982.57 296.287 982.359 296.734 982.09 297.176C981.831 297.607 981.535 298.038 981.201 298.47C980.866 298.89 980.522 299.321 980.166 299.763L979.099 299.456H983.076V301.719H975.332Z" fill="#333333"/>
<rect x="931.007" y="361.893" width="56.5884" height="56.5884" rx="3.03152" fill="#FFF8B5" stroke="#CCCCCC" stroke-width="2.02101"/>
<path d="M958.844 379.742C960.684 379.742 962.242 380.056 963.516 380.683C964.79 381.29 965.761 382.159 966.428 383.292C967.096 384.405 967.43 385.729 967.43 387.267C967.43 388.177 967.288 389.097 967.005 390.027C966.742 390.938 966.307 391.767 965.7 392.515C965.114 393.264 964.315 393.87 963.303 394.336C962.312 394.78 961.089 395.003 959.632 395.003H956.477V402.072H952.078V379.742H958.844ZM959.602 390.725C960.27 390.725 960.826 390.614 961.271 390.391C961.716 390.149 962.06 389.855 962.302 389.512C962.565 389.148 962.747 388.773 962.848 388.389C962.97 388.005 963.03 387.671 963.03 387.388C963.03 387.165 962.99 386.872 962.909 386.508C962.848 386.124 962.707 385.739 962.484 385.355C962.262 384.971 961.918 384.647 961.453 384.384C961.008 384.121 960.401 383.99 959.632 383.99H956.477V390.725H959.602Z" fill="#333333"/>
<path d="M978.846 378.962C978.231 378.962 977.649 378.854 977.099 378.639C976.56 378.423 976.081 378.094 975.66 377.652C975.251 377.2 974.928 376.634 974.69 375.955C974.453 375.265 974.335 374.457 974.335 373.53C974.335 372.495 974.448 371.633 974.674 370.943C974.901 370.242 975.213 369.682 975.612 369.261C976.022 368.841 976.501 368.544 977.051 368.372C977.601 368.189 978.199 368.097 978.846 368.097C979.46 368.097 980.037 368.205 980.576 368.42C981.125 368.636 981.605 368.97 982.015 369.423C982.435 369.865 982.764 370.431 983.001 371.121C983.238 371.8 983.356 372.603 983.356 373.53C983.356 374.489 983.238 375.313 983.001 376.003C982.764 376.693 982.435 377.259 982.015 377.701C981.594 378.132 981.115 378.45 980.576 378.655C980.037 378.86 979.46 378.962 978.846 378.962ZM978.829 376.715C979.368 376.715 979.789 376.575 980.091 376.294C980.392 376.003 980.603 375.61 980.721 375.114C980.85 374.618 980.915 374.069 980.915 373.465C980.915 372.872 980.85 372.344 980.721 371.88C980.603 371.417 980.392 371.05 980.091 370.781C979.789 370.501 979.368 370.361 978.829 370.361C978.301 370.361 977.886 370.501 977.584 370.781C977.283 371.061 977.072 371.438 976.954 371.913C976.835 372.387 976.776 372.921 976.776 373.513C976.776 374.106 976.835 374.645 976.954 375.13C977.072 375.615 977.283 376.003 977.584 376.294C977.886 376.575 978.301 376.715 978.829 376.715Z" fill="#333333"/>
<rect x="1008.23" y="130.214" width="56.5884" height="56.5884" rx="3.03152" fill="white" stroke="#CCCCCC" stroke-width="2.02101"/>
<path d="M1020.6 147.953H1025.76L1030.53 161.97L1029.83 161.666L1033.98 151.321L1036.02 157.358L1029.59 171.162L1020.6 147.953ZM1031.8 147.953H1036.17L1041.66 161.515L1040.87 161.393L1044.97 147.953H1049.7L1041.08 171.102L1031.8 147.953Z" fill="#333333"/>
<path d="M1052.56 147.266C1053.23 146.587 1053.87 145.935 1054.48 145.31C1055.1 144.674 1055.65 144.065 1056.13 143.483C1056.63 142.89 1057.01 142.319 1057.3 141.769C1057.59 141.219 1057.73 140.686 1057.73 140.169C1057.73 139.942 1057.69 139.737 1057.6 139.554C1057.53 139.371 1057.41 139.215 1057.26 139.085C1057.12 138.956 1056.95 138.859 1056.75 138.794C1056.55 138.719 1056.33 138.681 1056.08 138.681C1055.83 138.681 1055.61 138.719 1055.42 138.794C1055.23 138.859 1055.06 138.951 1054.93 139.069C1054.81 139.188 1054.7 139.317 1054.63 139.457C1054.56 139.597 1054.53 139.743 1054.53 139.894C1054.53 140.239 1054.58 140.546 1054.69 140.815C1054.81 141.074 1054.97 141.306 1055.16 141.51L1053.72 142.82C1053.41 142.669 1053.14 142.416 1052.91 142.06C1052.7 141.704 1052.53 141.333 1052.41 140.945C1052.3 140.546 1052.25 140.217 1052.25 139.958C1052.25 139.366 1052.41 138.8 1052.74 138.261C1053.07 137.722 1053.55 137.28 1054.17 136.935C1054.81 136.59 1055.58 136.418 1056.49 136.418C1057.23 136.418 1057.88 136.585 1058.43 136.919C1058.98 137.253 1059.4 137.695 1059.7 138.245C1060.02 138.783 1060.17 139.36 1060.17 139.975C1060.17 140.46 1060.1 140.928 1059.95 141.381C1059.8 141.834 1059.59 142.281 1059.32 142.723C1059.06 143.154 1058.76 143.585 1058.43 144.017C1058.09 144.437 1057.75 144.868 1057.39 145.31L1056.33 145.003H1060.3V147.266H1052.56Z" fill="#333333"/>
<rect x="1008.23" y="207.44" width="56.5884" height="56.5884" rx="3.03152" fill="#FFF8B5" stroke="#CCCCCC" stroke-width="2.02101"/>
<path d="M1034.11 225.028C1035.5 225.028 1036.75 225.21 1037.84 225.574C1038.93 225.918 1039.84 226.423 1040.57 227.091C1041.32 227.738 1041.89 228.527 1042.27 229.457C1042.65 230.368 1042.85 231.399 1042.85 232.552C1042.85 233.462 1042.7 234.372 1042.42 235.282C1042.16 236.193 1041.71 237.022 1041.09 237.77C1040.48 238.519 1039.67 239.125 1038.66 239.591C1037.65 240.036 1036.39 240.258 1034.9 240.258H1031.74V247.357H1027.34V225.028H1034.11ZM1034.87 236.011C1035.53 236.011 1036.09 235.899 1036.54 235.677C1036.98 235.454 1037.32 235.171 1037.57 234.827C1037.83 234.484 1038.01 234.13 1038.11 233.765C1038.23 233.381 1038.3 233.027 1038.3 232.704C1038.3 232.461 1038.25 232.158 1038.17 231.793C1038.11 231.409 1037.97 231.025 1037.75 230.641C1037.53 230.256 1037.18 229.933 1036.72 229.67C1036.27 229.407 1035.67 229.275 1034.9 229.275H1031.74V236.011H1034.87ZM1038.99 238.741L1044.51 247.357H1039.39L1033.74 238.862L1038.99 238.741Z" fill="#333333"/>
<path d="M1052.56 224.493C1053.23 223.814 1053.87 223.162 1054.48 222.536C1055.1 221.901 1055.65 221.292 1056.13 220.709C1056.63 220.117 1057.01 219.545 1057.3 218.996C1057.59 218.446 1057.73 217.912 1057.73 217.395C1057.73 217.169 1057.69 216.964 1057.6 216.781C1057.53 216.597 1057.41 216.441 1057.26 216.312C1057.12 216.182 1056.95 216.085 1056.75 216.021C1056.55 215.945 1056.33 215.908 1056.08 215.908C1055.83 215.908 1055.61 215.945 1055.42 216.021C1055.23 216.085 1055.06 216.177 1054.93 216.296C1054.81 216.414 1054.7 216.544 1054.63 216.684C1054.56 216.824 1054.53 216.969 1054.53 217.12C1054.53 217.465 1054.58 217.772 1054.69 218.042C1054.81 218.3 1054.97 218.532 1055.16 218.737L1053.72 220.047C1053.41 219.896 1053.14 219.642 1052.91 219.287C1052.7 218.931 1052.53 218.559 1052.41 218.171C1052.3 217.772 1052.25 217.444 1052.25 217.185C1052.25 216.592 1052.41 216.026 1052.74 215.487C1053.07 214.948 1053.55 214.506 1054.17 214.161C1054.81 213.816 1055.58 213.644 1056.49 213.644C1057.23 213.644 1057.88 213.811 1058.43 214.145C1058.98 214.479 1059.4 214.921 1059.7 215.471C1060.02 216.01 1060.17 216.587 1060.17 217.201C1060.17 217.686 1060.1 218.155 1059.95 218.608C1059.8 219.06 1059.59 219.508 1059.32 219.95C1059.06 220.381 1058.76 220.812 1058.43 221.243C1058.09 221.663 1057.75 222.095 1057.39 222.536L1056.33 222.229H1060.3V224.493H1052.56Z" fill="#333333"/>
<rect x="1008.23" y="284.667" width="56.5884" height="56.5884" rx="3.03152" fill="white" stroke="#CCCCCC" stroke-width="2.02101"/>
<path d="M1046.65 325.494L1029.72 310.203L1031.02 310.931L1031.11 324.584H1026.65V301.375H1026.84L1043.4 316.605L1042.43 316.18L1042.34 302.254H1046.77V325.494H1046.65Z" fill="#333333"/>
<path d="M1059.06 291L1056.63 295.656L1055.35 294.961C1055.46 294.918 1055.58 294.886 1055.69 294.864C1055.82 294.843 1055.94 294.832 1056.05 294.832C1056.43 294.821 1056.8 294.864 1057.18 294.961C1057.56 295.058 1057.9 295.231 1058.2 295.478C1058.51 295.726 1058.76 296.066 1058.94 296.497C1059.14 296.928 1059.24 297.478 1059.24 298.146C1059.24 298.922 1059.05 299.591 1058.69 300.151C1058.33 300.701 1057.86 301.121 1057.28 301.412C1056.7 301.703 1056.07 301.849 1055.39 301.849C1054.86 301.849 1054.3 301.741 1053.72 301.525C1053.14 301.299 1052.68 301.003 1052.33 300.636L1053.53 298.696C1053.69 298.901 1053.94 299.1 1054.27 299.294C1054.61 299.488 1054.96 299.585 1055.32 299.585C1055.56 299.585 1055.79 299.526 1056.02 299.407C1056.24 299.289 1056.43 299.111 1056.58 298.874C1056.73 298.637 1056.81 298.346 1056.81 298.001C1056.81 297.526 1056.68 297.149 1056.41 296.869C1056.15 296.589 1055.78 296.449 1055.31 296.449C1054.98 296.449 1054.74 296.465 1054.56 296.497C1054.4 296.519 1054.24 296.551 1054.08 296.594L1054.03 296.529L1055.92 292.989L1056.6 293.263H1053.22V291H1059.06Z" fill="#333333"/>
<rect x="1008.23" y="361.893" width="56.5884" height="56.5884" rx="3.03152" fill="#FFF8B5" stroke="#CCCCCC" stroke-width="2.02101"/>
<path d="M1029.3 379.742H1033.7V397.825H1044.2V402.072H1029.3V379.742Z" fill="#333333"/>
<path d="M1052.49 368.226H1055.71V378.946H1053.35V370.49H1052.49V368.226Z" fill="#333333"/>
<rect x="1085.46" y="130.214" width="56.5884" height="56.5884" rx="3.03152" fill="white" stroke="#CCCCCC" stroke-width="2.02101"/>
<path d="M1104.12 170.131L1114.19 146.922H1114.44L1124.51 170.131H1119.41L1112.98 153.808L1116.16 151.624L1108.46 170.131H1104.12ZM1111.01 162.061H1117.71L1119.26 165.762H1109.64L1111.01 162.061Z" fill="#333333"/>
<path d="M1136.28 136.547L1133.86 141.203L1132.58 140.508C1132.69 140.465 1132.8 140.433 1132.92 140.411C1133.05 140.389 1133.17 140.379 1133.28 140.379C1133.65 140.368 1134.03 140.411 1134.41 140.508C1134.79 140.605 1135.13 140.778 1135.43 141.025C1135.74 141.273 1135.99 141.613 1136.17 142.044C1136.37 142.475 1136.46 143.025 1136.46 143.693C1136.46 144.469 1136.28 145.138 1135.91 145.698C1135.56 146.248 1135.09 146.668 1134.51 146.959C1133.92 147.25 1133.29 147.396 1132.61 147.396C1132.09 147.396 1131.53 147.288 1130.95 147.072C1130.37 146.846 1129.9 146.55 1129.56 146.183L1130.75 144.243C1130.92 144.448 1131.16 144.647 1131.5 144.841C1131.83 145.035 1132.18 145.132 1132.55 145.132C1132.79 145.132 1133.02 145.073 1133.24 144.954C1133.47 144.836 1133.66 144.658 1133.81 144.421C1133.96 144.184 1134.04 143.893 1134.04 143.548C1134.04 143.073 1133.9 142.696 1133.63 142.416C1133.37 142.136 1133.01 141.996 1132.53 141.996C1132.21 141.996 1131.96 142.012 1131.79 142.044C1131.63 142.066 1131.47 142.098 1131.3 142.141L1131.26 142.076L1133.15 138.536L1133.83 138.81H1130.45V136.547H1136.28Z" fill="#333333"/>
<rect x="1085.46" y="207.44" width="56.5884" height="56.5884" rx="3.03152" fill="#FFF8B5" stroke="#CCCCCC" stroke-width="2.02101"/>
<path d="M1106.53 225.289H1121.76V229.537H1110.93V234.3H1120.52V238.548H1110.93V243.371H1122.19V247.619H1106.53V225.289Z" fill="#333333"/>
<path d="M1136.28 213.773L1133.86 218.43L1132.58 217.735C1132.69 217.691 1132.8 217.659 1132.92 217.638C1133.05 217.616 1133.17 217.605 1133.28 217.605C1133.65 217.594 1134.03 217.638 1134.41 217.735C1134.79 217.832 1135.13 218.004 1135.43 218.252C1135.74 218.5 1135.99 218.839 1136.17 219.271C1136.37 219.702 1136.46 220.251 1136.46 220.92C1136.46 221.696 1136.28 222.364 1135.91 222.925C1135.56 223.474 1135.09 223.895 1134.51 224.186C1133.92 224.477 1133.29 224.622 1132.61 224.622C1132.09 224.622 1131.53 224.514 1130.95 224.299C1130.37 224.072 1129.9 223.776 1129.56 223.41L1130.75 221.469C1130.92 221.674 1131.16 221.874 1131.5 222.068C1131.83 222.262 1132.18 222.359 1132.55 222.359C1132.79 222.359 1133.02 222.299 1133.24 222.181C1133.47 222.062 1133.66 221.884 1133.81 221.647C1133.96 221.41 1134.04 221.119 1134.04 220.774C1134.04 220.3 1133.9 219.923 1133.63 219.642C1133.37 219.362 1133.01 219.222 1132.53 219.222C1132.21 219.222 1131.96 219.238 1131.79 219.271C1131.63 219.292 1131.47 219.324 1131.3 219.368L1131.26 219.303L1133.15 215.762L1133.83 216.037H1130.45V213.773H1136.28Z" fill="#333333"/>
<rect x="1085.46" y="284.667" width="56.5884" height="56.5884" rx="3.03152" fill="#FFF8B5" stroke="#CCCCCC" stroke-width="2.02101"/>
<path d="M1118.45 307.916C1117.6 307.451 1116.74 307.067 1115.85 306.763C1114.98 306.46 1114.16 306.308 1113.39 306.308C1112.44 306.308 1111.69 306.5 1111.14 306.885C1110.6 307.269 1110.32 307.846 1110.32 308.614C1110.32 309.14 1110.53 309.615 1110.93 310.04C1111.36 310.445 1111.89 310.809 1112.54 311.132C1113.21 311.456 1113.89 311.749 1114.6 312.012C1115.25 312.255 1115.89 312.548 1116.51 312.892C1117.16 313.216 1117.74 313.63 1118.24 314.136C1118.75 314.621 1119.15 315.238 1119.46 315.986C1119.76 316.715 1119.91 317.615 1119.91 318.687C1119.91 319.819 1119.62 320.871 1119.03 321.842C1118.44 322.813 1117.58 323.602 1116.45 324.208C1115.32 324.795 1113.92 325.088 1112.27 325.088C1111.42 325.088 1110.55 325.007 1109.66 324.845C1108.79 324.663 1107.93 324.4 1107.08 324.057C1106.23 323.693 1105.41 323.237 1104.62 322.691L1106.56 319.263C1107.09 319.647 1107.65 319.991 1108.26 320.295C1108.89 320.578 1109.51 320.8 1110.14 320.962C1110.77 321.124 1111.34 321.205 1111.87 321.205C1112.4 321.205 1112.92 321.134 1113.45 320.992C1113.99 320.831 1114.44 320.568 1114.78 320.204C1115.15 319.84 1115.33 319.334 1115.33 318.687C1115.33 318.242 1115.18 317.837 1114.87 317.473C1114.59 317.109 1114.2 316.775 1113.69 316.472C1113.21 316.169 1112.67 315.906 1112.08 315.683C1111.4 315.42 1110.69 315.117 1109.96 314.773C1109.23 314.429 1108.54 314.014 1107.9 313.529C1107.27 313.023 1106.75 312.406 1106.35 311.678C1105.96 310.93 1105.77 310.02 1105.77 308.948C1105.77 307.653 1106.06 306.531 1106.62 305.58C1107.21 304.63 1108.03 303.881 1109.08 303.335C1110.13 302.769 1111.34 302.455 1112.72 302.395C1114.52 302.395 1115.98 302.607 1117.09 303.032C1118.22 303.456 1119.23 303.962 1120.12 304.549L1118.45 307.916Z" fill="#333333"/>
<path d="M1136.28 291L1133.86 295.656L1132.58 294.961C1132.69 294.918 1132.8 294.886 1132.92 294.864C1133.05 294.843 1133.17 294.832 1133.28 294.832C1133.65 294.821 1134.03 294.864 1134.41 294.961C1134.79 295.058 1135.13 295.231 1135.43 295.478C1135.74 295.726 1135.99 296.066 1136.17 296.497C1136.37 296.928 1136.46 297.478 1136.46 298.146C1136.46 298.922 1136.28 299.591 1135.91 300.151C1135.56 300.701 1135.09 301.121 1134.51 301.412C1133.92 301.703 1133.29 301.849 1132.61 301.849C1132.09 301.849 1131.53 301.741 1130.95 301.525C1130.37 301.299 1129.9 301.003 1129.56 300.636L1130.75 298.696C1130.92 298.901 1131.16 299.1 1131.5 299.294C1131.83 299.488 1132.18 299.585 1132.55 299.585C1132.79 299.585 1133.02 299.526 1133.24 299.407C1133.47 299.289 1133.66 299.111 1133.81 298.874C1133.96 298.637 1134.04 298.346 1134.04 298.001C1134.04 297.526 1133.9 297.149 1133.63 296.869C1133.37 296.589 1133.01 296.449 1132.53 296.449C1132.21 296.449 1131.96 296.465 1131.79 296.497C1131.63 296.519 1131.47 296.551 1131.3 296.594L1131.26 296.529L1133.15 292.989L1133.83 293.263H1130.45V291H1136.28Z" fill="#333333"/>
<rect x="1085.46" y="361.893" width="56.5884" height="56.5884" rx="3.03152" fill="#FFF8B5" stroke="#CCCCCC" stroke-width="2.02101"/>
<path d="M1101.14 390.676C1101.14 389.139 1101.43 387.683 1102.02 386.307C1102.6 384.932 1103.41 383.718 1104.44 382.667C1105.49 381.595 1106.71 380.755 1108.08 380.148C1109.46 379.542 1110.94 379.238 1112.51 379.238C1114.07 379.238 1115.54 379.542 1116.91 380.148C1118.29 380.755 1119.5 381.595 1120.55 382.667C1121.62 383.718 1122.45 384.932 1123.04 386.307C1123.65 387.683 1123.95 389.139 1123.95 390.676C1123.95 392.254 1123.65 393.73 1123.04 395.106C1122.45 396.481 1121.62 397.694 1120.55 398.746C1119.5 399.778 1118.29 400.587 1116.91 401.173C1115.54 401.76 1114.07 402.053 1112.51 402.053C1110.94 402.053 1109.46 401.76 1108.08 401.173C1106.71 400.587 1105.49 399.778 1104.44 398.746C1103.41 397.694 1102.6 396.481 1102.02 395.106C1101.43 393.73 1101.14 392.254 1101.14 390.676ZM1105.69 390.676C1105.69 391.667 1105.86 392.598 1106.2 393.467C1106.57 394.317 1107.06 395.075 1107.69 395.743C1108.34 396.39 1109.07 396.896 1109.9 397.26C1110.75 397.624 1111.67 397.806 1112.66 397.806C1113.62 397.806 1114.5 397.624 1115.3 397.26C1116.13 396.896 1116.85 396.39 1117.46 395.743C1118.07 395.075 1118.54 394.317 1118.88 393.467C1119.23 392.598 1119.4 391.667 1119.4 390.676C1119.4 389.665 1119.22 388.724 1118.85 387.855C1118.51 386.985 1118.02 386.226 1117.4 385.579C1116.79 384.912 1116.07 384.396 1115.24 384.032C1114.41 383.668 1113.51 383.486 1112.54 383.486C1111.57 383.486 1110.67 383.668 1109.84 384.032C1109.01 384.396 1108.29 384.912 1107.66 385.579C1107.03 386.226 1106.55 386.985 1106.2 387.855C1105.86 388.724 1105.69 389.665 1105.69 390.676Z" fill="#333333"/>
<path d="M1133.99 378.962C1133.37 378.962 1132.79 378.854 1132.24 378.639C1131.7 378.423 1131.22 378.094 1130.8 377.652C1130.39 377.2 1130.07 376.634 1129.83 375.955C1129.6 375.265 1129.48 374.457 1129.48 373.53C1129.48 372.495 1129.59 371.633 1129.82 370.943C1130.04 370.242 1130.36 369.682 1130.75 369.261C1131.16 368.841 1131.64 368.544 1132.19 368.372C1132.74 368.189 1133.34 368.097 1133.99 368.097C1134.6 368.097 1135.18 368.205 1135.72 368.42C1136.27 368.636 1136.75 368.97 1137.16 369.423C1137.58 369.865 1137.91 370.431 1138.14 371.121C1138.38 371.8 1138.5 372.603 1138.5 373.53C1138.5 374.489 1138.38 375.313 1138.14 376.003C1137.91 376.693 1137.58 377.259 1137.16 377.701C1136.74 378.132 1136.26 378.45 1135.72 378.655C1135.18 378.86 1134.6 378.962 1133.99 378.962ZM1133.97 376.715C1134.51 376.715 1134.93 376.575 1135.23 376.294C1135.54 376.003 1135.75 375.61 1135.86 375.114C1135.99 374.618 1136.06 374.069 1136.06 373.465C1136.06 372.872 1135.99 372.344 1135.86 371.88C1135.75 371.417 1135.54 371.05 1135.23 370.781C1134.93 370.501 1134.51 370.361 1133.97 370.361C1133.44 370.361 1133.03 370.501 1132.73 370.781C1132.43 371.061 1132.22 371.438 1132.1 371.913C1131.98 372.387 1131.92 372.921 1131.92 373.513C1131.92 374.106 1131.98 374.645 1132.1 375.13C1132.22 375.615 1132.43 376.003 1132.73 376.294C1133.03 376.575 1133.44 376.715 1133.97 376.715Z" fill="#333333"/>
<rect x="1162.69" y="130.214" width="56.5884" height="56.5884" rx="3.03152" fill="white" stroke="#CCCCCC" stroke-width="2.02101"/>
<path d="M1199.72 171.041L1182.79 155.75L1184.1 156.478L1184.19 170.131H1179.73V146.922H1179.91L1196.47 162.152L1195.5 161.727L1195.41 147.801H1199.84V171.041H1199.72Z" fill="#333333"/>
<path d="M1206.95 136.547H1210.16V147.266H1207.8V138.81H1206.95V136.547Z" fill="#333333"/>
<rect x="1162.69" y="207.44" width="56.5884" height="56.5884" rx="3.03152" fill="white" stroke="#CCCCCC" stroke-width="2.02101"/>
<path d="M1181.11 247.357V225.028H1187.78C1190.03 225.028 1191.94 225.362 1193.52 226.029C1195.09 226.697 1196.36 227.586 1197.31 228.699C1198.28 229.811 1198.99 231.055 1199.43 232.431C1199.88 233.806 1200.1 235.191 1200.1 236.587C1200.1 238.246 1199.8 239.742 1199.19 241.077C1198.6 242.392 1197.79 243.525 1196.76 244.475C1195.73 245.406 1194.54 246.124 1193.18 246.629C1191.83 247.115 1190.39 247.357 1188.87 247.357H1181.11ZM1185.51 243.11H1188.11C1189.23 243.11 1190.24 242.968 1191.15 242.685C1192.06 242.382 1192.84 241.947 1193.48 241.381C1194.15 240.814 1194.66 240.106 1195 239.257C1195.37 238.387 1195.55 237.396 1195.55 236.284C1195.55 234.827 1195.31 233.644 1194.82 232.734C1194.35 231.804 1193.77 231.086 1193.06 230.58C1192.37 230.074 1191.66 229.73 1190.94 229.548C1190.21 229.346 1189.59 229.245 1189.09 229.245H1185.51V243.11Z" fill="#333333"/>
<path d="M1211.21 224.509C1210.6 224.509 1210.02 224.401 1209.47 224.186C1208.93 223.97 1208.45 223.641 1208.03 223.199C1207.62 222.747 1207.3 222.181 1207.06 221.502C1206.82 220.812 1206.7 220.003 1206.7 219.077C1206.7 218.042 1206.82 217.179 1207.04 216.49C1207.27 215.789 1207.58 215.228 1207.98 214.808C1208.39 214.388 1208.87 214.091 1209.42 213.919C1209.97 213.736 1210.57 213.644 1211.21 213.644C1211.83 213.644 1212.41 213.752 1212.94 213.967C1213.49 214.183 1213.97 214.517 1214.38 214.97C1214.8 215.412 1215.13 215.978 1215.37 216.667C1215.61 217.347 1215.73 218.15 1215.73 219.077C1215.73 220.036 1215.61 220.86 1215.37 221.55C1215.13 222.24 1214.8 222.806 1214.38 223.248C1213.96 223.679 1213.48 223.997 1212.94 224.202C1212.41 224.407 1211.83 224.509 1211.21 224.509ZM1211.2 222.262C1211.74 222.262 1212.16 222.122 1212.46 221.841C1212.76 221.55 1212.97 221.157 1213.09 220.661C1213.22 220.165 1213.28 219.615 1213.28 219.012C1213.28 218.419 1213.22 217.891 1213.09 217.427C1212.97 216.964 1212.76 216.597 1212.46 216.328C1212.16 216.048 1211.74 215.908 1211.2 215.908C1210.67 215.908 1210.26 216.048 1209.95 216.328C1209.65 216.608 1209.44 216.985 1209.32 217.46C1209.2 217.934 1209.14 218.468 1209.14 219.06C1209.14 219.653 1209.2 220.192 1209.32 220.677C1209.44 221.162 1209.65 221.55 1209.95 221.841C1210.26 222.122 1210.67 222.262 1211.2 222.262Z" fill="#333333"/>
<rect x="1162.69" y="284.667" width="56.5884" height="56.5884" rx="3.03152" fill="white" stroke="#CCCCCC" stroke-width="2.02101"/>
<path d="M1185.05 316.332C1185.05 317.04 1185.26 317.717 1185.69 318.364C1186.11 319.012 1186.67 319.538 1187.36 319.942C1188.06 320.347 1188.83 320.549 1189.66 320.549C1190.57 320.549 1191.38 320.347 1192.09 319.942C1192.8 319.538 1193.35 319.012 1193.76 318.364C1194.18 317.717 1194.4 317.04 1194.4 316.332V302.254H1198.73V316.423C1198.73 318.061 1198.33 319.517 1197.52 320.792C1196.71 322.046 1195.62 323.037 1194.24 323.765C1192.87 324.473 1191.34 324.827 1189.66 324.827C1188 324.827 1186.49 324.473 1185.11 323.765C1183.76 323.037 1182.67 322.046 1181.87 320.792C1181.06 319.517 1180.65 318.061 1180.65 316.423V302.254H1185.05V316.332Z" fill="#333333"/>
<path d="M1207.01 301.719C1207.68 301.04 1208.32 300.388 1208.93 299.763C1209.55 299.127 1210.1 298.518 1210.58 297.936C1211.08 297.343 1211.47 296.772 1211.75 296.222C1212.04 295.672 1212.18 295.139 1212.18 294.622C1212.18 294.395 1212.14 294.19 1212.06 294.007C1211.98 293.824 1211.87 293.668 1211.72 293.538C1211.58 293.409 1211.4 293.312 1211.2 293.247C1211 293.172 1210.78 293.134 1210.54 293.134C1210.29 293.134 1210.07 293.172 1209.87 293.247C1209.68 293.312 1209.52 293.404 1209.39 293.522C1209.26 293.641 1209.16 293.77 1209.08 293.91C1209.02 294.05 1208.98 294.196 1208.98 294.347C1208.98 294.692 1209.04 294.999 1209.14 295.268C1209.26 295.527 1209.42 295.759 1209.61 295.964L1208.17 297.273C1207.86 297.122 1207.59 296.869 1207.37 296.513C1207.15 296.158 1206.98 295.786 1206.87 295.398C1206.76 294.999 1206.7 294.67 1206.7 294.411C1206.7 293.819 1206.87 293.253 1207.19 292.714C1207.52 292.175 1208 291.733 1208.63 291.388C1209.26 291.043 1210.03 290.871 1210.94 290.871C1211.68 290.871 1212.33 291.038 1212.88 291.372C1213.43 291.706 1213.86 292.148 1214.16 292.698C1214.47 293.236 1214.63 293.813 1214.63 294.428C1214.63 294.913 1214.55 295.381 1214.4 295.834C1214.25 296.287 1214.04 296.734 1213.77 297.176C1213.51 297.607 1213.21 298.038 1212.88 298.47C1212.55 298.89 1212.2 299.321 1211.85 299.763L1210.78 299.456H1214.76V301.719H1207.01Z" fill="#333333"/>
<rect x="1162.69" y="361.893" width="56.5884" height="56.5884" rx="3.03152" fill="white" stroke="#CCCCCC" stroke-width="2.02101"/>
<path d="M1195.68 385.143C1194.83 384.678 1193.96 384.293 1193.07 383.99C1192.2 383.687 1191.38 383.535 1190.61 383.535C1189.66 383.535 1188.92 383.727 1188.37 384.111C1187.82 384.496 1187.55 385.072 1187.55 385.841C1187.55 386.366 1187.75 386.842 1188.16 387.267C1188.58 387.671 1189.12 388.035 1189.76 388.359C1190.43 388.682 1191.12 388.976 1191.83 389.239C1192.47 389.481 1193.11 389.775 1193.74 390.118C1194.39 390.442 1194.96 390.857 1195.47 391.362C1195.97 391.848 1196.38 392.465 1196.68 393.213C1196.99 393.941 1197.14 394.841 1197.14 395.913C1197.14 397.046 1196.84 398.098 1196.26 399.068C1195.67 400.039 1194.81 400.828 1193.68 401.435C1192.55 402.021 1191.15 402.315 1189.49 402.315C1188.64 402.315 1187.77 402.234 1186.88 402.072C1186.01 401.89 1185.15 401.627 1184.3 401.283C1183.45 400.919 1182.63 400.464 1181.85 399.918L1183.79 396.49C1184.31 396.874 1184.88 397.218 1185.49 397.521C1186.11 397.804 1186.74 398.027 1187.37 398.189C1187.99 398.35 1188.57 398.431 1189.1 398.431C1189.62 398.431 1190.15 398.36 1190.67 398.219C1191.22 398.057 1191.67 397.794 1192.01 397.43C1192.37 397.066 1192.56 396.56 1192.56 395.913C1192.56 395.468 1192.4 395.064 1192.1 394.7C1191.82 394.336 1191.42 394.002 1190.92 393.698C1190.43 393.395 1189.9 393.132 1189.31 392.91C1188.62 392.647 1187.91 392.343 1187.19 391.999C1186.46 391.656 1185.77 391.241 1185.12 390.756C1184.5 390.25 1183.98 389.633 1183.58 388.905C1183.19 388.156 1183 387.246 1183 386.174C1183 384.88 1183.28 383.757 1183.85 382.807C1184.44 381.856 1185.25 381.108 1186.31 380.562C1187.36 379.995 1188.57 379.682 1189.95 379.621C1191.75 379.621 1193.2 379.833 1194.32 380.258C1195.45 380.683 1196.46 381.189 1197.35 381.775L1195.68 385.143Z" fill="#333333"/>
<path d="M1206.95 368.226H1210.16V378.946H1207.8V370.49H1206.95V368.226Z" fill="#333333"/>
</svg>
