<svg width="1284" height="534" viewBox="0 0 1284 534" fill="none" xmlns="http://www.w3.org/2000/svg">
<rect x="402" y="27" width="480" height="480" rx="36" fill="#EAEAEA"/>
<rect x="432.466" y="58.4655" width="82.069" height="82.069" rx="4.39655" fill="#FF8B94" stroke="#CCCCCC" stroke-width="2.93103"/>
<path d="M480.472 91.448C479.24 90.7733 477.979 90.216 476.688 89.776C475.427 89.336 474.239 89.116 473.124 89.116C471.745 89.116 470.66 89.3947 469.868 89.952C469.076 90.5093 468.68 91.3453 468.68 92.46C468.68 93.2227 468.973 93.912 469.56 94.528C470.176 95.1147 470.953 95.6427 471.892 96.112C472.86 96.5813 473.857 97.0067 474.884 97.388C475.823 97.74 476.747 98.1653 477.656 98.664C478.595 99.1333 479.431 99.7347 480.164 100.468C480.897 101.172 481.484 102.067 481.924 103.152C482.364 104.208 482.584 105.513 482.584 107.068C482.584 108.711 482.159 110.236 481.308 111.644C480.457 113.052 479.211 114.196 477.568 115.076C475.925 115.927 473.901 116.352 471.496 116.352C470.264 116.352 469.003 116.235 467.712 116C466.451 115.736 465.204 115.355 463.972 114.856C462.74 114.328 461.552 113.668 460.408 112.876L463.224 107.904C463.987 108.461 464.808 108.96 465.688 109.4C466.597 109.811 467.507 110.133 468.416 110.368C469.325 110.603 470.161 110.72 470.924 110.72C471.687 110.72 472.449 110.617 473.212 110.412C474.004 110.177 474.649 109.796 475.148 109.268C475.676 108.74 475.94 108.007 475.94 107.068C475.94 106.423 475.72 105.836 475.28 105.308C474.869 104.78 474.297 104.296 473.564 103.856C472.86 103.416 472.083 103.035 471.232 102.712C470.235 102.331 469.208 101.891 468.152 101.392C467.096 100.893 466.099 100.292 465.16 99.588C464.251 98.8547 463.503 97.96 462.916 96.904C462.359 95.8187 462.08 94.4987 462.08 92.944C462.08 91.0667 462.491 89.4387 463.312 88.06C464.163 86.6813 465.351 85.596 466.876 84.804C468.401 83.9827 470.161 83.528 472.156 83.44C474.767 83.44 476.879 83.748 478.492 84.364C480.135 84.98 481.601 85.7133 482.892 86.564L480.472 91.448Z" fill="#333333"/>
<path d="M506.175 67.2469L502.658 74L500.805 72.9917C500.962 72.9292 501.126 72.8823 501.298 72.851C501.485 72.8198 501.657 72.8041 501.814 72.8041C502.361 72.7885 502.908 72.851 503.455 72.9917C504.002 73.1324 504.495 73.3825 504.932 73.7421C505.386 74.1016 505.745 74.594 506.011 75.2193C506.292 75.8446 506.433 76.6418 506.433 77.611C506.433 78.7365 506.167 79.7057 505.636 80.5186C505.12 81.3158 504.44 81.9255 503.596 82.3476C502.752 82.7696 501.837 82.9807 500.852 82.9807C500.086 82.9807 499.281 82.8244 498.437 82.5117C497.593 82.1834 496.921 81.7536 496.421 81.2221L498.156 78.4083C498.39 78.7053 498.75 78.9945 499.234 79.2758C499.719 79.5572 500.227 79.6979 500.759 79.6979C501.102 79.6979 501.439 79.6119 501.767 79.44C502.095 79.268 502.369 79.0101 502.587 78.6662C502.806 78.3223 502.916 77.9002 502.916 77.4C502.916 76.7122 502.72 76.165 502.33 75.7586C501.954 75.3522 501.423 75.149 500.735 75.149C500.266 75.149 499.907 75.1724 499.656 75.2193C499.422 75.2506 499.187 75.2975 498.953 75.36L498.883 75.2662L501.626 70.131L502.611 70.5296H497.71V67.2469H506.175Z" fill="#333333"/>
<rect x="432.466" y="170.466" width="82.069" height="82.069" rx="4.39655" fill="#ACF0C8" fill-opacity="0.701961" stroke="#CCCCCC" stroke-width="2.93103"/>
<path d="M450.408 195.836H457.888L464.796 216.164L463.784 215.724L469.812 200.72L472.76 209.476L463.432 229.496L450.408 195.836ZM466.644 195.836H472.98L480.944 215.504L479.8 215.328L485.74 195.836H492.604L480.108 229.408L466.644 195.836Z" fill="#333333"/>
<path d="M496.749 194.793C497.718 193.808 498.648 192.863 499.539 191.956C500.43 191.034 501.227 190.15 501.931 189.306C502.65 188.446 503.213 187.618 503.619 186.821C504.041 186.023 504.252 185.25 504.252 184.499C504.252 184.171 504.19 183.874 504.065 183.608C503.955 183.343 503.791 183.116 503.572 182.928C503.369 182.741 503.119 182.6 502.822 182.506C502.541 182.397 502.22 182.342 501.861 182.342C501.501 182.342 501.181 182.397 500.899 182.506C500.618 182.6 500.383 182.733 500.196 182.905C500.008 183.077 499.86 183.264 499.75 183.468C499.656 183.671 499.61 183.882 499.61 184.101C499.61 184.601 499.688 185.046 499.844 185.437C500.016 185.812 500.243 186.148 500.524 186.446L498.437 188.345C497.984 188.126 497.593 187.759 497.265 187.243C496.952 186.727 496.71 186.188 496.538 185.625C496.382 185.046 496.303 184.57 496.303 184.194C496.303 183.335 496.538 182.514 497.007 181.732C497.491 180.951 498.187 180.31 499.094 179.81C500.016 179.309 501.134 179.059 502.447 179.059C503.525 179.059 504.463 179.302 505.261 179.786C506.058 180.271 506.675 180.912 507.113 181.709C507.566 182.491 507.793 183.327 507.793 184.218C507.793 184.921 507.684 185.601 507.465 186.258C507.246 186.914 506.941 187.563 506.55 188.204C506.175 188.829 505.745 189.455 505.261 190.08C504.776 190.69 504.276 191.315 503.76 191.956L502.212 191.51H507.981V194.793H496.749Z" fill="#333333"/>
<rect x="432.466" y="282.466" width="82.069" height="82.069" rx="4.39655" fill="#FF8B94" stroke="#CCCCCC" stroke-width="2.93103"/>
<path d="M485.416 307.616V340H479.036V326.844H464.56V340H458.18V307.616H464.56V320.684H479.036V307.616H485.416Z" fill="#333333"/>
<path d="M496.749 306.793C497.718 305.808 498.648 304.863 499.539 303.956C500.43 303.034 501.227 302.15 501.931 301.306C502.65 300.446 503.213 299.618 503.619 298.821C504.041 298.023 504.252 297.25 504.252 296.499C504.252 296.171 504.19 295.874 504.065 295.608C503.955 295.343 503.791 295.116 503.572 294.928C503.369 294.741 503.119 294.6 502.822 294.506C502.541 294.397 502.22 294.342 501.861 294.342C501.501 294.342 501.181 294.397 500.899 294.506C500.618 294.6 500.383 294.733 500.196 294.905C500.008 295.077 499.86 295.264 499.75 295.468C499.656 295.671 499.61 295.882 499.61 296.101C499.61 296.601 499.688 297.046 499.844 297.437C500.016 297.812 500.243 298.148 500.524 298.446L498.437 300.345C497.984 300.126 497.593 299.759 497.265 299.243C496.952 298.727 496.71 298.188 496.538 297.625C496.382 297.046 496.303 296.57 496.303 296.194C496.303 295.335 496.538 294.514 497.007 293.732C497.491 292.951 498.187 292.31 499.094 291.81C500.016 291.309 501.134 291.059 502.447 291.059C503.525 291.059 504.463 291.302 505.261 291.786C506.058 292.271 506.675 292.912 507.113 293.709C507.566 294.491 507.793 295.327 507.793 296.218C507.793 296.921 507.684 297.601 507.465 298.258C507.246 298.914 506.941 299.563 506.55 300.204C506.175 300.829 505.745 301.455 505.261 302.08C504.776 302.69 504.276 303.315 503.76 303.956L502.212 303.51H507.981V306.793H496.749Z" fill="#333333"/>
<rect x="432.466" y="394.466" width="82.069" height="82.069" rx="4.39655" fill="#FF8B94" stroke="#CCCCCC" stroke-width="2.93103"/>
<path d="M472.837 419.995C475.506 419.995 477.765 420.45 479.613 421.359C481.461 422.239 482.869 423.501 483.837 425.143C484.805 426.757 485.289 428.678 485.289 430.907C485.289 432.227 485.083 433.562 484.673 434.911C484.291 436.231 483.661 437.434 482.781 438.519C481.93 439.605 480.771 440.485 479.305 441.159C477.867 441.805 476.093 442.127 473.981 442.127H469.405V452.379H463.025V419.995H472.837ZM473.937 435.923C474.905 435.923 475.711 435.762 476.357 435.439C477.002 435.087 477.501 434.662 477.853 434.163C478.234 433.635 478.498 433.093 478.645 432.535C478.821 431.978 478.909 431.494 478.909 431.083C478.909 430.761 478.85 430.335 478.733 429.807C478.645 429.25 478.439 428.693 478.117 428.135C477.794 427.578 477.295 427.109 476.621 426.727C475.975 426.346 475.095 426.155 473.981 426.155H469.405V435.923H473.937Z" fill="#333333"/>
<path d="M501.846 418.817C500.955 418.817 500.11 418.66 499.313 418.348C498.532 418.035 497.836 417.558 497.226 416.917C496.632 416.261 496.163 415.44 495.819 414.455C495.476 413.455 495.304 412.282 495.304 410.938C495.304 409.437 495.468 408.187 495.796 407.186C496.124 406.17 496.578 405.357 497.156 404.748C497.75 404.138 498.446 403.708 499.243 403.458C500.04 403.192 500.908 403.059 501.846 403.059C502.737 403.059 503.573 403.216 504.355 403.528C505.152 403.841 505.848 404.326 506.442 404.982C507.051 405.623 507.528 406.444 507.872 407.444C508.216 408.429 508.388 409.594 508.388 410.938C508.388 412.329 508.216 413.525 507.872 414.526C507.528 415.526 507.051 416.347 506.442 416.988C505.832 417.613 505.136 418.074 504.355 418.371C503.573 418.668 502.737 418.817 501.846 418.817ZM501.822 415.557C502.604 415.557 503.213 415.354 503.651 414.948C504.089 414.526 504.394 413.955 504.566 413.236C504.753 412.517 504.847 411.72 504.847 410.844C504.847 409.984 504.753 409.218 504.566 408.546C504.394 407.874 504.089 407.343 503.651 406.952C503.213 406.545 502.604 406.342 501.822 406.342C501.056 406.342 500.454 406.545 500.017 406.952C499.579 407.358 499.274 407.905 499.102 408.593C498.93 409.281 498.844 410.055 498.844 410.914C498.844 411.774 498.93 412.556 499.102 413.259C499.274 413.963 499.579 414.526 500.017 414.948C500.454 415.354 501.056 415.557 501.822 415.557Z" fill="#333333"/>
<rect x="544.466" y="58.4655" width="82.069" height="82.069" rx="4.39655" fill="#ACF0C8" fill-opacity="0.701961" stroke="#CCCCCC" stroke-width="2.93103"/>
<path d="M562.408 83.836H569.888L576.796 104.164L575.784 103.724L581.812 88.72L584.76 97.476L575.432 117.496L562.408 83.836ZM578.644 83.836H584.98L592.944 103.504L591.8 103.328L597.74 83.836H604.604L592.108 117.408L578.644 83.836Z" fill="#333333"/>
<path d="M608.749 82.7931C609.718 81.8083 610.648 80.8625 611.539 79.9558C612.43 79.0336 613.227 78.1503 613.931 77.3062C614.65 76.4464 615.213 75.6179 615.619 74.8207C616.041 74.0234 616.252 73.2496 616.252 72.4993C616.252 72.171 616.19 71.874 616.065 71.6083C615.955 71.3425 615.791 71.1158 615.572 70.9283C615.369 70.7407 615.119 70.6 614.822 70.5062C614.541 70.3968 614.22 70.3421 613.861 70.3421C613.501 70.3421 613.181 70.3968 612.899 70.5062C612.618 70.6 612.383 70.7329 612.196 70.9048C612.008 71.0768 611.86 71.2644 611.75 71.4676C611.656 71.6708 611.61 71.8818 611.61 72.1007C611.61 72.6009 611.688 73.0464 611.844 73.4372C612.016 73.8124 612.243 74.1485 612.524 74.4455L610.437 76.3448C609.984 76.126 609.593 75.7586 609.265 75.2427C608.952 74.7269 608.71 74.1876 608.538 73.6248C608.382 73.0464 608.303 72.5696 608.303 72.1945C608.303 71.3347 608.538 70.514 609.007 69.7324C609.491 68.9508 610.187 68.3099 611.094 67.8096C612.016 67.3094 613.134 67.0593 614.447 67.0593C615.525 67.0593 616.463 67.3016 617.261 67.7862C618.058 68.2708 618.675 68.9117 619.113 69.709C619.566 70.4906 619.793 71.3269 619.793 72.2179C619.793 72.9214 619.684 73.6014 619.465 74.2579C619.246 74.9145 618.941 75.5632 618.55 76.2041C618.175 76.8294 617.745 77.4547 617.261 78.08C616.776 78.6896 616.276 79.3149 615.76 79.9558L614.212 79.5103H619.981V82.7931H608.749Z" fill="#333333"/>
<rect x="544.466" y="170.466" width="82.069" height="82.069" rx="4.39655" fill="#ACF0C8" fill-opacity="0.701961" stroke="#CCCCCC" stroke-width="2.93103"/>
<path d="M581.992 195.616C584.016 195.616 585.82 195.88 587.404 196.408C588.988 196.907 590.308 197.64 591.364 198.608C592.449 199.547 593.271 200.691 593.828 202.04C594.385 203.36 594.664 204.856 594.664 206.528C594.664 207.848 594.459 209.168 594.048 210.488C593.667 211.808 593.021 213.011 592.112 214.096C591.232 215.181 590.059 216.061 588.592 216.736C587.125 217.381 585.307 217.704 583.136 217.704H578.56V228H572.18V195.616H581.992ZM583.092 211.544C584.06 211.544 584.867 211.383 585.512 211.06C586.157 210.737 586.656 210.327 587.008 209.828C587.389 209.329 587.653 208.816 587.8 208.288C587.976 207.731 588.064 207.217 588.064 206.748C588.064 206.396 588.005 205.956 587.888 205.428C587.8 204.871 587.595 204.313 587.272 203.756C586.949 203.199 586.451 202.729 585.776 202.348C585.131 201.967 584.251 201.776 583.136 201.776H578.56V211.544H583.092ZM589.076 215.504L597.084 228H589.648L581.464 215.68L589.076 215.504Z" fill="#333333"/>
<path d="M608.749 194.793C609.718 193.808 610.648 192.863 611.539 191.956C612.43 191.034 613.227 190.15 613.931 189.306C614.65 188.446 615.213 187.618 615.619 186.821C616.041 186.023 616.252 185.25 616.252 184.499C616.252 184.171 616.19 183.874 616.065 183.608C615.955 183.343 615.791 183.116 615.572 182.928C615.369 182.741 615.119 182.6 614.822 182.506C614.541 182.397 614.22 182.342 613.861 182.342C613.501 182.342 613.181 182.397 612.899 182.506C612.618 182.6 612.383 182.733 612.196 182.905C612.008 183.077 611.86 183.264 611.75 183.468C611.656 183.671 611.61 183.882 611.61 184.101C611.61 184.601 611.688 185.046 611.844 185.437C612.016 185.812 612.243 186.148 612.524 186.446L610.437 188.345C609.984 188.126 609.593 187.759 609.265 187.243C608.952 186.727 608.71 186.188 608.538 185.625C608.382 185.046 608.303 184.57 608.303 184.194C608.303 183.335 608.538 182.514 609.007 181.732C609.491 180.951 610.187 180.31 611.094 179.81C612.016 179.309 613.134 179.059 614.447 179.059C615.525 179.059 616.463 179.302 617.261 179.786C618.058 180.271 618.675 180.912 619.113 181.709C619.566 182.491 619.793 183.327 619.793 184.218C619.793 184.921 619.684 185.601 619.465 186.258C619.246 186.914 618.941 187.563 618.55 188.204C618.175 188.829 617.745 189.455 617.261 190.08C616.776 190.69 616.276 191.315 615.76 191.956L614.212 191.51H619.981V194.793H608.749Z" fill="#333333"/>
<rect x="544.466" y="282.466" width="82.069" height="82.069" rx="4.39655" fill="#FF8B94" stroke="#CCCCCC" stroke-width="2.93103"/>
<path d="M600.176 341.32L575.624 319.144L577.516 320.2L577.648 340H571.18V306.34H571.444L595.468 328.428L594.06 327.812L593.928 307.616H600.352V341.32H600.176Z" fill="#333333"/>
<path d="M618.175 291.247L614.658 298L612.805 296.992C612.962 296.929 613.126 296.882 613.298 296.851C613.485 296.82 613.657 296.804 613.814 296.804C614.361 296.788 614.908 296.851 615.455 296.992C616.002 297.132 616.495 297.383 616.932 297.742C617.386 298.102 617.745 298.594 618.011 299.219C618.292 299.845 618.433 300.642 618.433 301.611C618.433 302.737 618.167 303.706 617.636 304.519C617.12 305.316 616.44 305.926 615.596 306.348C614.752 306.77 613.837 306.981 612.852 306.981C612.086 306.981 611.281 306.824 610.437 306.512C609.593 306.183 608.921 305.754 608.421 305.222L610.156 302.408C610.39 302.705 610.75 302.994 611.234 303.276C611.719 303.557 612.227 303.698 612.759 303.698C613.102 303.698 613.439 303.612 613.767 303.44C614.095 303.268 614.369 303.01 614.587 302.666C614.806 302.322 614.916 301.9 614.916 301.4C614.916 300.712 614.72 300.165 614.33 299.759C613.954 299.352 613.423 299.149 612.735 299.149C612.266 299.149 611.907 299.172 611.656 299.219C611.422 299.251 611.187 299.297 610.953 299.36L610.883 299.266L613.626 294.131L614.611 294.53H609.71V291.247H618.175Z" fill="#333333"/>
<rect x="544.466" y="394.466" width="82.069" height="82.069" rx="4.39655" fill="#FF8B94" stroke="#CCCCCC" stroke-width="2.93103"/>
<path d="M575.025 419.995H581.405V446.219H596.629V452.379H575.025V419.995Z" fill="#333333"/>
<path d="M608.655 403.247H613.321V418.793H609.898V406.53H608.655V403.247Z" fill="#333333"/>
<rect x="656.466" y="58.4655" width="82.069" height="82.069" rx="4.39655" fill="#FF8B94" stroke="#CCCCCC" stroke-width="2.93103"/>
<path d="M683.528 116L698.136 82.34H698.488L713.096 116H705.704L696.376 92.328L700.996 89.16L689.82 116H683.528ZM693.516 104.296H703.24L705.484 109.664H691.536L693.516 104.296Z" fill="#333333"/>
<path d="M730.175 67.2469L726.658 74L724.805 72.9917C724.962 72.9292 725.126 72.8823 725.298 72.851C725.485 72.8198 725.657 72.8041 725.814 72.8041C726.361 72.7885 726.908 72.851 727.455 72.9917C728.002 73.1324 728.495 73.3825 728.932 73.7421C729.386 74.1016 729.745 74.594 730.011 75.2193C730.292 75.8446 730.433 76.6418 730.433 77.611C730.433 78.7365 730.167 79.7057 729.636 80.5186C729.12 81.3158 728.44 81.9255 727.596 82.3476C726.752 82.7696 725.837 82.9807 724.852 82.9807C724.086 82.9807 723.281 82.8244 722.437 82.5117C721.593 82.1834 720.921 81.7536 720.421 81.2221L722.156 78.4083C722.39 78.7053 722.75 78.9945 723.234 79.2758C723.719 79.5572 724.227 79.6979 724.759 79.6979C725.102 79.6979 725.439 79.6119 725.767 79.44C726.095 79.268 726.369 79.0101 726.587 78.6662C726.806 78.3223 726.916 77.9002 726.916 77.4C726.916 76.7122 726.72 76.165 726.33 75.7586C725.954 75.3522 725.423 75.149 724.735 75.149C724.266 75.149 723.907 75.1724 723.656 75.2193C723.422 75.2506 723.187 75.2975 722.953 75.36L722.883 75.2662L725.626 70.131L726.611 70.5296H721.71V67.2469H730.175Z" fill="#333333"/>
<rect x="656.466" y="170.466" width="82.069" height="82.069" rx="4.39655" fill="#FF8B94" stroke="#CCCCCC" stroke-width="2.93103"/>
<path d="M687.025 195.995H709.113V202.155H693.405V209.063H707.309V215.223H693.405V222.219H709.729V228.379H687.025V195.995Z" fill="#333333"/>
<path d="M730.175 179.247L726.658 186L724.805 184.992C724.962 184.929 725.126 184.882 725.298 184.851C725.485 184.82 725.657 184.804 725.814 184.804C726.361 184.788 726.908 184.851 727.455 184.992C728.002 185.132 728.495 185.383 728.932 185.742C729.386 186.102 729.745 186.594 730.011 187.219C730.292 187.845 730.433 188.642 730.433 189.611C730.433 190.737 730.167 191.706 729.636 192.519C729.12 193.316 728.44 193.926 727.596 194.348C726.752 194.77 725.837 194.981 724.852 194.981C724.086 194.981 723.281 194.824 722.437 194.512C721.593 194.183 720.921 193.754 720.421 193.222L722.156 190.408C722.39 190.705 722.75 190.994 723.234 191.276C723.719 191.557 724.227 191.698 724.759 191.698C725.102 191.698 725.439 191.612 725.767 191.44C726.095 191.268 726.369 191.01 726.587 190.666C726.806 190.322 726.916 189.9 726.916 189.4C726.916 188.712 726.72 188.165 726.33 187.759C725.954 187.352 725.423 187.149 724.735 187.149C724.266 187.149 723.907 187.172 723.656 187.219C723.422 187.251 723.187 187.297 722.953 187.36L722.883 187.266L725.626 182.131L726.611 182.53H721.71V179.247H730.175Z" fill="#333333"/>
<rect x="656.466" y="282.466" width="82.069" height="82.069" rx="4.39655" fill="#FF8B94" stroke="#CCCCCC" stroke-width="2.93103"/>
<path d="M704.317 315.827C703.085 315.153 701.823 314.595 700.533 314.155C699.271 313.715 698.083 313.495 696.969 313.495C695.59 313.495 694.505 313.774 693.713 314.331C692.921 314.889 692.525 315.725 692.525 316.839C692.525 317.602 692.818 318.291 693.405 318.907C694.021 319.494 694.798 320.022 695.737 320.491C696.705 320.961 697.702 321.386 698.729 321.767C699.667 322.119 700.591 322.545 701.501 323.043C702.439 323.513 703.275 324.114 704.009 324.847C704.742 325.551 705.329 326.446 705.769 327.531C706.209 328.587 706.429 329.893 706.429 331.447C706.429 333.09 706.003 334.615 705.153 336.023C704.302 337.431 703.055 338.575 701.413 339.455C699.77 340.306 697.746 340.731 695.341 340.731C694.109 340.731 692.847 340.614 691.557 340.379C690.295 340.115 689.049 339.734 687.817 339.235C686.585 338.707 685.397 338.047 684.253 337.255L687.069 332.283C687.831 332.841 688.653 333.339 689.533 333.779C690.442 334.19 691.351 334.513 692.261 334.747C693.17 334.982 694.006 335.099 694.769 335.099C695.531 335.099 696.294 334.997 697.057 334.791C697.849 334.557 698.494 334.175 698.993 333.647C699.521 333.119 699.785 332.386 699.785 331.447C699.785 330.802 699.565 330.215 699.125 329.687C698.714 329.159 698.142 328.675 697.409 328.235C696.705 327.795 695.927 327.414 695.077 327.091C694.079 326.71 693.053 326.27 691.997 325.771C690.941 325.273 689.943 324.671 689.005 323.967C688.095 323.234 687.347 322.339 686.761 321.283C686.203 320.198 685.925 318.878 685.925 317.323C685.925 315.446 686.335 313.818 687.157 312.439C688.007 311.061 689.195 309.975 690.721 309.183C692.246 308.362 694.006 307.907 696.001 307.819C698.611 307.819 700.723 308.127 702.337 308.743C703.979 309.359 705.446 310.093 706.737 310.943L704.317 315.827Z" fill="#333333"/>
<path d="M730.175 291.247L726.658 298L724.805 296.992C724.962 296.929 725.126 296.882 725.298 296.851C725.485 296.82 725.657 296.804 725.814 296.804C726.361 296.788 726.908 296.851 727.455 296.992C728.002 297.132 728.495 297.383 728.932 297.742C729.386 298.102 729.745 298.594 730.011 299.219C730.292 299.845 730.433 300.642 730.433 301.611C730.433 302.737 730.167 303.706 729.636 304.519C729.12 305.316 728.44 305.926 727.596 306.348C726.752 306.77 725.837 306.981 724.852 306.981C724.086 306.981 723.281 306.824 722.437 306.512C721.593 306.183 720.921 305.754 720.421 305.222L722.156 302.408C722.39 302.705 722.75 302.994 723.234 303.276C723.719 303.557 724.227 303.698 724.759 303.698C725.102 303.698 725.439 303.612 725.767 303.44C726.095 303.268 726.369 303.01 726.587 302.666C726.806 302.322 726.916 301.9 726.916 301.4C726.916 300.712 726.72 300.165 726.33 299.759C725.954 299.352 725.423 299.149 724.735 299.149C724.266 299.149 723.907 299.172 723.656 299.219C723.422 299.251 723.187 299.297 722.953 299.36L722.883 299.266L725.626 294.131L726.611 294.53H721.71V291.247H730.175Z" fill="#333333"/>
<rect x="656.466" y="394.466" width="82.069" height="82.069" rx="4.39655" fill="#ACF0C8" fill-opacity="0.701961" stroke="#CCCCCC" stroke-width="2.93103"/>
<path d="M679.2 435.852C679.2 433.623 679.625 431.511 680.476 429.516C681.327 427.521 682.5 425.761 683.996 424.236C685.521 422.681 687.281 421.464 689.276 420.584C691.271 419.704 693.412 419.264 695.7 419.264C697.959 419.264 700.085 419.704 702.08 420.584C704.075 421.464 705.835 422.681 707.36 424.236C708.915 425.761 710.117 427.521 710.968 429.516C711.848 431.511 712.288 433.623 712.288 435.852C712.288 438.14 711.848 440.281 710.968 442.276C710.117 444.271 708.915 446.031 707.36 447.556C705.835 449.052 704.075 450.225 702.08 451.076C700.085 451.927 697.959 452.352 695.7 452.352C693.412 452.352 691.271 451.927 689.276 451.076C687.281 450.225 685.521 449.052 683.996 447.556C682.5 446.031 681.327 444.271 680.476 442.276C679.625 440.281 679.2 438.14 679.2 435.852ZM685.8 435.852C685.8 437.289 686.049 438.639 686.548 439.9C687.076 441.132 687.795 442.232 688.704 443.2C689.643 444.139 690.713 444.872 691.916 445.4C693.148 445.928 694.483 446.192 695.92 446.192C697.299 446.192 698.575 445.928 699.748 445.4C700.951 444.872 701.992 444.139 702.872 443.2C703.752 442.232 704.441 441.132 704.94 439.9C705.439 438.639 705.688 437.289 705.688 435.852C705.688 434.385 705.424 433.021 704.896 431.76C704.397 430.499 703.693 429.399 702.784 428.46C701.904 427.492 700.863 426.744 699.66 426.216C698.457 425.688 697.152 425.424 695.744 425.424C694.336 425.424 693.031 425.688 691.828 426.216C690.625 426.744 689.569 427.492 688.66 428.46C687.751 429.399 687.047 430.499 686.548 431.76C686.049 433.021 685.8 434.385 685.8 435.852Z" fill="#333333"/>
<path d="M726.845 418.817C725.954 418.817 725.11 418.66 724.313 418.348C723.531 418.035 722.836 417.558 722.226 416.917C721.632 416.261 721.163 415.44 720.819 414.455C720.475 413.455 720.303 412.282 720.303 410.938C720.303 409.437 720.467 408.187 720.796 407.186C721.124 406.17 721.577 405.357 722.156 404.748C722.75 404.138 723.445 403.708 724.243 403.458C725.04 403.192 725.907 403.059 726.845 403.059C727.736 403.059 728.573 403.216 729.354 403.528C730.152 403.841 730.847 404.326 731.441 404.982C732.051 405.623 732.528 406.444 732.872 407.444C733.216 408.429 733.387 409.594 733.387 410.938C733.387 412.329 733.216 413.525 732.872 414.526C732.528 415.526 732.051 416.347 731.441 416.988C730.832 417.613 730.136 418.074 729.354 418.371C728.573 418.668 727.736 418.817 726.845 418.817ZM726.822 415.557C727.604 415.557 728.213 415.354 728.651 414.948C729.089 414.526 729.393 413.955 729.565 413.236C729.753 412.517 729.847 411.72 729.847 410.844C729.847 409.984 729.753 409.218 729.565 408.546C729.393 407.874 729.089 407.343 728.651 406.952C728.213 406.545 727.604 406.342 726.822 406.342C726.056 406.342 725.454 406.545 725.016 406.952C724.579 407.358 724.274 407.905 724.102 408.593C723.93 409.281 723.844 410.055 723.844 410.914C723.844 411.774 723.93 412.556 724.102 413.259C724.274 413.963 724.579 414.526 725.016 414.948C725.454 415.354 726.056 415.557 726.822 415.557Z" fill="#333333"/>
<rect x="768.466" y="58.4655" width="82.069" height="82.069" rx="4.39655" fill="#FF8B94" stroke="#CCCCCC" stroke-width="2.93103"/>
<path d="M822.176 117.32L797.624 95.144L799.516 96.2L799.648 116H793.18V82.34H793.444L817.468 104.428L816.06 103.812L815.928 83.616H822.352V117.32H822.176Z" fill="#333333"/>
<path d="M832.655 67.2469H837.321V82.7931H833.898V70.5296H832.655V67.2469Z" fill="#333333"/>
<rect x="768.466" y="170.466" width="82.069" height="82.069" rx="4.39655" fill="#ACF0C8" fill-opacity="0.701961" stroke="#CCCCCC" stroke-width="2.93103"/>
<path d="M795.18 228V195.616H804.86C808.116 195.616 810.888 196.1 813.176 197.068C815.464 198.036 817.297 199.327 818.676 200.94C820.084 202.553 821.111 204.357 821.756 206.352C822.401 208.347 822.724 210.356 822.724 212.38C822.724 214.785 822.284 216.956 821.404 218.892C820.553 220.799 819.38 222.441 817.884 223.82C816.388 225.169 814.657 226.211 812.692 226.944C810.727 227.648 808.644 228 806.444 228H795.18ZM801.56 221.84H805.344C806.957 221.84 808.424 221.635 809.744 221.224C811.064 220.784 812.193 220.153 813.132 219.332C814.1 218.511 814.833 217.484 815.332 216.252C815.86 214.991 816.124 213.553 816.124 211.94C816.124 209.828 815.772 208.112 815.068 206.792C814.393 205.443 813.543 204.401 812.516 203.668C811.519 202.935 810.492 202.436 809.436 202.172C808.38 201.879 807.485 201.732 806.752 201.732H801.56V221.84Z" fill="#333333"/>
<path d="M838.845 194.817C837.954 194.817 837.11 194.66 836.313 194.348C835.531 194.035 834.836 193.558 834.226 192.917C833.632 192.261 833.163 191.44 832.819 190.455C832.475 189.455 832.303 188.282 832.303 186.938C832.303 185.437 832.467 184.187 832.796 183.186C833.124 182.17 833.577 181.357 834.156 180.748C834.75 180.138 835.445 179.708 836.243 179.458C837.04 179.192 837.907 179.059 838.845 179.059C839.736 179.059 840.573 179.216 841.354 179.528C842.152 179.841 842.847 180.326 843.441 180.982C844.051 181.623 844.528 182.444 844.872 183.444C845.216 184.429 845.387 185.594 845.387 186.938C845.387 188.329 845.216 189.525 844.872 190.526C844.528 191.526 844.051 192.347 843.441 192.988C842.832 193.613 842.136 194.074 841.354 194.371C840.573 194.668 839.736 194.817 838.845 194.817ZM838.822 191.557C839.604 191.557 840.213 191.354 840.651 190.948C841.089 190.526 841.393 189.955 841.565 189.236C841.753 188.517 841.847 187.72 841.847 186.844C841.847 185.984 841.753 185.218 841.565 184.546C841.393 183.874 841.089 183.343 840.651 182.952C840.213 182.545 839.604 182.342 838.822 182.342C838.056 182.342 837.454 182.545 837.016 182.952C836.579 183.358 836.274 183.905 836.102 184.593C835.93 185.281 835.844 186.055 835.844 186.914C835.844 187.774 835.93 188.556 836.102 189.259C836.274 189.963 836.579 190.526 837.016 190.948C837.454 191.354 838.056 191.557 838.822 191.557Z" fill="#333333"/>
<rect x="768.466" y="282.466" width="82.069" height="82.069" rx="4.39655" fill="#FF8B94" stroke="#CCCCCC" stroke-width="2.93103"/>
<path d="M800.9 328.032C800.9 329.059 801.208 330.041 801.824 330.98C802.44 331.919 803.247 332.681 804.244 333.268C805.271 333.855 806.385 334.148 807.588 334.148C808.908 334.148 810.081 333.855 811.108 333.268C812.135 332.681 812.941 331.919 813.528 330.98C814.144 330.041 814.452 329.059 814.452 328.032V307.616H820.744V328.164C820.744 330.54 820.157 332.652 818.984 334.5C817.811 336.319 816.227 337.756 814.232 338.812C812.237 339.839 810.023 340.352 807.588 340.352C805.183 340.352 802.983 339.839 800.988 338.812C799.023 337.756 797.453 336.319 796.28 334.5C795.107 332.652 794.52 330.54 794.52 328.164V307.616H800.9V328.032Z" fill="#333333"/>
<path d="M832.749 306.793C833.718 305.808 834.648 304.863 835.539 303.956C836.43 303.034 837.227 302.15 837.931 301.306C838.65 300.446 839.213 299.618 839.619 298.821C840.041 298.023 840.252 297.25 840.252 296.499C840.252 296.171 840.19 295.874 840.065 295.608C839.955 295.343 839.791 295.116 839.572 294.928C839.369 294.741 839.119 294.6 838.822 294.506C838.541 294.397 838.22 294.342 837.861 294.342C837.501 294.342 837.181 294.397 836.899 294.506C836.618 294.6 836.383 294.733 836.196 294.905C836.008 295.077 835.86 295.264 835.75 295.468C835.656 295.671 835.61 295.882 835.61 296.101C835.61 296.601 835.688 297.046 835.844 297.437C836.016 297.812 836.243 298.148 836.524 298.446L834.437 300.345C833.984 300.126 833.593 299.759 833.265 299.243C832.952 298.727 832.71 298.188 832.538 297.625C832.382 297.046 832.303 296.57 832.303 296.194C832.303 295.335 832.538 294.514 833.007 293.732C833.491 292.951 834.187 292.31 835.094 291.81C836.016 291.309 837.134 291.059 838.447 291.059C839.525 291.059 840.463 291.302 841.261 291.786C842.058 292.271 842.675 292.912 843.113 293.709C843.566 294.491 843.793 295.327 843.793 296.218C843.793 296.921 843.684 297.601 843.465 298.258C843.246 298.914 842.941 299.563 842.55 300.204C842.175 300.829 841.745 301.455 841.261 302.08C840.776 302.69 840.276 303.315 839.76 303.956L838.212 303.51H843.981V306.793H832.749Z" fill="#333333"/>
<rect x="768.466" y="394.466" width="82.069" height="82.069" rx="4.39655" fill="#FF8B94" stroke="#CCCCCC" stroke-width="2.93103"/>
<path d="M816.317 427.827C815.085 427.153 813.823 426.595 812.533 426.155C811.271 425.715 810.083 425.495 808.969 425.495C807.59 425.495 806.505 425.774 805.713 426.331C804.921 426.889 804.525 427.725 804.525 428.839C804.525 429.602 804.818 430.291 805.405 430.907C806.021 431.494 806.798 432.022 807.737 432.491C808.705 432.961 809.702 433.386 810.729 433.767C811.667 434.119 812.591 434.545 813.501 435.043C814.439 435.513 815.275 436.114 816.009 436.847C816.742 437.551 817.329 438.446 817.769 439.531C818.209 440.587 818.429 441.893 818.429 443.447C818.429 445.09 818.003 446.615 817.153 448.023C816.302 449.431 815.055 450.575 813.413 451.455C811.77 452.306 809.746 452.731 807.341 452.731C806.109 452.731 804.847 452.614 803.557 452.379C802.295 452.115 801.049 451.734 799.817 451.235C798.585 450.707 797.397 450.047 796.253 449.255L799.069 444.283C799.831 444.841 800.653 445.339 801.533 445.779C802.442 446.19 803.351 446.513 804.261 446.747C805.17 446.982 806.006 447.099 806.769 447.099C807.531 447.099 808.294 446.997 809.057 446.791C809.849 446.557 810.494 446.175 810.993 445.647C811.521 445.119 811.785 444.386 811.785 443.447C811.785 442.802 811.565 442.215 811.125 441.687C810.714 441.159 810.142 440.675 809.409 440.235C808.705 439.795 807.927 439.414 807.077 439.091C806.079 438.71 805.053 438.27 803.997 437.771C802.941 437.273 801.943 436.671 801.005 435.967C800.095 435.234 799.347 434.339 798.761 433.283C798.203 432.198 797.925 430.878 797.925 429.323C797.925 427.446 798.335 425.818 799.157 424.439C800.007 423.061 801.195 421.975 802.721 421.183C804.246 420.362 806.006 419.907 808.001 419.819C810.611 419.819 812.723 420.127 814.337 420.743C815.979 421.359 817.446 422.093 818.737 422.943L816.317 427.827Z" fill="#333333"/>
<path d="M832.655 403.247H837.321V418.793H833.898V406.53H832.655V403.247Z" fill="#333333"/>
</svg>
