<svg width="1284" height="534" viewBox="0 0 1284 534" fill="none" xmlns="http://www.w3.org/2000/svg">
<path d="M279.472 55.448C278.24 54.7733 276.979 54.216 275.688 53.776C274.427 53.336 273.239 53.116 272.124 53.116C270.745 53.116 269.66 53.3947 268.868 53.952C268.076 54.5093 267.68 55.3453 267.68 56.46C267.68 57.2227 267.973 57.912 268.56 58.528C269.176 59.1147 269.953 59.6427 270.892 60.112C271.86 60.5813 272.857 61.0067 273.884 61.388C274.823 61.74 275.747 62.1653 276.656 62.664C277.595 63.1333 278.431 63.7347 279.164 64.468C279.897 65.172 280.484 66.0667 280.924 67.152C281.364 68.208 281.584 69.5133 281.584 71.068C281.584 72.7107 281.159 74.236 280.308 75.644C279.457 77.052 278.211 78.196 276.568 79.076C274.925 79.9267 272.901 80.352 270.496 80.352C269.264 80.352 268.003 80.2347 266.712 80C265.451 79.736 264.204 79.3547 262.972 78.856C261.74 78.328 260.552 77.668 259.408 76.876L262.224 71.904C262.987 72.4613 263.808 72.96 264.688 73.4C265.597 73.8107 266.507 74.1333 267.416 74.368C268.325 74.6027 269.161 74.72 269.924 74.72C270.687 74.72 271.449 74.6173 272.212 74.412C273.004 74.1773 273.649 73.796 274.148 73.268C274.676 72.74 274.94 72.0067 274.94 71.068C274.94 70.4227 274.72 69.836 274.28 69.308C273.869 68.78 273.297 68.296 272.564 67.856C271.86 67.416 271.083 67.0347 270.232 66.712C269.235 66.3307 268.208 65.8907 267.152 65.392C266.096 64.8933 265.099 64.292 264.16 63.588C263.251 62.8547 262.503 61.96 261.916 60.904C261.359 59.8187 261.08 58.4987 261.08 56.944C261.08 55.0667 261.491 53.4387 262.312 52.06C263.163 50.6813 264.351 49.596 265.876 48.804C267.401 47.9827 269.161 47.528 271.156 47.44C273.767 47.44 275.879 47.748 277.492 48.364C279.135 48.98 280.601 49.7133 281.892 50.564L279.472 55.448ZM296.28 80.528C293.934 80.528 291.939 80.088 290.296 79.208C288.683 78.328 287.451 77.1107 286.6 75.556C285.75 74.0013 285.324 72.212 285.324 70.188C285.324 68.252 285.823 66.5067 286.82 64.952C287.818 63.3973 289.152 62.1653 290.824 61.256C292.496 60.3173 294.359 59.848 296.412 59.848C299.17 59.848 301.428 60.6547 303.188 62.268C304.978 63.852 306.136 66.1547 306.664 69.176L291.704 73.928L290.34 70.584L301.164 66.932L299.888 67.504C299.654 66.7413 299.228 66.0813 298.612 65.524C298.026 64.9373 297.131 64.644 295.928 64.644C295.019 64.644 294.212 64.864 293.508 65.304C292.834 65.7147 292.306 66.316 291.924 67.108C291.572 67.8707 291.396 68.78 291.396 69.836C291.396 71.0387 291.616 72.0507 292.056 72.872C292.496 73.664 293.098 74.2653 293.86 74.676C294.623 75.0867 295.474 75.292 296.412 75.292C297.087 75.292 297.732 75.1747 298.348 74.94C298.994 74.7053 299.624 74.3973 300.24 74.016L302.968 78.592C301.942 79.1787 300.827 79.648 299.624 80C298.451 80.352 297.336 80.528 296.28 80.528ZM327.465 78.284C326.614 78.9587 325.543 79.5013 324.253 79.912C322.991 80.3227 321.745 80.528 320.513 80.528C318.313 80.528 316.391 80.132 314.749 79.34C313.135 78.5187 311.874 77.36 310.965 75.864C310.085 74.3387 309.645 72.5053 309.645 70.364C309.645 68.2227 310.129 66.404 311.097 64.908C312.065 63.3827 313.326 62.224 314.881 61.432C316.465 60.64 318.122 60.244 319.853 60.244C321.583 60.244 323.079 60.4787 324.341 60.948C325.631 61.4173 326.731 62.0333 327.641 62.796L324.649 66.756C324.238 66.4333 323.666 66.1107 322.933 65.788C322.229 65.436 321.393 65.26 320.425 65.26C319.574 65.26 318.797 65.48 318.093 65.92C317.389 66.36 316.831 66.9613 316.421 67.724C316.01 68.4867 315.805 69.3667 315.805 70.364C315.805 71.3027 316.025 72.168 316.465 72.96C316.905 73.752 317.506 74.3827 318.269 74.852C319.061 75.292 319.985 75.512 321.041 75.512C321.715 75.512 322.331 75.424 322.889 75.248C323.475 75.0427 323.974 74.764 324.385 74.412L327.465 78.284ZM337.739 60.772L338.311 66.052L338.179 65.26C338.737 64.116 339.499 63.148 340.467 62.356C341.435 61.5347 342.389 60.904 343.327 60.464C344.295 60.024 345.029 59.804 345.527 59.804L345.219 65.964C343.782 65.788 342.55 66.0227 341.523 66.668C340.497 67.3133 339.705 68.164 339.147 69.22C338.59 70.276 338.311 71.3613 338.311 72.476V80H332.195V60.772H337.739ZM358.843 80.528C356.496 80.528 354.502 80.088 352.859 79.208C351.246 78.328 350.014 77.1107 349.163 75.556C348.312 74.0013 347.887 72.212 347.887 70.188C347.887 68.252 348.386 66.5067 349.383 64.952C350.38 63.3973 351.715 62.1653 353.387 61.256C355.059 60.3173 356.922 59.848 358.975 59.848C361.732 59.848 363.991 60.6547 365.751 62.268C367.54 63.852 368.699 66.1547 369.227 69.176L354.267 73.928L352.903 70.584L363.727 66.932L362.451 67.504C362.216 66.7413 361.791 66.0813 361.175 65.524C360.588 64.9373 359.694 64.644 358.491 64.644C357.582 64.644 356.775 64.864 356.071 65.304C355.396 65.7147 354.868 66.316 354.487 67.108C354.135 67.8707 353.959 68.78 353.959 69.836C353.959 71.0387 354.179 72.0507 354.619 72.872C355.059 73.664 355.66 74.2653 356.423 74.676C357.186 75.0867 358.036 75.292 358.975 75.292C359.65 75.292 360.295 75.1747 360.911 74.94C361.556 74.7053 362.187 74.3973 362.803 74.016L365.531 78.592C364.504 79.1787 363.39 79.648 362.187 80C361.014 80.352 359.899 80.528 358.843 80.528ZM375.507 52.324H381.667V60.684H386.331V65.48H381.667V80H375.507V65.48H372.515V60.684H375.507V52.324ZM419.056 60.772L423.28 70.672L422.136 70.76L425.832 60.772H431.816L423.148 81.144L416.988 68.384L411.356 81.144L402.6 60.772H408.584L413.248 71.464L411.136 71.156L414.832 62.972L413.82 60.772H419.056ZM433.266 70.144C433.266 68.1787 433.72 66.4187 434.63 64.864C435.568 63.3093 436.874 62.092 438.546 61.212C440.218 60.3027 442.139 59.848 444.31 59.848C446.51 59.848 448.416 60.3027 450.03 61.212C451.643 62.092 452.875 63.3093 453.726 64.864C454.606 66.4187 455.046 68.1787 455.046 70.144C455.046 72.1093 454.606 73.884 453.726 75.468C452.875 77.0227 451.643 78.2547 450.03 79.164C448.416 80.0733 446.48 80.528 444.222 80.528C442.11 80.528 440.218 80.1173 438.546 79.296C436.903 78.4747 435.612 77.2867 434.674 75.732C433.735 74.1773 433.266 72.3147 433.266 70.144ZM439.47 70.188C439.47 71.1853 439.675 72.0947 440.086 72.916C440.496 73.708 441.054 74.3387 441.758 74.808C442.462 75.2773 443.254 75.512 444.134 75.512C445.102 75.512 445.938 75.2773 446.642 74.808C447.346 74.3387 447.888 73.708 448.27 72.916C448.651 72.0947 448.842 71.1853 448.842 70.188C448.842 69.1613 448.651 68.252 448.27 67.46C447.888 66.668 447.346 66.0373 446.642 65.568C445.938 65.0987 445.102 64.864 444.134 64.864C443.254 64.864 442.462 65.0987 441.758 65.568C441.054 66.0373 440.496 66.668 440.086 67.46C439.675 68.252 439.47 69.1613 439.47 70.188ZM465.442 60.772L466.014 66.052L465.882 65.26C466.44 64.116 467.202 63.148 468.17 62.356C469.138 61.5347 470.092 60.904 471.03 60.464C471.998 60.024 472.732 59.804 473.23 59.804L472.922 65.964C471.485 65.788 470.253 66.0227 469.226 66.668C468.2 67.3133 467.408 68.164 466.85 69.22C466.293 70.276 466.014 71.3613 466.014 72.476V80H459.898V60.772H465.442ZM484.918 80.528C483.129 80.528 481.53 80.1173 480.122 79.296C478.714 78.4453 477.599 77.228 476.778 75.644C475.986 74.06 475.59 72.1827 475.59 70.012C475.59 67.8413 476.03 65.9933 476.91 64.468C477.79 62.9427 478.993 61.784 480.518 60.992C482.043 60.2 483.774 59.804 485.71 59.804C486.942 59.804 488.115 59.9947 489.23 60.376C490.374 60.7573 491.327 61.344 492.09 62.136V64.072V45.284H498.206V80H492.046V76.26L492.53 77.58C491.533 78.4013 490.418 79.1053 489.186 79.692C487.954 80.2493 486.531 80.528 484.918 80.528ZM486.942 75.336C487.763 75.336 488.482 75.2333 489.098 75.028C489.743 74.7933 490.301 74.4707 490.77 74.06C491.269 73.62 491.694 73.0773 492.046 72.432V67.724C491.811 67.0787 491.445 66.536 490.946 66.096C490.477 65.6267 489.89 65.2747 489.186 65.04C488.511 64.776 487.763 64.644 486.942 64.644C486.033 64.644 485.182 64.8787 484.39 65.348C483.627 65.788 483.011 66.404 482.542 67.196C482.073 67.988 481.838 68.8973 481.838 69.924C481.838 70.9507 482.073 71.8747 482.542 72.696C483.011 73.5173 483.627 74.1627 484.39 74.632C485.182 75.1013 486.033 75.336 486.942 75.336ZM502.035 64.292C502.035 63.3827 502.358 62.62 503.003 62.004C503.678 61.388 504.411 61.08 505.203 61.08C505.936 61.08 506.626 61.388 507.271 62.004C507.946 62.62 508.283 63.3827 508.283 64.292C508.283 65.26 507.946 66.0373 507.271 66.624C506.626 67.1813 505.936 67.46 505.203 67.46C504.411 67.46 503.678 67.1813 503.003 66.624C502.358 66.0373 502.035 65.26 502.035 64.292ZM502.035 76.832C502.035 75.9227 502.358 75.16 503.003 74.544C503.678 73.928 504.411 73.62 505.203 73.62C505.936 73.62 506.626 73.928 507.271 74.544C507.946 75.16 508.283 75.9227 508.283 76.832C508.283 77.8 507.946 78.5773 507.271 79.164C506.626 79.7213 505.936 80 505.203 80C504.411 80 503.678 79.7213 503.003 79.164C502.358 78.5773 502.035 77.8 502.035 76.832ZM528.035 74.676H545.987V80H528.035V74.676ZM569.285 74.676H587.237V80H569.285V74.676ZM610.535 74.676H628.487V80H610.535V74.676ZM651.785 74.676H669.737V80H651.785V74.676Z" fill="#333333"/>
<path d="M279.472 130.448C278.24 129.773 276.979 129.216 275.688 128.776C274.427 128.336 273.239 128.116 272.124 128.116C270.745 128.116 269.66 128.395 268.868 128.952C268.076 129.509 267.68 130.345 267.68 131.46C267.68 132.223 267.973 132.912 268.56 133.528C269.176 134.115 269.953 134.643 270.892 135.112C271.86 135.581 272.857 136.007 273.884 136.388C274.823 136.74 275.747 137.165 276.656 137.664C277.595 138.133 278.431 138.735 279.164 139.468C279.897 140.172 280.484 141.067 280.924 142.152C281.364 143.208 281.584 144.513 281.584 146.068C281.584 147.711 281.159 149.236 280.308 150.644C279.457 152.052 278.211 153.196 276.568 154.076C274.925 154.927 272.901 155.352 270.496 155.352C269.264 155.352 268.003 155.235 266.712 155C265.451 154.736 264.204 154.355 262.972 153.856C261.74 153.328 260.552 152.668 259.408 151.876L262.224 146.904C262.987 147.461 263.808 147.96 264.688 148.4C265.597 148.811 266.507 149.133 267.416 149.368C268.325 149.603 269.161 149.72 269.924 149.72C270.687 149.72 271.449 149.617 272.212 149.412C273.004 149.177 273.649 148.796 274.148 148.268C274.676 147.74 274.94 147.007 274.94 146.068C274.94 145.423 274.72 144.836 274.28 144.308C273.869 143.78 273.297 143.296 272.564 142.856C271.86 142.416 271.083 142.035 270.232 141.712C269.235 141.331 268.208 140.891 267.152 140.392C266.096 139.893 265.099 139.292 264.16 138.588C263.251 137.855 262.503 136.96 261.916 135.904C261.359 134.819 261.08 133.499 261.08 131.944C261.08 130.067 261.491 128.439 262.312 127.06C263.163 125.681 264.351 124.596 265.876 123.804C267.401 122.983 269.161 122.528 271.156 122.44C273.767 122.44 275.879 122.748 277.492 123.364C279.135 123.98 280.601 124.713 281.892 125.564L279.472 130.448ZM296.28 155.528C293.934 155.528 291.939 155.088 290.296 154.208C288.683 153.328 287.451 152.111 286.6 150.556C285.75 149.001 285.324 147.212 285.324 145.188C285.324 143.252 285.823 141.507 286.82 139.952C287.818 138.397 289.152 137.165 290.824 136.256C292.496 135.317 294.359 134.848 296.412 134.848C299.17 134.848 301.428 135.655 303.188 137.268C304.978 138.852 306.136 141.155 306.664 144.176L291.704 148.928L290.34 145.584L301.164 141.932L299.888 142.504C299.654 141.741 299.228 141.081 298.612 140.524C298.026 139.937 297.131 139.644 295.928 139.644C295.019 139.644 294.212 139.864 293.508 140.304C292.834 140.715 292.306 141.316 291.924 142.108C291.572 142.871 291.396 143.78 291.396 144.836C291.396 146.039 291.616 147.051 292.056 147.872C292.496 148.664 293.098 149.265 293.86 149.676C294.623 150.087 295.474 150.292 296.412 150.292C297.087 150.292 297.732 150.175 298.348 149.94C298.994 149.705 299.624 149.397 300.24 149.016L302.968 153.592C301.942 154.179 300.827 154.648 299.624 155C298.451 155.352 297.336 155.528 296.28 155.528ZM311.141 120.284H317.301V155H311.141V120.284ZM333.105 155.528C330.758 155.528 328.763 155.088 327.121 154.208C325.507 153.328 324.275 152.111 323.425 150.556C322.574 149.001 322.149 147.212 322.149 145.188C322.149 143.252 322.647 141.507 323.645 139.952C324.642 138.397 325.977 137.165 327.649 136.256C329.321 135.317 331.183 134.848 333.237 134.848C335.994 134.848 338.253 135.655 340.013 137.268C341.802 138.852 342.961 141.155 343.489 144.176L328.529 148.928L327.165 145.584L337.989 141.932L336.713 142.504C336.478 141.741 336.053 141.081 335.437 140.524C334.85 139.937 333.955 139.644 332.753 139.644C331.843 139.644 331.037 139.864 330.333 140.304C329.658 140.715 329.13 141.316 328.749 142.108C328.397 142.871 328.221 143.78 328.221 144.836C328.221 146.039 328.441 147.051 328.881 147.872C329.321 148.664 329.922 149.265 330.685 149.676C331.447 150.087 332.298 150.292 333.237 150.292C333.911 150.292 334.557 150.175 335.173 149.94C335.818 149.705 336.449 149.397 337.065 149.016L339.793 153.592C338.766 154.179 337.651 154.648 336.449 155C335.275 155.352 334.161 155.528 333.105 155.528ZM364.289 153.284C363.438 153.959 362.368 154.501 361.077 154.912C359.816 155.323 358.569 155.528 357.337 155.528C355.137 155.528 353.216 155.132 351.573 154.34C349.96 153.519 348.698 152.36 347.789 150.864C346.909 149.339 346.469 147.505 346.469 145.364C346.469 143.223 346.953 141.404 347.921 139.908C348.889 138.383 350.15 137.224 351.705 136.432C353.289 135.64 354.946 135.244 356.677 135.244C358.408 135.244 359.904 135.479 361.165 135.948C362.456 136.417 363.556 137.033 364.465 137.796L361.473 141.756C361.062 141.433 360.49 141.111 359.757 140.788C359.053 140.436 358.217 140.26 357.249 140.26C356.398 140.26 355.621 140.48 354.917 140.92C354.213 141.36 353.656 141.961 353.245 142.724C352.834 143.487 352.629 144.367 352.629 145.364C352.629 146.303 352.849 147.168 353.289 147.96C353.729 148.752 354.33 149.383 355.093 149.852C355.885 150.292 356.809 150.512 357.865 150.512C358.54 150.512 359.156 150.424 359.713 150.248C360.3 150.043 360.798 149.764 361.209 149.412L364.289 153.284ZM370.824 127.324H376.984V135.684H381.648V140.48H376.984V155H370.824V140.48H367.832V135.684H370.824V127.324ZM395.796 155.528C393.449 155.528 391.455 155.088 389.812 154.208C388.199 153.328 386.967 152.111 386.116 150.556C385.265 149.001 384.84 147.212 384.84 145.188C384.84 143.252 385.339 141.507 386.336 139.952C387.333 138.397 388.668 137.165 390.34 136.256C392.012 135.317 393.875 134.848 395.928 134.848C398.685 134.848 400.944 135.655 402.704 137.268C404.493 138.852 405.652 141.155 406.18 144.176L391.22 148.928L389.856 145.584L400.68 141.932L399.404 142.504C399.169 141.741 398.744 141.081 398.128 140.524C397.541 139.937 396.647 139.644 395.444 139.644C394.535 139.644 393.728 139.864 393.024 140.304C392.349 140.715 391.821 141.316 391.44 142.108C391.088 142.871 390.912 143.78 390.912 144.836C390.912 146.039 391.132 147.051 391.572 147.872C392.012 148.664 392.613 149.265 393.376 149.676C394.139 150.087 394.989 150.292 395.928 150.292C396.603 150.292 397.248 150.175 397.864 149.94C398.509 149.705 399.14 149.397 399.756 149.016L402.484 153.592C401.457 154.179 400.343 154.648 399.14 155C397.967 155.352 396.852 155.528 395.796 155.528ZM418.488 155.528C416.699 155.528 415.1 155.117 413.692 154.296C412.284 153.445 411.17 152.228 410.348 150.644C409.556 149.06 409.16 147.183 409.16 145.012C409.16 142.841 409.6 140.993 410.48 139.468C411.36 137.943 412.563 136.784 414.088 135.992C415.614 135.2 417.344 134.804 419.28 134.804C420.512 134.804 421.686 134.995 422.8 135.376C423.944 135.757 424.898 136.344 425.66 137.136V139.072V120.284H431.776V155H425.616V151.26L426.1 152.58C425.103 153.401 423.988 154.105 422.756 154.692C421.524 155.249 420.102 155.528 418.488 155.528ZM420.512 150.336C421.334 150.336 422.052 150.233 422.668 150.028C423.314 149.793 423.871 149.471 424.34 149.06C424.839 148.62 425.264 148.077 425.616 147.432V142.724C425.382 142.079 425.015 141.536 424.516 141.096C424.047 140.627 423.46 140.275 422.756 140.04C422.082 139.776 421.334 139.644 420.512 139.644C419.603 139.644 418.752 139.879 417.96 140.348C417.198 140.788 416.582 141.404 416.112 142.196C415.643 142.988 415.408 143.897 415.408 144.924C415.408 145.951 415.643 146.875 416.112 147.696C416.582 148.517 417.198 149.163 417.96 149.632C418.752 150.101 419.603 150.336 420.512 150.336ZM452.422 120.284H458.582V155H452.422V120.284ZM474.386 155.528C472.039 155.528 470.044 155.088 468.402 154.208C466.788 153.328 465.556 152.111 464.706 150.556C463.855 149.001 463.43 147.212 463.43 145.188C463.43 143.252 463.928 141.507 464.926 139.952C465.923 138.397 467.258 137.165 468.93 136.256C470.602 135.317 472.464 134.848 474.518 134.848C477.275 134.848 479.534 135.655 481.294 137.268C483.083 138.852 484.242 141.155 484.77 144.176L469.81 148.928L468.446 145.584L479.27 141.932L477.994 142.504C477.759 141.741 477.334 141.081 476.718 140.524C476.131 139.937 475.236 139.644 474.034 139.644C473.124 139.644 472.318 139.864 471.614 140.304C470.939 140.715 470.411 141.316 470.03 142.108C469.678 142.871 469.502 143.78 469.502 144.836C469.502 146.039 469.722 147.051 470.162 147.872C470.602 148.664 471.203 149.265 471.966 149.676C472.728 150.087 473.579 150.292 474.518 150.292C475.192 150.292 475.838 150.175 476.454 149.94C477.099 149.705 477.73 149.397 478.346 149.016L481.074 153.592C480.047 154.179 478.932 154.648 477.73 155C476.556 155.352 475.442 155.528 474.386 155.528ZM491.05 127.324H497.21V135.684H501.874V140.48H497.21V155H491.05V140.48H488.058V135.684H491.05V127.324ZM508.367 127.324H514.527V135.684H519.191V140.48H514.527V155H508.367V140.48H505.375V135.684H508.367V127.324ZM533.339 155.528C530.992 155.528 528.998 155.088 527.355 154.208C525.742 153.328 524.51 152.111 523.659 150.556C522.808 149.001 522.383 147.212 522.383 145.188C522.383 143.252 522.882 141.507 523.879 139.952C524.876 138.397 526.211 137.165 527.883 136.256C529.555 135.317 531.418 134.848 533.471 134.848C536.228 134.848 538.487 135.655 540.247 137.268C542.036 138.852 543.195 141.155 543.723 144.176L528.763 148.928L527.399 145.584L538.223 141.932L536.947 142.504C536.712 141.741 536.287 141.081 535.671 140.524C535.084 139.937 534.19 139.644 532.987 139.644C532.078 139.644 531.271 139.864 530.567 140.304C529.892 140.715 529.364 141.316 528.983 142.108C528.631 142.871 528.455 143.78 528.455 144.836C528.455 146.039 528.675 147.051 529.115 147.872C529.555 148.664 530.156 149.265 530.919 149.676C531.682 150.087 532.532 150.292 533.471 150.292C534.146 150.292 534.791 150.175 535.407 149.94C536.052 149.705 536.683 149.397 537.299 149.016L540.027 153.592C539 154.179 537.886 154.648 536.683 155C535.51 155.352 534.395 155.528 533.339 155.528ZM553.743 135.772L554.315 141.052L554.183 140.26C554.741 139.116 555.503 138.148 556.471 137.356C557.439 136.535 558.393 135.904 559.331 135.464C560.299 135.024 561.033 134.804 561.531 134.804L561.223 140.964C559.786 140.788 558.554 141.023 557.527 141.668C556.501 142.313 555.709 143.164 555.151 144.22C554.594 145.276 554.315 146.361 554.315 147.476V155H548.199V135.772H553.743ZM572.494 155.396C570.91 155.396 569.429 155.117 568.05 154.56C566.701 154.003 565.557 153.225 564.618 152.228L567.17 148.84C568.109 149.691 568.974 150.307 569.766 150.688C570.587 151.04 571.321 151.216 571.966 151.216C572.465 151.216 572.905 151.172 573.286 151.084C573.697 150.967 574.019 150.805 574.254 150.6C574.489 150.365 574.606 150.072 574.606 149.72C574.606 149.221 574.401 148.825 573.99 148.532C573.609 148.239 573.11 148.004 572.494 147.828C571.878 147.623 571.218 147.417 570.514 147.212C568.754 146.655 567.478 145.848 566.686 144.792C565.923 143.707 565.542 142.533 565.542 141.272C565.542 140.304 565.791 139.336 566.29 138.368C566.818 137.371 567.639 136.549 568.754 135.904C569.898 135.229 571.365 134.892 573.154 134.892C574.767 134.892 576.131 135.053 577.246 135.376C578.361 135.699 579.417 136.227 580.414 136.96L578.082 140.568C577.525 140.128 576.894 139.761 576.19 139.468C575.515 139.145 574.885 138.969 574.298 138.94C573.77 138.911 573.315 138.969 572.934 139.116C572.582 139.263 572.303 139.453 572.098 139.688C571.893 139.923 571.79 140.172 571.79 140.436C571.761 140.993 571.966 141.433 572.406 141.756C572.875 142.079 573.462 142.328 574.166 142.504C574.87 142.68 575.559 142.885 576.234 143.12C577.173 143.413 577.979 143.809 578.654 144.308C579.329 144.807 579.842 145.408 580.194 146.112C580.575 146.787 580.766 147.608 580.766 148.576C580.766 149.749 580.458 150.864 579.842 151.92C579.255 152.947 578.346 153.783 577.114 154.428C575.911 155.073 574.371 155.396 572.494 155.396ZM583.418 139.292C583.418 138.383 583.74 137.62 584.386 137.004C585.06 136.388 585.794 136.08 586.586 136.08C587.319 136.08 588.008 136.388 588.654 137.004C589.328 137.62 589.666 138.383 589.666 139.292C589.666 140.26 589.328 141.037 588.654 141.624C588.008 142.181 587.319 142.46 586.586 142.46C585.794 142.46 585.06 142.181 584.386 141.624C583.74 141.037 583.418 140.26 583.418 139.292ZM583.418 151.832C583.418 150.923 583.74 150.16 584.386 149.544C585.06 148.928 585.794 148.62 586.586 148.62C587.319 148.62 588.008 148.928 588.654 149.544C589.328 150.16 589.666 150.923 589.666 151.832C589.666 152.8 589.328 153.577 588.654 154.164C588.008 154.721 587.319 155 586.586 155C585.794 155 585.06 154.721 584.386 154.164C583.74 153.577 583.418 152.8 583.418 151.832ZM609.11 155V122.616H618.79C622.046 122.616 624.818 123.1 627.106 124.068C629.394 125.036 631.227 126.327 632.606 127.94C634.014 129.553 635.04 131.357 635.686 133.352C636.331 135.347 636.654 137.356 636.654 139.38C636.654 141.785 636.214 143.956 635.334 145.892C634.483 147.799 633.31 149.441 631.814 150.82C630.318 152.169 628.587 153.211 626.622 153.944C624.656 154.648 622.574 155 620.374 155H609.11ZM615.49 148.84H619.274C620.887 148.84 622.354 148.635 623.674 148.224C624.994 147.784 626.123 147.153 627.062 146.332C628.03 145.511 628.763 144.484 629.262 143.252C629.79 141.991 630.054 140.553 630.054 138.94C630.054 136.828 629.702 135.112 628.998 133.792C628.323 132.443 627.472 131.401 626.446 130.668C625.448 129.935 624.422 129.436 623.366 129.172C622.31 128.879 621.415 128.732 620.682 128.732H615.49V148.84ZM641.075 138.852C641.075 136.623 641.5 134.511 642.351 132.516C643.202 130.521 644.375 128.761 645.871 127.236C647.396 125.681 649.156 124.464 651.151 123.584C653.146 122.704 655.287 122.264 657.575 122.264C659.834 122.264 661.96 122.704 663.955 123.584C665.95 124.464 667.71 125.681 669.235 127.236C670.79 128.761 671.992 130.521 672.843 132.516C673.723 134.511 674.163 136.623 674.163 138.852C674.163 141.14 673.723 143.281 672.843 145.276C671.992 147.271 670.79 149.031 669.235 150.556C667.71 152.052 665.95 153.225 663.955 154.076C661.96 154.927 659.834 155.352 657.575 155.352C655.287 155.352 653.146 154.927 651.151 154.076C649.156 153.225 647.396 152.052 645.871 150.556C644.375 149.031 643.202 147.271 642.351 145.276C641.5 143.281 641.075 141.14 641.075 138.852ZM647.675 138.852C647.675 140.289 647.924 141.639 648.423 142.9C648.951 144.132 649.67 145.232 650.579 146.2C651.518 147.139 652.588 147.872 653.791 148.4C655.023 148.928 656.358 149.192 657.795 149.192C659.174 149.192 660.45 148.928 661.623 148.4C662.826 147.872 663.867 147.139 664.747 146.2C665.627 145.232 666.316 144.132 666.815 142.9C667.314 141.639 667.563 140.289 667.563 138.852C667.563 137.385 667.299 136.021 666.771 134.76C666.272 133.499 665.568 132.399 664.659 131.46C663.779 130.492 662.738 129.744 661.535 129.216C660.332 128.688 659.027 128.424 657.619 128.424C656.211 128.424 654.906 128.688 653.703 129.216C652.5 129.744 651.444 130.492 650.535 131.46C649.626 132.399 648.922 133.499 648.423 134.76C647.924 136.021 647.675 137.385 647.675 138.852ZM675.131 122.836H682.611L689.519 143.164L688.507 142.724L694.535 127.72L697.483 136.476L688.155 156.496L675.131 122.836ZM691.367 122.836H697.703L705.667 142.504L704.523 142.328L710.463 122.836H717.327L704.831 156.408L691.367 122.836ZM732.746 122.616C734.77 122.616 736.574 122.88 738.158 123.408C739.742 123.907 741.062 124.64 742.118 125.608C743.203 126.547 744.025 127.691 744.582 129.04C745.139 130.36 745.418 131.856 745.418 133.528C745.418 134.848 745.213 136.168 744.802 137.488C744.421 138.808 743.775 140.011 742.866 141.096C741.986 142.181 740.813 143.061 739.346 143.736C737.879 144.381 736.061 144.704 733.89 144.704H729.314V155H722.934V122.616H732.746ZM733.846 138.544C734.814 138.544 735.621 138.383 736.266 138.06C736.911 137.737 737.41 137.327 737.762 136.828C738.143 136.329 738.407 135.816 738.554 135.288C738.73 134.731 738.818 134.217 738.818 133.748C738.818 133.396 738.759 132.956 738.642 132.428C738.554 131.871 738.349 131.313 738.026 130.756C737.703 130.199 737.205 129.729 736.53 129.348C735.885 128.967 735.005 128.776 733.89 128.776H729.314V138.544H733.846ZM739.83 142.504L747.838 155H740.402L732.218 142.68L739.83 142.504Z" fill="#333333"/>
<path d="M288.448 226.744C288.067 227.155 287.465 227.58 286.644 228.02C285.823 228.431 284.869 228.812 283.784 229.164C282.728 229.516 281.643 229.795 280.528 230C279.413 230.235 278.357 230.352 277.36 230.352C274.72 230.352 272.344 229.971 270.232 229.208C268.12 228.416 266.316 227.331 264.82 225.952C263.324 224.544 262.18 222.887 261.388 220.98C260.596 219.073 260.2 216.991 260.2 214.732C260.2 211.769 260.64 209.203 261.52 207.032C262.429 204.832 263.647 203.013 265.172 201.576C266.727 200.109 268.501 199.024 270.496 198.32C272.52 197.616 274.632 197.264 276.832 197.264C278.915 197.264 280.821 197.499 282.552 197.968C284.283 198.408 285.749 198.965 286.952 199.64L284.884 205.58C284.356 205.287 283.652 204.993 282.772 204.7C281.892 204.407 280.997 204.172 280.088 203.996C279.179 203.791 278.372 203.688 277.668 203.688C275.908 203.688 274.353 203.908 273.004 204.348C271.655 204.788 270.511 205.448 269.572 206.328C268.663 207.208 267.973 208.308 267.504 209.628C267.035 210.919 266.8 212.429 266.8 214.16C266.8 215.685 267.064 217.064 267.592 218.296C268.12 219.499 268.853 220.525 269.792 221.376C270.76 222.227 271.889 222.872 273.18 223.312C274.5 223.752 275.952 223.972 277.536 223.972C278.445 223.972 279.281 223.913 280.044 223.796C280.807 223.649 281.452 223.429 281.98 223.136V219.22H276.392V213.06H288.448V226.744ZM300.888 230.924C299.157 230.924 297.705 230.396 296.532 229.34C295.358 228.255 294.742 226.861 294.684 225.16V210.772H300.844V222.872C300.902 223.723 301.122 224.412 301.504 224.94C301.885 225.439 302.53 225.688 303.44 225.688C304.349 225.688 305.126 225.38 305.772 224.764C306.446 224.148 306.96 223.312 307.312 222.256C307.693 221.171 307.884 219.953 307.884 218.604V210.772H314.044V230H308.456L307.972 226.48L308.06 226.876C307.62 227.668 307.062 228.372 306.388 228.988C305.713 229.604 304.906 230.073 303.968 230.396C303.058 230.748 302.032 230.924 300.888 230.924ZM329.839 230.528C327.492 230.528 325.498 230.088 323.855 229.208C322.242 228.328 321.01 227.111 320.159 225.556C319.308 224.001 318.883 222.212 318.883 220.188C318.883 218.252 319.382 216.507 320.379 214.952C321.376 213.397 322.711 212.165 324.383 211.256C326.055 210.317 327.918 209.848 329.971 209.848C332.728 209.848 334.987 210.655 336.747 212.268C338.536 213.852 339.695 216.155 340.223 219.176L325.263 223.928L323.899 220.584L334.723 216.932L333.447 217.504C333.212 216.741 332.787 216.081 332.171 215.524C331.584 214.937 330.69 214.644 329.487 214.644C328.578 214.644 327.771 214.864 327.067 215.304C326.392 215.715 325.864 216.316 325.483 217.108C325.131 217.871 324.955 218.78 324.955 219.836C324.955 221.039 325.175 222.051 325.615 222.872C326.055 223.664 326.656 224.265 327.419 224.676C328.182 225.087 329.032 225.292 329.971 225.292C330.646 225.292 331.291 225.175 331.907 224.94C332.552 224.705 333.183 224.397 333.799 224.016L336.527 228.592C335.5 229.179 334.386 229.648 333.183 230C332.01 230.352 330.895 230.528 329.839 230.528ZM350.947 230.396C349.363 230.396 347.882 230.117 346.503 229.56C345.154 229.003 344.01 228.225 343.071 227.228L345.623 223.84C346.562 224.691 347.427 225.307 348.219 225.688C349.041 226.04 349.774 226.216 350.419 226.216C350.918 226.216 351.358 226.172 351.739 226.084C352.15 225.967 352.473 225.805 352.707 225.6C352.942 225.365 353.059 225.072 353.059 224.72C353.059 224.221 352.854 223.825 352.443 223.532C352.062 223.239 351.563 223.004 350.947 222.828C350.331 222.623 349.671 222.417 348.967 222.212C347.207 221.655 345.931 220.848 345.139 219.792C344.377 218.707 343.995 217.533 343.995 216.272C343.995 215.304 344.245 214.336 344.743 213.368C345.271 212.371 346.093 211.549 347.207 210.904C348.351 210.229 349.818 209.892 351.607 209.892C353.221 209.892 354.585 210.053 355.699 210.376C356.814 210.699 357.87 211.227 358.867 211.96L356.535 215.568C355.978 215.128 355.347 214.761 354.643 214.468C353.969 214.145 353.338 213.969 352.751 213.94C352.223 213.911 351.769 213.969 351.387 214.116C351.035 214.263 350.757 214.453 350.551 214.688C350.346 214.923 350.243 215.172 350.243 215.436C350.214 215.993 350.419 216.433 350.859 216.756C351.329 217.079 351.915 217.328 352.619 217.504C353.323 217.68 354.013 217.885 354.687 218.12C355.626 218.413 356.433 218.809 357.107 219.308C357.782 219.807 358.295 220.408 358.647 221.112C359.029 221.787 359.219 222.608 359.219 223.576C359.219 224.749 358.911 225.864 358.295 226.92C357.709 227.947 356.799 228.783 355.567 229.428C354.365 230.073 352.825 230.396 350.947 230.396ZM370.627 230.396C369.043 230.396 367.562 230.117 366.183 229.56C364.834 229.003 363.69 228.225 362.751 227.228L365.303 223.84C366.242 224.691 367.107 225.307 367.899 225.688C368.72 226.04 369.454 226.216 370.099 226.216C370.598 226.216 371.038 226.172 371.419 226.084C371.83 225.967 372.152 225.805 372.387 225.6C372.622 225.365 372.739 225.072 372.739 224.72C372.739 224.221 372.534 223.825 372.123 223.532C371.742 223.239 371.243 223.004 370.627 222.828C370.011 222.623 369.351 222.417 368.647 222.212C366.887 221.655 365.611 220.848 364.819 219.792C364.056 218.707 363.675 217.533 363.675 216.272C363.675 215.304 363.924 214.336 364.423 213.368C364.951 212.371 365.772 211.549 366.887 210.904C368.031 210.229 369.498 209.892 371.287 209.892C372.9 209.892 374.264 210.053 375.379 210.376C376.494 210.699 377.55 211.227 378.547 211.96L376.215 215.568C375.658 215.128 375.027 214.761 374.323 214.468C373.648 214.145 373.018 213.969 372.431 213.94C371.903 213.911 371.448 213.969 371.067 214.116C370.715 214.263 370.436 214.453 370.231 214.688C370.026 214.923 369.923 215.172 369.923 215.436C369.894 215.993 370.099 216.433 370.539 216.756C371.008 217.079 371.595 217.328 372.299 217.504C373.003 217.68 373.692 217.885 374.367 218.12C375.306 218.413 376.112 218.809 376.787 219.308C377.462 219.807 377.975 220.408 378.327 221.112C378.708 221.787 378.899 222.608 378.899 223.576C378.899 224.749 378.591 225.864 377.975 226.92C377.388 227.947 376.479 228.783 375.247 229.428C374.044 230.073 372.504 230.396 370.627 230.396ZM393.519 230.528C391.172 230.528 389.177 230.088 387.535 229.208C385.921 228.328 384.689 227.111 383.839 225.556C382.988 224.001 382.563 222.212 382.563 220.188C382.563 218.252 383.061 216.507 384.059 214.952C385.056 213.397 386.391 212.165 388.063 211.256C389.735 210.317 391.597 209.848 393.651 209.848C396.408 209.848 398.667 210.655 400.427 212.268C402.216 213.852 403.375 216.155 403.903 219.176L388.943 223.928L387.579 220.584L398.403 216.932L397.127 217.504C396.892 216.741 396.467 216.081 395.851 215.524C395.264 214.937 394.369 214.644 393.167 214.644C392.257 214.644 391.451 214.864 390.747 215.304C390.072 215.715 389.544 216.316 389.163 217.108C388.811 217.871 388.635 218.78 388.635 219.836C388.635 221.039 388.855 222.051 389.295 222.872C389.735 223.664 390.336 224.265 391.099 224.676C391.861 225.087 392.712 225.292 393.651 225.292C394.325 225.292 394.971 225.175 395.587 224.94C396.232 224.705 396.863 224.397 397.479 224.016L400.207 228.592C399.18 229.179 398.065 229.648 396.863 230C395.689 230.352 394.575 230.528 393.519 230.528ZM414.627 230.396C413.043 230.396 411.562 230.117 410.183 229.56C408.834 229.003 407.69 228.225 406.751 227.228L409.303 223.84C410.242 224.691 411.107 225.307 411.899 225.688C412.72 226.04 413.454 226.216 414.099 226.216C414.598 226.216 415.038 226.172 415.419 226.084C415.83 225.967 416.152 225.805 416.387 225.6C416.622 225.365 416.739 225.072 416.739 224.72C416.739 224.221 416.534 223.825 416.123 223.532C415.742 223.239 415.243 223.004 414.627 222.828C414.011 222.623 413.351 222.417 412.647 222.212C410.887 221.655 409.611 220.848 408.819 219.792C408.056 218.707 407.675 217.533 407.675 216.272C407.675 215.304 407.924 214.336 408.423 213.368C408.951 212.371 409.772 211.549 410.887 210.904C412.031 210.229 413.498 209.892 415.287 209.892C416.9 209.892 418.264 210.053 419.379 210.376C420.494 210.699 421.55 211.227 422.547 211.96L420.215 215.568C419.658 215.128 419.027 214.761 418.323 214.468C417.648 214.145 417.018 213.969 416.431 213.94C415.903 213.911 415.448 213.969 415.067 214.116C414.715 214.263 414.436 214.453 414.231 214.688C414.026 214.923 413.923 215.172 413.923 215.436C413.894 215.993 414.099 216.433 414.539 216.756C415.008 217.079 415.595 217.328 416.299 217.504C417.003 217.68 417.692 217.885 418.367 218.12C419.306 218.413 420.112 218.809 420.787 219.308C421.462 219.807 421.975 220.408 422.327 221.112C422.708 221.787 422.899 222.608 422.899 223.576C422.899 224.749 422.591 225.864 421.975 226.92C421.388 227.947 420.479 228.783 419.247 229.428C418.044 230.073 416.504 230.396 414.627 230.396ZM453.191 197.616C455.215 197.616 457.019 197.88 458.603 198.408C460.187 198.907 461.507 199.64 462.563 200.608C463.649 201.547 464.47 202.691 465.027 204.04C465.585 205.36 465.863 206.856 465.863 208.528C465.863 209.848 465.658 211.168 465.247 212.488C464.866 213.808 464.221 215.011 463.311 216.096C462.431 217.181 461.258 218.061 459.791 218.736C458.325 219.381 456.506 219.704 454.335 219.704H449.759V230H443.379V197.616H453.191ZM454.291 213.544C455.259 213.544 456.066 213.383 456.711 213.06C457.357 212.737 457.855 212.327 458.207 211.828C458.589 211.329 458.853 210.816 458.999 210.288C459.175 209.731 459.263 209.217 459.263 208.748C459.263 208.396 459.205 207.956 459.087 207.428C458.999 206.871 458.794 206.313 458.471 205.756C458.149 205.199 457.65 204.729 456.975 204.348C456.33 203.967 455.45 203.776 454.335 203.776H449.759V213.544H454.291ZM460.275 217.504L468.283 230H460.847L452.663 217.68L460.275 217.504ZM481.132 230.528C478.785 230.528 476.791 230.088 475.148 229.208C473.535 228.328 472.303 227.111 471.452 225.556C470.601 224.001 470.176 222.212 470.176 220.188C470.176 218.252 470.675 216.507 471.672 214.952C472.669 213.397 474.004 212.165 475.676 211.256C477.348 210.317 479.211 209.848 481.264 209.848C484.021 209.848 486.28 210.655 488.04 212.268C489.829 213.852 490.988 216.155 491.516 219.176L476.556 223.928L475.192 220.584L486.016 216.932L484.74 217.504C484.505 216.741 484.08 216.081 483.464 215.524C482.877 214.937 481.983 214.644 480.78 214.644C479.871 214.644 479.064 214.864 478.36 215.304C477.685 215.715 477.157 216.316 476.776 217.108C476.424 217.871 476.248 218.78 476.248 219.836C476.248 221.039 476.468 222.051 476.908 222.872C477.348 223.664 477.949 224.265 478.712 224.676C479.475 225.087 480.325 225.292 481.264 225.292C481.939 225.292 482.584 225.175 483.2 224.94C483.845 224.705 484.476 224.397 485.092 224.016L487.82 228.592C486.793 229.179 485.679 229.648 484.476 230C483.303 230.352 482.188 230.528 481.132 230.528ZM501.58 210.772L502.064 214.16L501.976 213.896C502.739 212.605 503.692 211.608 504.836 210.904C505.98 210.171 507.359 209.804 508.972 209.804C510.028 209.804 510.952 209.951 511.744 210.244C512.566 210.537 513.255 210.977 513.812 211.564C514.37 212.121 514.751 212.855 514.956 213.764L514.736 213.808C515.558 212.605 516.54 211.637 517.684 210.904C518.858 210.171 520.075 209.804 521.336 209.804C523.243 209.804 524.754 210.347 525.868 211.432C527.012 212.488 527.599 213.867 527.628 215.568V230H521.512V218.12C521.483 217.269 521.351 216.58 521.116 216.052C520.882 215.495 520.339 215.187 519.488 215.128C518.491 215.128 517.64 215.48 516.936 216.184C516.262 216.859 515.748 217.739 515.396 218.824C515.074 219.88 514.912 220.98 514.912 222.124V230H508.752V218.12C508.723 217.269 508.562 216.58 508.268 216.052C508.004 215.495 507.447 215.187 506.596 215.128C505.628 215.128 504.807 215.48 504.132 216.184C503.487 216.859 502.988 217.724 502.636 218.78C502.314 219.836 502.152 220.921 502.152 222.036V230H495.992V210.772H501.58ZM542.073 230.528C540.283 230.528 538.655 230.176 537.189 229.472C535.751 228.739 534.607 227.624 533.757 226.128C532.906 224.632 532.481 222.725 532.481 220.408C532.481 218.237 532.921 216.36 533.801 214.776C534.681 213.192 535.839 211.975 537.277 211.124C538.714 210.244 540.239 209.804 541.853 209.804C543.759 209.804 545.197 210.127 546.165 210.772C547.162 211.388 547.983 212.077 548.629 212.84L548.365 213.588L548.937 210.772H554.657V230H548.497V225.82L548.981 227.14C548.922 227.14 548.746 227.316 548.453 227.668C548.159 227.991 547.719 228.387 547.133 228.856C546.575 229.296 545.871 229.677 545.021 230C544.199 230.352 543.217 230.528 542.073 230.528ZM543.833 225.512C544.566 225.512 545.226 225.409 545.813 225.204C546.399 224.969 546.913 224.647 547.353 224.236C547.793 223.796 548.174 223.253 548.497 222.608V217.9C548.262 217.255 547.91 216.712 547.441 216.272C546.971 215.803 546.414 215.451 545.769 215.216C545.123 214.952 544.405 214.82 543.613 214.82C542.733 214.82 541.911 215.055 541.149 215.524C540.415 215.964 539.829 216.58 539.389 217.372C538.949 218.164 538.729 219.073 538.729 220.1C538.729 221.127 538.963 222.051 539.433 222.872C539.902 223.693 540.518 224.339 541.281 224.808C542.073 225.277 542.923 225.512 543.833 225.512ZM561.004 210.772H567.164V230H561.004V210.772ZM560.872 203.952C560.872 203.043 561.224 202.295 561.928 201.708C562.661 201.121 563.439 200.828 564.26 200.828C565.081 200.828 565.829 201.121 566.504 201.708C567.208 202.295 567.56 203.043 567.56 203.952C567.56 204.861 567.208 205.609 566.504 206.196C565.829 206.753 565.081 207.032 564.26 207.032C563.439 207.032 562.661 206.753 561.928 206.196C561.224 205.609 560.872 204.861 560.872 203.952ZM579.096 210.772L579.58 214.204L579.492 213.896C580.167 212.693 581.12 211.725 582.352 210.992C583.584 210.229 585.095 209.848 586.884 209.848C588.703 209.848 590.213 210.391 591.416 211.476C592.648 212.532 593.279 213.911 593.308 215.612V230H587.148V217.9C587.119 217.049 586.884 216.375 586.444 215.876C586.033 215.348 585.329 215.084 584.332 215.084C583.393 215.084 582.572 215.392 581.868 216.008C581.164 216.624 580.621 217.46 580.24 218.516C579.859 219.572 579.668 220.789 579.668 222.168V230H573.508V210.772H579.096ZM599.633 210.772H605.793V230H599.633V210.772ZM599.501 203.952C599.501 203.043 599.853 202.295 600.557 201.708C601.29 201.121 602.068 200.828 602.889 200.828C603.71 200.828 604.458 201.121 605.133 201.708C605.837 202.295 606.189 203.043 606.189 203.952C606.189 204.861 605.837 205.609 605.133 206.196C604.458 206.753 603.71 207.032 602.889 207.032C602.068 207.032 601.29 206.753 600.557 206.196C599.853 205.609 599.501 204.861 599.501 203.952ZM617.725 210.772L618.209 214.204L618.121 213.896C618.795 212.693 619.749 211.725 620.981 210.992C622.213 210.229 623.723 209.848 625.513 209.848C627.331 209.848 628.842 210.391 630.045 211.476C631.277 212.532 631.907 213.911 631.937 215.612V230H625.777V217.9C625.747 217.049 625.513 216.375 625.073 215.876C624.662 215.348 623.958 215.084 622.961 215.084C622.022 215.084 621.201 215.392 620.497 216.008C619.793 216.624 619.25 217.46 618.869 218.516C618.487 219.572 618.297 220.789 618.297 222.168V230H612.137V210.772H617.725ZM648.206 239.68C646.475 239.68 645.008 239.475 643.806 239.064C642.632 238.653 641.635 238.155 640.814 237.568C639.992 236.981 639.259 236.424 638.614 235.896L642.222 231.672C642.896 232.288 643.674 232.875 644.554 233.432C645.463 234.019 646.651 234.312 648.118 234.312C649.086 234.312 649.98 234.136 650.802 233.784C651.652 233.461 652.327 232.977 652.826 232.332C653.354 231.687 653.618 230.88 653.618 229.912V225.688L653.838 226.788C653.368 227.785 652.518 228.665 651.286 229.428C650.054 230.161 648.44 230.528 646.446 230.528C644.715 230.528 643.102 230.088 641.606 229.208C640.139 228.299 638.966 227.081 638.086 225.556C637.206 224.001 636.766 222.241 636.766 220.276C636.766 218.252 637.235 216.463 638.174 214.908C639.112 213.324 640.33 212.077 641.826 211.168C643.322 210.259 644.906 209.804 646.578 209.804C648.25 209.804 649.687 210.053 650.89 210.552C652.122 211.021 653.046 211.608 653.662 212.312L653.442 212.884L654.102 210.772H659.778V230C659.778 231.877 659.25 233.535 658.194 234.972C657.138 236.439 655.73 237.583 653.97 238.404C652.239 239.255 650.318 239.68 648.206 239.68ZM642.97 220.1C642.97 221.127 643.204 222.051 643.674 222.872C644.143 223.693 644.774 224.339 645.566 224.808C646.387 225.277 647.296 225.512 648.294 225.512C649.144 225.512 649.892 225.409 650.538 225.204C651.212 224.969 651.799 224.647 652.298 224.236C652.826 223.796 653.266 223.253 653.618 222.608V217.9C653.354 217.255 652.958 216.712 652.43 216.272C651.902 215.803 651.286 215.451 650.582 215.216C649.907 214.952 649.144 214.82 648.294 214.82C647.296 214.82 646.387 215.055 645.566 215.524C644.774 215.964 644.143 216.58 643.674 217.372C643.204 218.164 642.97 219.073 642.97 220.1ZM663.598 214.292C663.598 213.383 663.92 212.62 664.566 212.004C665.24 211.388 665.974 211.08 666.766 211.08C667.499 211.08 668.188 211.388 668.834 212.004C669.508 212.62 669.846 213.383 669.846 214.292C669.846 215.26 669.508 216.037 668.834 216.624C668.188 217.181 667.499 217.46 666.766 217.46C665.974 217.46 665.24 217.181 664.566 216.624C663.92 216.037 663.598 215.26 663.598 214.292ZM663.598 226.832C663.598 225.923 663.92 225.16 664.566 224.544C665.24 223.928 665.974 223.62 666.766 223.62C667.499 223.62 668.188 223.928 668.834 224.544C669.508 225.16 669.846 225.923 669.846 226.832C669.846 227.8 669.508 228.577 668.834 229.164C668.188 229.721 667.499 230 666.766 230C665.974 230 665.24 229.721 664.566 229.164C663.92 228.577 663.598 227.8 663.598 226.832ZM705.173 200.828L698.573 213.5L695.097 211.608C695.391 211.491 695.699 211.403 696.021 211.344C696.373 211.285 696.696 211.256 696.989 211.256C698.016 211.227 699.043 211.344 700.069 211.608C701.096 211.872 702.02 212.341 702.841 213.016C703.692 213.691 704.367 214.615 704.865 215.788C705.393 216.961 705.657 218.457 705.657 220.276C705.657 222.388 705.159 224.207 704.161 225.732C703.193 227.228 701.917 228.372 700.333 229.164C698.749 229.956 697.033 230.352 695.185 230.352C693.748 230.352 692.237 230.059 690.653 229.472C689.069 228.856 687.808 228.049 686.869 227.052L690.125 221.772C690.565 222.329 691.24 222.872 692.149 223.4C693.059 223.928 694.012 224.192 695.009 224.192C695.655 224.192 696.285 224.031 696.901 223.708C697.517 223.385 698.031 222.901 698.441 222.256C698.852 221.611 699.057 220.819 699.057 219.88C699.057 218.589 698.691 217.563 697.957 216.8C697.253 216.037 696.256 215.656 694.965 215.656C694.085 215.656 693.411 215.7 692.941 215.788C692.501 215.847 692.061 215.935 691.621 216.052L691.489 215.876L696.637 206.24L698.485 206.988H689.289V200.828H705.173Z" fill="#333333"/>
<path d="M261 273.5H1022C1022.83 273.5 1023.5 274.172 1023.5 275V361C1023.5 361.828 1022.83 362.5 1022 362.5H261C260.172 362.5 259.5 361.828 259.5 361V275C259.5 274.172 260.172 273.5 261 273.5Z" fill="white" stroke="black" stroke-width="3"/>
<path d="M258 398C258 396.343 259.343 395 261 395H584C585.657 395 587 396.343 587 398V484C587 485.657 585.657 487 584 487H261C259.343 487 258 485.657 258 484V398Z" fill="white"/>
<path d="M261 396.5H584C584.828 396.5 585.5 397.172 585.5 398V484C585.5 484.828 584.828 485.5 584 485.5H261C260.172 485.5 259.5 484.828 259.5 484V398C259.5 397.172 260.172 396.5 261 396.5Z" stroke="#2DDA74" stroke-opacity="0.71" stroke-width="3"/>
<path d="M314.48 331.272C314.04 331.653 313.424 332.035 312.632 332.416C311.84 332.768 310.96 333.091 309.992 333.384C309.053 333.677 308.071 333.912 307.044 334.088C306.047 334.264 305.108 334.352 304.228 334.352C301.676 334.352 299.373 333.956 297.32 333.164C295.296 332.372 293.551 331.272 292.084 329.864C290.647 328.456 289.532 326.799 288.74 324.892C287.977 322.985 287.596 320.917 287.596 318.688C287.596 316.048 288.021 313.687 288.872 311.604C289.752 309.492 290.94 307.717 292.436 306.28C293.961 304.813 295.707 303.713 297.672 302.98C299.637 302.217 301.72 301.836 303.92 301.836C305.768 301.836 307.484 302.056 309.068 302.496C310.652 302.936 312.045 303.493 313.248 304.168L311.796 308.084C311.209 307.732 310.476 307.409 309.596 307.116C308.745 306.823 307.865 306.588 306.956 306.412C306.047 306.207 305.196 306.104 304.404 306.104C302.527 306.104 300.825 306.397 299.3 306.984C297.775 307.541 296.469 308.363 295.384 309.448C294.299 310.504 293.463 311.795 292.876 313.32C292.289 314.816 291.996 316.503 291.996 318.38C291.996 320.111 292.289 321.695 292.876 323.132C293.463 324.569 294.299 325.816 295.384 326.872C296.469 327.899 297.76 328.705 299.256 329.292C300.781 329.849 302.453 330.128 304.272 330.128C305.357 330.128 306.428 330.025 307.484 329.82C308.54 329.585 309.449 329.263 310.212 328.852V322.516H303.876V318.424H314.48V331.272ZM327.371 334.704C325.728 334.704 324.364 334.205 323.279 333.208C322.223 332.181 321.666 330.861 321.607 329.248V315.784H325.699V327.796C325.758 328.793 326.036 329.6 326.535 330.216C327.063 330.832 327.884 331.155 328.999 331.184C330.026 331.184 330.935 330.891 331.727 330.304C332.548 329.688 333.208 328.867 333.707 327.84C334.206 326.784 334.455 325.596 334.455 324.276V315.784H338.547V334H334.807L334.455 329.512L334.675 330.304C334.323 331.155 333.78 331.917 333.047 332.592C332.343 333.237 331.507 333.751 330.539 334.132C329.571 334.513 328.515 334.704 327.371 334.704ZM354.075 334.44C351.992 334.44 350.203 334.029 348.707 333.208C347.211 332.357 346.052 331.213 345.231 329.776C344.439 328.309 344.043 326.637 344.043 324.76C344.043 322.971 344.497 321.343 345.407 319.876C346.316 318.409 347.533 317.236 349.059 316.356C350.584 315.476 352.285 315.036 354.163 315.036C356.568 315.036 358.563 315.74 360.147 317.148C361.731 318.556 362.801 320.492 363.359 322.956L348.355 328.236L347.387 325.816L359.707 321.328L358.827 321.9C358.475 320.932 357.888 320.096 357.067 319.392C356.245 318.659 355.175 318.292 353.855 318.292C352.74 318.292 351.743 318.571 350.863 319.128C349.983 319.656 349.293 320.389 348.795 321.328C348.296 322.267 348.047 323.337 348.047 324.54C348.047 325.801 348.311 326.916 348.839 327.884C349.367 328.823 350.085 329.571 350.995 330.128C351.933 330.656 352.989 330.92 354.163 330.92C354.955 330.92 355.717 330.773 356.451 330.48C357.213 330.187 357.917 329.805 358.563 329.336L360.455 332.372C359.545 332.988 358.519 333.487 357.375 333.868C356.26 334.249 355.16 334.44 354.075 334.44ZM373.59 334.352C372.299 334.352 371.038 334.132 369.806 333.692C368.603 333.223 367.606 332.533 366.814 331.624L368.53 329.248C369.293 329.981 370.07 330.539 370.862 330.92C371.683 331.272 372.49 331.448 373.282 331.448C373.869 331.448 374.411 331.375 374.91 331.228C375.409 331.081 375.805 330.847 376.098 330.524C376.421 330.172 376.582 329.703 376.582 329.116C376.582 328.471 376.362 327.957 375.922 327.576C375.511 327.195 374.969 326.887 374.294 326.652C373.649 326.417 372.959 326.197 372.226 325.992C370.73 325.493 369.586 324.804 368.794 323.924C368.002 323.044 367.606 321.973 367.606 320.712C367.606 319.744 367.841 318.849 368.31 318.028C368.809 317.177 369.527 316.488 370.466 315.96C371.434 315.432 372.622 315.168 374.03 315.168C375.291 315.168 376.421 315.329 377.418 315.652C378.415 315.945 379.354 316.444 380.234 317.148L378.606 319.7C378.078 319.143 377.447 318.732 376.714 318.468C375.981 318.204 375.321 318.057 374.734 318.028C374.235 317.999 373.751 318.072 373.282 318.248C372.842 318.424 372.475 318.673 372.182 318.996C371.889 319.319 371.742 319.7 371.742 320.14C371.742 320.756 371.947 321.255 372.358 321.636C372.769 322.017 373.297 322.325 373.942 322.56C374.617 322.765 375.277 322.985 375.922 323.22C376.831 323.484 377.638 323.836 378.342 324.276C379.046 324.716 379.603 325.259 380.014 325.904C380.454 326.549 380.674 327.356 380.674 328.324C380.674 329.409 380.41 330.421 379.882 331.36C379.383 332.269 378.606 333.003 377.55 333.56C376.523 334.088 375.203 334.352 373.59 334.352ZM391.508 334.352C390.217 334.352 388.956 334.132 387.724 333.692C386.521 333.223 385.524 332.533 384.732 331.624L386.448 329.248C387.211 329.981 387.988 330.539 388.78 330.92C389.601 331.272 390.408 331.448 391.2 331.448C391.787 331.448 392.329 331.375 392.828 331.228C393.327 331.081 393.723 330.847 394.016 330.524C394.339 330.172 394.5 329.703 394.5 329.116C394.5 328.471 394.28 327.957 393.84 327.576C393.429 327.195 392.887 326.887 392.212 326.652C391.567 326.417 390.877 326.197 390.144 325.992C388.648 325.493 387.504 324.804 386.712 323.924C385.92 323.044 385.524 321.973 385.524 320.712C385.524 319.744 385.759 318.849 386.228 318.028C386.727 317.177 387.445 316.488 388.384 315.96C389.352 315.432 390.54 315.168 391.948 315.168C393.209 315.168 394.339 315.329 395.336 315.652C396.333 315.945 397.272 316.444 398.152 317.148L396.524 319.7C395.996 319.143 395.365 318.732 394.632 318.468C393.899 318.204 393.239 318.057 392.652 318.028C392.153 317.999 391.669 318.072 391.2 318.248C390.76 318.424 390.393 318.673 390.1 318.996C389.807 319.319 389.66 319.7 389.66 320.14C389.66 320.756 389.865 321.255 390.276 321.636C390.687 322.017 391.215 322.325 391.86 322.56C392.535 322.765 393.195 322.985 393.84 323.22C394.749 323.484 395.556 323.836 396.26 324.276C396.964 324.716 397.521 325.259 397.932 325.904C398.372 326.549 398.592 327.356 398.592 328.324C398.592 329.409 398.328 330.421 397.8 331.36C397.301 332.269 396.524 333.003 395.468 333.56C394.441 334.088 393.121 334.352 391.508 334.352ZM420.004 307.776H424.096V315.872H429.112V319.084H424.096V334H420.004V319.084H416.66V315.872H420.004V307.776ZM434.056 334V299.944H438.06V320.008L437.972 319.26C438.588 318.057 439.527 317.06 440.788 316.268C442.079 315.476 443.59 315.08 445.32 315.08C447.051 315.08 448.459 315.593 449.544 316.62C450.659 317.617 451.231 318.923 451.26 320.536V334H447.124V321.988C447.095 320.991 446.802 320.184 446.244 319.568C445.716 318.923 444.88 318.6 443.736 318.6C442.68 318.6 441.727 318.908 440.876 319.524C440.026 320.111 439.351 320.917 438.852 321.944C438.383 322.971 438.148 324.144 438.148 325.464V334H434.056ZM466.825 334.44C464.742 334.44 462.953 334.029 461.457 333.208C459.961 332.357 458.802 331.213 457.981 329.776C457.189 328.309 456.793 326.637 456.793 324.76C456.793 322.971 457.247 321.343 458.157 319.876C459.066 318.409 460.283 317.236 461.809 316.356C463.334 315.476 465.035 315.036 466.913 315.036C469.318 315.036 471.313 315.74 472.897 317.148C474.481 318.556 475.551 320.492 476.109 322.956L461.105 328.236L460.137 325.816L472.457 321.328L471.577 321.9C471.225 320.932 470.638 320.096 469.817 319.392C468.995 318.659 467.925 318.292 466.605 318.292C465.49 318.292 464.493 318.571 463.613 319.128C462.733 319.656 462.043 320.389 461.545 321.328C461.046 322.267 460.797 323.337 460.797 324.54C460.797 325.801 461.061 326.916 461.589 327.884C462.117 328.823 462.835 329.571 463.745 330.128C464.683 330.656 465.739 330.92 466.913 330.92C467.705 330.92 468.467 330.773 469.201 330.48C469.963 330.187 470.667 329.805 471.313 329.336L473.205 332.372C472.295 332.988 471.269 333.487 470.125 333.868C469.01 334.249 467.91 334.44 466.825 334.44ZM506.818 315.784L512.186 328.06L511.394 328.148L516.41 315.784H520.414L512.054 335.1L506.202 322.604L500.878 335.1L492.43 315.784H496.434L502.11 328.632L500.702 328.368L504.75 318.952L503.298 315.784H506.818ZM522.793 324.716C522.793 322.897 523.218 321.255 524.069 319.788C524.949 318.321 526.151 317.163 527.677 316.312C529.202 315.461 530.933 315.036 532.869 315.036C534.863 315.036 536.609 315.461 538.105 316.312C539.601 317.163 540.759 318.321 541.581 319.788C542.402 321.255 542.812 322.897 542.812 324.716C542.812 326.535 542.402 328.192 541.581 329.688C540.759 331.155 539.586 332.313 538.061 333.164C536.565 334.015 534.819 334.44 532.825 334.44C530.889 334.44 529.158 334.044 527.633 333.252C526.137 332.431 524.949 331.301 524.069 329.864C523.218 328.397 522.793 326.681 522.793 324.716ZM526.885 324.76C526.885 325.933 527.149 327.004 527.677 327.972C528.205 328.911 528.909 329.659 529.789 330.216C530.698 330.773 531.695 331.052 532.781 331.052C533.925 331.052 534.937 330.773 535.817 330.216C536.726 329.659 537.43 328.911 537.929 327.972C538.427 327.004 538.677 325.933 538.677 324.76C538.677 323.587 538.427 322.531 537.929 321.592C537.43 320.624 536.726 319.861 535.817 319.304C534.937 318.717 533.925 318.424 532.781 318.424C531.666 318.424 530.654 318.717 529.745 319.304C528.865 319.891 528.161 320.668 527.633 321.636C527.134 322.575 526.885 323.616 526.885 324.76ZM552.005 315.784L552.401 321.064L552.181 320.36C552.65 319.245 553.325 318.307 554.205 317.544C555.114 316.752 556.053 316.151 557.021 315.74C558.018 315.3 558.884 315.08 559.617 315.08L559.397 319.128C558.018 319.04 556.801 319.304 555.745 319.92C554.718 320.536 553.897 321.357 553.281 322.384C552.694 323.411 552.401 324.511 552.401 325.684V334H548.353V315.784H552.005ZM571.515 334.44C569.843 334.44 568.317 334.044 566.939 333.252C565.589 332.431 564.519 331.287 563.727 329.82C562.935 328.324 562.539 326.608 562.539 324.672C562.539 322.648 562.949 320.917 563.771 319.48C564.621 318.043 565.765 316.943 567.203 316.18C568.64 315.417 570.253 315.036 572.043 315.036C573.48 315.036 574.844 315.344 576.135 315.96C577.455 316.576 578.481 317.427 579.215 318.512L579.039 319.964V299.944H583.087V334H578.995V329.468L579.435 330.612C578.584 331.727 577.484 332.651 576.135 333.384C574.785 334.088 573.245 334.44 571.515 334.44ZM572.791 330.964C573.876 330.964 574.844 330.773 575.695 330.392C576.545 329.981 577.249 329.424 577.807 328.72C578.364 328.016 578.76 327.18 578.995 326.212V322.78C578.76 321.9 578.335 321.137 577.719 320.492C577.132 319.817 576.413 319.289 575.563 318.908C574.741 318.497 573.817 318.292 572.791 318.292C571.676 318.292 570.649 318.571 569.711 319.128C568.801 319.656 568.068 320.389 567.511 321.328C566.953 322.267 566.675 323.352 566.675 324.584C566.675 325.787 566.953 326.872 567.511 327.84C568.068 328.779 568.816 329.541 569.755 330.128C570.693 330.685 571.705 330.964 572.791 330.964Z" fill="#333333"/>
<path d="M306.032 430.864C304.947 430.307 303.759 429.823 302.468 429.412C301.177 429.001 299.916 428.796 298.684 428.796C296.983 428.796 295.619 429.192 294.592 429.984C293.595 430.776 293.096 431.832 293.096 433.152C293.096 434.149 293.419 435 294.064 435.704C294.709 436.379 295.56 436.965 296.616 437.464C297.672 437.963 298.772 438.432 299.916 438.872C300.913 439.253 301.896 439.679 302.864 440.148C303.832 440.617 304.697 441.204 305.46 441.908C306.252 442.612 306.868 443.477 307.308 444.504C307.777 445.531 308.012 446.807 308.012 448.332C308.012 450.004 307.587 451.529 306.736 452.908C305.915 454.287 304.727 455.372 303.172 456.164C301.617 456.956 299.769 457.352 297.628 457.352C296.22 457.352 294.871 457.191 293.58 456.868C292.319 456.545 291.145 456.135 290.06 455.636C288.975 455.108 288.007 454.565 287.156 454.008L289.048 450.664C289.752 451.163 290.559 451.647 291.468 452.116C292.377 452.556 293.331 452.923 294.328 453.216C295.325 453.48 296.293 453.612 297.232 453.612C298.229 453.612 299.212 453.436 300.18 453.084C301.177 452.703 301.999 452.131 302.644 451.368C303.289 450.605 303.612 449.593 303.612 448.332C303.612 447.247 303.319 446.352 302.732 445.648C302.175 444.915 301.427 444.299 300.488 443.8C299.549 443.272 298.552 442.803 297.496 442.392C296.499 442.011 295.487 441.6 294.46 441.16C293.433 440.691 292.48 440.133 291.6 439.488C290.72 438.813 290.016 437.992 289.488 437.024C288.96 436.056 288.696 434.883 288.696 433.504C288.696 431.832 289.092 430.38 289.884 429.148C290.705 427.887 291.82 426.904 293.228 426.2C294.636 425.467 296.249 425.071 298.068 425.012C300.121 425.012 301.925 425.261 303.48 425.76C305.064 426.259 306.457 426.875 307.66 427.608L306.032 430.864ZM319.937 457.704C318.295 457.704 316.931 457.205 315.845 456.208C314.789 455.181 314.232 453.861 314.173 452.248V438.784H318.265V450.796C318.324 451.793 318.603 452.6 319.101 453.216C319.629 453.832 320.451 454.155 321.565 454.184C322.592 454.184 323.501 453.891 324.293 453.304C325.115 452.688 325.775 451.867 326.273 450.84C326.772 449.784 327.021 448.596 327.021 447.276V438.784H331.113V457H327.373L327.021 452.512L327.241 453.304C326.889 454.155 326.347 454.917 325.613 455.592C324.909 456.237 324.073 456.751 323.105 457.132C322.137 457.513 321.081 457.704 319.937 457.704ZM349.281 457.44C347.609 457.44 346.128 457.073 344.837 456.34C343.576 455.607 342.564 454.683 341.801 453.568L342.285 452.292V457H338.193V422.944H342.241V442.964L342.109 441.424C342.842 440.427 343.884 439.62 345.233 439.004C346.612 438.359 348.137 438.036 349.809 438.036C351.452 438.036 352.948 438.432 354.297 439.224C355.646 440.016 356.717 441.131 357.509 442.568C358.33 443.976 358.741 445.663 358.741 447.628C358.741 449.681 358.301 451.441 357.421 452.908C356.57 454.375 355.426 455.504 353.989 456.296C352.552 457.059 350.982 457.44 349.281 457.44ZM348.445 453.964C349.618 453.964 350.674 453.685 351.613 453.128C352.552 452.571 353.285 451.823 353.813 450.884C354.341 449.916 354.605 448.816 354.605 447.584C354.605 446.411 354.326 445.355 353.769 444.416C353.241 443.448 352.508 442.685 351.569 442.128C350.66 441.571 349.618 441.292 348.445 441.292C347.448 441.292 346.524 441.483 345.673 441.864C344.822 442.245 344.104 442.773 343.517 443.448C342.93 444.093 342.52 444.856 342.285 445.736V449.388C342.52 450.268 342.916 451.06 343.473 451.764C344.03 452.439 344.734 452.981 345.585 453.392C346.436 453.773 347.389 453.964 348.445 453.964ZM367.927 438.784L368.279 442.876L368.103 442.524C368.778 441.145 369.731 440.06 370.963 439.268C372.224 438.476 373.662 438.08 375.275 438.08C376.302 438.08 377.211 438.241 378.003 438.564C378.795 438.887 379.44 439.356 379.939 439.972C380.467 440.559 380.804 441.292 380.951 442.172L380.731 442.304C381.435 440.984 382.403 439.957 383.635 439.224C384.896 438.461 386.216 438.08 387.595 438.08C389.384 438.08 390.792 438.593 391.819 439.62C392.875 440.617 393.418 441.923 393.447 443.536V457H389.355V444.988C389.326 444.049 389.091 443.272 388.651 442.656C388.24 442.011 387.507 441.659 386.451 441.6C385.395 441.6 384.442 441.923 383.591 442.568C382.77 443.213 382.124 444.049 381.655 445.076C381.186 446.073 380.936 447.159 380.907 448.332V457H376.815V444.988C376.786 444.049 376.536 443.272 376.067 442.656C375.627 442.011 374.879 441.659 373.823 441.6C372.738 441.6 371.784 441.923 370.963 442.568C370.142 443.213 369.496 444.049 369.027 445.076C368.587 446.103 368.367 447.203 368.367 448.376V457H364.275V438.784H367.927ZM400.584 438.784H404.676V457H400.584V438.784ZM400.276 432.184C400.276 431.539 400.525 430.996 401.024 430.556C401.552 430.116 402.124 429.896 402.74 429.896C403.356 429.896 403.898 430.116 404.368 430.556C404.866 430.996 405.116 431.539 405.116 432.184C405.116 432.859 404.866 433.416 404.368 433.856C403.898 434.267 403.356 434.472 402.74 434.472C402.124 434.472 401.552 434.252 401.024 433.812C400.525 433.372 400.276 432.829 400.276 432.184ZM413.515 430.776H417.607V438.872H422.623V442.084H417.607V457H413.515V442.084H410.171V438.872H413.515V430.776ZM467.406 454.272C466.966 454.653 466.35 455.035 465.558 455.416C464.766 455.768 463.886 456.091 462.918 456.384C461.979 456.677 460.996 456.912 459.97 457.088C458.972 457.264 458.034 457.352 457.154 457.352C454.602 457.352 452.299 456.956 450.246 456.164C448.222 455.372 446.476 454.272 445.01 452.864C443.572 451.456 442.458 449.799 441.666 447.892C440.903 445.985 440.522 443.917 440.522 441.688C440.522 439.048 440.947 436.687 441.798 434.604C442.678 432.492 443.866 430.717 445.362 429.28C446.887 427.813 448.632 426.713 450.598 425.98C452.563 425.217 454.646 424.836 456.846 424.836C458.694 424.836 460.41 425.056 461.994 425.496C463.578 425.936 464.971 426.493 466.174 427.168L464.722 431.084C464.135 430.732 463.402 430.409 462.522 430.116C461.671 429.823 460.791 429.588 459.882 429.412C458.972 429.207 458.122 429.104 457.33 429.104C455.452 429.104 453.751 429.397 452.226 429.984C450.7 430.541 449.395 431.363 448.31 432.448C447.224 433.504 446.388 434.795 445.802 436.32C445.215 437.816 444.922 439.503 444.922 441.38C444.922 443.111 445.215 444.695 445.802 446.132C446.388 447.569 447.224 448.816 448.31 449.872C449.395 450.899 450.686 451.705 452.182 452.292C453.707 452.849 455.379 453.128 457.198 453.128C458.283 453.128 459.354 453.025 460.41 452.82C461.466 452.585 462.375 452.263 463.138 451.852V445.516H456.802V441.424H467.406V454.272ZM480.297 457.704C478.654 457.704 477.29 457.205 476.205 456.208C475.149 455.181 474.591 453.861 474.533 452.248V438.784H478.625V450.796C478.683 451.793 478.962 452.6 479.461 453.216C479.989 453.832 480.81 454.155 481.925 454.184C482.951 454.184 483.861 453.891 484.653 453.304C485.474 452.688 486.134 451.867 486.633 450.84C487.131 449.784 487.381 448.596 487.381 447.276V438.784H491.473V457H487.733L487.381 452.512L487.601 453.304C487.249 454.155 486.706 454.917 485.973 455.592C485.269 456.237 484.433 456.751 483.465 457.132C482.497 457.513 481.441 457.704 480.297 457.704ZM507 457.44C504.918 457.44 503.128 457.029 501.632 456.208C500.136 455.357 498.978 454.213 498.156 452.776C497.364 451.309 496.968 449.637 496.968 447.76C496.968 445.971 497.423 444.343 498.332 442.876C499.242 441.409 500.459 440.236 501.984 439.356C503.51 438.476 505.211 438.036 507.088 438.036C509.494 438.036 511.488 438.74 513.072 440.148C514.656 441.556 515.727 443.492 516.284 445.956L501.28 451.236L500.312 448.816L512.632 444.328L511.752 444.9C511.4 443.932 510.814 443.096 509.992 442.392C509.171 441.659 508.1 441.292 506.78 441.292C505.666 441.292 504.668 441.571 503.788 442.128C502.908 442.656 502.219 443.389 501.72 444.328C501.222 445.267 500.972 446.337 500.972 447.54C500.972 448.801 501.236 449.916 501.764 450.884C502.292 451.823 503.011 452.571 503.92 453.128C504.859 453.656 505.915 453.92 507.088 453.92C507.88 453.92 508.643 453.773 509.376 453.48C510.139 453.187 510.843 452.805 511.488 452.336L513.38 455.372C512.471 455.988 511.444 456.487 510.3 456.868C509.186 457.249 508.086 457.44 507 457.44ZM526.516 457.352C525.225 457.352 523.964 457.132 522.732 456.692C521.529 456.223 520.532 455.533 519.74 454.624L521.456 452.248C522.218 452.981 522.996 453.539 523.788 453.92C524.609 454.272 525.416 454.448 526.208 454.448C526.794 454.448 527.337 454.375 527.836 454.228C528.334 454.081 528.73 453.847 529.024 453.524C529.346 453.172 529.508 452.703 529.508 452.116C529.508 451.471 529.288 450.957 528.848 450.576C528.437 450.195 527.894 449.887 527.22 449.652C526.574 449.417 525.885 449.197 525.152 448.992C523.656 448.493 522.512 447.804 521.72 446.924C520.928 446.044 520.532 444.973 520.532 443.712C520.532 442.744 520.766 441.849 521.236 441.028C521.734 440.177 522.453 439.488 523.392 438.96C524.36 438.432 525.548 438.168 526.956 438.168C528.217 438.168 529.346 438.329 530.344 438.652C531.341 438.945 532.28 439.444 533.16 440.148L531.532 442.7C531.004 442.143 530.373 441.732 529.64 441.468C528.906 441.204 528.246 441.057 527.66 441.028C527.161 440.999 526.677 441.072 526.208 441.248C525.768 441.424 525.401 441.673 525.108 441.996C524.814 442.319 524.668 442.7 524.668 443.14C524.668 443.756 524.873 444.255 525.284 444.636C525.694 445.017 526.222 445.325 526.868 445.56C527.542 445.765 528.202 445.985 528.848 446.22C529.757 446.484 530.564 446.836 531.268 447.276C531.972 447.716 532.529 448.259 532.94 448.904C533.38 449.549 533.6 450.356 533.6 451.324C533.6 452.409 533.336 453.421 532.808 454.36C532.309 455.269 531.532 456.003 530.476 456.56C529.449 457.088 528.129 457.352 526.516 457.352ZM544.434 457.352C543.143 457.352 541.882 457.132 540.65 456.692C539.447 456.223 538.45 455.533 537.658 454.624L539.374 452.248C540.136 452.981 540.914 453.539 541.706 453.92C542.527 454.272 543.334 454.448 544.126 454.448C544.712 454.448 545.255 454.375 545.754 454.228C546.252 454.081 546.648 453.847 546.942 453.524C547.264 453.172 547.426 452.703 547.426 452.116C547.426 451.471 547.206 450.957 546.766 450.576C546.355 450.195 545.812 449.887 545.138 449.652C544.492 449.417 543.803 449.197 543.07 448.992C541.574 448.493 540.43 447.804 539.638 446.924C538.846 446.044 538.45 444.973 538.45 443.712C538.45 442.744 538.684 441.849 539.154 441.028C539.652 440.177 540.371 439.488 541.31 438.96C542.278 438.432 543.466 438.168 544.874 438.168C546.135 438.168 547.264 438.329 548.262 438.652C549.259 438.945 550.198 439.444 551.078 440.148L549.45 442.7C548.922 442.143 548.291 441.732 547.558 441.468C546.824 441.204 546.164 441.057 545.578 441.028C545.079 440.999 544.595 441.072 544.126 441.248C543.686 441.424 543.319 441.673 543.026 441.996C542.732 442.319 542.586 442.7 542.586 443.14C542.586 443.756 542.791 444.255 543.202 444.636C543.612 445.017 544.14 445.325 544.786 445.56C545.46 445.765 546.12 445.985 546.766 446.22C547.675 446.484 548.482 446.836 549.186 447.276C549.89 447.716 550.447 448.259 550.858 448.904C551.298 449.549 551.518 450.356 551.518 451.324C551.518 452.409 551.254 453.421 550.726 454.36C550.227 455.269 549.45 456.003 548.394 456.56C547.367 457.088 546.047 457.352 544.434 457.352Z" fill="#2DDA74"/>
</svg>
